{"glyphs":{"0":{"ha":763,"x_min":88,"x_max":671,"o":"m 671 703 l 671 257 q 585 51 671 117 q 381 -15 500 -15 q 174 51 261 -15 q 88 257 88 117 l 88 704 q 166 921 88 847 q 382 994 244 994 q 595 917 519 994 q 671 703 671 839 m 594 260 l 594 717 q 535 869 594 818 q 379 921 476 921 q 224 869 282 921 q 165 717 165 818 l 165 258 q 226 109 165 160 q 380 58 286 58 q 534 108 474 58 q 594 260 594 157 z "},"1":{"ha":290,"x_min":33,"x_max":257,"o":"m 257 0 l 179 0 l 179 881 q 125 844 157 860 q 72 822 93 828 l 51 817 l 33 890 q 108 914 64 890 q 179 972 151 938 l 257 972 l 257 0 z "},"2":{"ha":554,"x_min":33,"x_max":521,"o":"m 521 0 l 33 0 l 33 74 l 386 608 q 436 751 436 689 q 387 871 436 829 q 282 913 338 913 q 185 879 226 913 q 124 792 143 846 l 51 819 q 135 940 78 893 q 285 986 193 986 q 444 928 378 986 q 518 770 518 864 q 457 574 518 676 l 124 72 l 521 72 l 521 0 z "},"3":{"ha":608,"x_min":33,"x_max":575,"o":"m 33 115 l 99 157 q 279 61 163 61 q 433 125 369 61 q 497 278 497 189 q 436 430 497 367 q 288 497 375 493 l 135 497 l 403 896 l 99 896 l 99 972 l 497 972 l 497 904 l 276 574 l 279 574 q 489 488 403 574 q 575 278 575 401 q 489 69 575 156 q 279 -17 403 -17 q 139 19 204 -17 q 33 115 74 54 z "},"4":{"ha":685,"x_min":33,"x_max":651,"o":"m 550 0 l 472 0 l 472 497 l 33 497 l 303 972 l 383 972 l 167 574 l 472 574 l 472 972 l 550 972 l 550 574 l 651 574 l 625 497 l 550 497 l 550 0 z "},"5":{"ha":608,"x_min":33,"x_max":575,"o":"m 33 115 l 99 157 q 279 61 163 61 q 433 125 369 61 q 497 279 497 189 q 433 433 497 369 q 279 497 369 497 l 79 497 l 129 972 l 497 972 l 497 896 l 197 896 l 164 574 l 279 574 q 489 488 403 574 q 575 278 575 401 q 489 69 575 156 q 279 -17 403 -17 q 139 19 204 -17 q 33 115 74 54 z "},"6":{"ha":657,"x_min":33,"x_max":624,"o":"m 33 279 l 33 640 q 103 856 33 756 q 210 940 140 907 q 372 972 279 972 l 421 972 l 421 896 l 367 896 q 186 828 263 896 q 110 631 110 761 l 110 461 q 198 544 139 514 q 328 574 257 574 q 538 488 451 574 q 624 278 624 401 q 537 69 624 156 q 328 -17 450 -17 q 119 69 206 -17 q 33 279 33 156 m 110 288 l 110 279 q 173 124 110 188 q 328 60 236 60 q 483 124 419 60 q 547 279 547 188 q 483 434 547 371 q 329 497 419 497 q 176 437 239 497 q 110 288 113 376 z "},"7":{"ha":614,"x_min":33,"x_max":581,"o":"m 138 0 l 51 0 l 492 896 l 33 896 l 33 972 l 581 972 l 581 896 l 138 0 z "},"8":{"ha":658,"x_min":33,"x_max":625,"o":"m 319 497 q 172 431 232 493 q 111 278 111 368 q 175 125 111 189 q 329 61 239 61 q 483 125 419 61 q 547 278 547 189 q 483 431 547 368 q 319 497 419 493 m 468 539 q 582 431 539 500 q 625 279 625 363 q 539 69 625 156 q 329 -17 453 -17 q 119 69 206 -17 q 33 279 33 156 q 76 433 33 364 q 192 540 119 503 q 88 740 88 611 q 158 913 88 842 q 331 985 229 985 q 504 913 433 985 q 575 740 575 842 q 468 539 575 610 m 324 574 q 449 622 399 574 q 500 741 500 671 q 450 861 500 811 q 330 911 400 911 q 210 861 260 911 q 160 742 160 811 q 207 624 160 672 q 324 574 254 576 z "},"9":{"ha":657,"x_min":33,"x_max":624,"o":"m 285 0 l 236 0 l 236 76 l 290 76 q 471 144 394 76 q 547 342 547 211 l 547 490 q 333 396 460 396 q 119 482 206 396 q 33 691 33 568 q 119 900 33 814 q 328 986 206 986 q 538 900 451 986 q 624 690 624 814 l 624 332 q 553 117 624 217 q 447 33 517 65 q 285 0 378 0 m 174 535 q 206 504 174 535 q 329 472 238 472 q 484 535 421 472 q 547 692 547 599 q 483 848 547 786 q 328 910 419 910 q 174 846 238 910 q 110 690 110 782 q 174 535 110 599 z "}," ":{"ha":386,"x_min":0,"x_max":0,"o":""},"!":{"ha":313,"x_min":108,"x_max":201,"o":"m 189 167 l 124 167 l 110 935 q 156 986 110 986 q 201 936 201 986 l 189 167 m 186 14 q 179 7 186 14 q 154 0 172 0 q 122 14 136 0 q 108 46 108 28 q 122 78 108 64 q 154 92 136 92 q 186 78 172 92 q 200 46 200 64 q 186 14 200 28 z "},"\"":{"ha":592,"x_min":146,"x_max":442,"o":"m 221 711 l 165 711 l 146 972 q 169 1015 146 1003 q 193 1022 181 1022 l 217 1015 q 240 972 240 1003 l 221 711 m 422 711 l 367 711 l 347 972 q 371 1015 347 1003 q 394 1022 383 1022 l 418 1015 q 442 972 442 1003 l 422 711 z "},"#":{"ha":851,"x_min":47,"x_max":808,"o":"m 808 263 l 532 263 l 471 0 l 394 0 l 456 263 l 290 263 l 229 0 l 153 0 l 214 263 l 47 263 l 47 340 l 232 340 l 288 574 l 47 574 l 47 651 l 306 651 l 381 972 l 457 972 l 382 651 l 547 651 l 622 972 l 699 972 l 624 651 l 808 651 l 808 574 l 606 574 l 550 340 l 808 340 l 808 263 m 474 340 l 529 574 l 364 574 l 308 340 l 474 340 z "},"$":{"ha":750,"x_min":47,"x_max":707,"o":"m 415 -158 l 338 -158 l 338 -14 q 126 74 203 -3 q 47 247 50 151 l 126 247 q 189 126 132 181 q 338 61 246 71 l 338 492 q 156 578 225 531 q 72 747 72 638 q 140 903 72 835 q 338 983 208 972 l 338 1135 l 415 1135 l 415 985 q 588 944 510 982 q 564 871 588 942 q 415 910 497 906 l 415 547 q 647 425 590 488 q 707 267 707 357 q 636 71 707 146 q 415 -14 565 -4 l 415 -158 m 415 464 l 415 61 q 565 119 507 71 q 624 252 624 167 q 570 382 624 338 q 415 464 517 426 m 338 574 l 338 908 q 202 855 251 897 q 153 747 153 813 q 201 643 153 681 q 338 574 249 606 z "},"%":{"ha":933,"x_min":47,"x_max":890,"o":"m 96 1 l 47 57 l 835 1028 l 890 971 l 96 1 m 829 43 q 800 14 829 43 q 688 -15 771 -15 q 546 43 604 -15 q 488 185 488 101 q 546 326 488 268 q 688 385 604 385 q 829 326 771 385 q 888 185 888 268 q 829 43 888 101 m 782 94 q 800 114 782 94 q 818 185 818 133 q 782 276 818 236 q 688 315 746 315 q 593 276 629 315 q 557 185 557 236 q 593 94 557 133 q 688 54 629 54 q 782 94 746 54 m 397 668 q 368 639 397 668 q 256 610 339 610 q 114 668 172 610 q 56 810 56 726 q 114 951 56 893 q 256 1010 172 1010 q 397 951 339 1010 q 456 810 456 893 q 397 668 456 726 m 350 719 q 368 739 350 719 q 386 810 386 758 q 350 901 386 861 q 256 940 314 940 q 161 901 197 940 q 125 810 125 861 q 161 719 125 758 q 256 679 197 679 q 350 719 314 679 z "},"&":{"ha":761,"x_min":49,"x_max":718,"o":"m 692 44 l 669 -15 q 580 35 617 0 q 533 121 543 71 q 296 -15 453 -15 q 106 72 171 -15 q 49 249 49 149 q 81 399 49 336 q 160 499 113 461 q 247 559 208 538 q 340 604 285 581 q 258 656 294 611 q 215 786 215 707 q 304 950 215 892 q 422 988 364 988 q 529 971 479 988 l 486 907 q 417 917 454 917 q 342 889 379 917 q 292 789 292 849 q 361 667 292 704 q 433 644 401 644 q 483 649 464 644 l 521 656 l 521 846 l 600 846 l 600 672 l 701 694 l 718 621 l 600 594 l 600 196 q 692 44 600 75 m 521 304 l 521 578 q 225 458 318 532 q 158 381 188 428 q 125 247 125 324 q 169 115 125 171 q 307 60 214 60 q 460 134 400 60 q 521 304 521 208 z "},"'":{"ha":239,"x_min":64,"x_max":158,"o":"m 139 818 l 83 818 l 64 972 q 88 1015 64 1003 q 111 1022 100 1022 l 135 1015 q 158 972 158 1003 l 139 818 z "},"(":{"ha":390,"x_min":108,"x_max":279,"o":"m 279 -114 l 254 -165 q 142 -65 175 -119 q 108 99 108 -10 l 108 871 q 142 1034 108 979 q 254 1135 175 1089 l 279 1083 q 186 883 186 1014 l 186 86 q 279 -114 186 -44 z "},")":{"ha":390,"x_min":108,"x_max":279,"o":"m 133 -165 l 108 -114 q 201 86 201 -44 l 201 883 q 108 1083 201 1014 l 133 1135 q 246 1034 213 1089 q 279 871 279 979 l 279 99 q 246 -65 279 -10 q 133 -165 213 -119 z "},"*":{"ha":489,"x_min":33,"x_max":456,"o":"m 396 625 l 339 582 l 243 715 l 153 582 l 90 625 l 181 751 l 33 804 l 58 871 l 206 815 l 206 972 l 279 972 l 279 815 l 428 871 l 456 804 l 304 751 l 396 625 z "},"+":{"ha":535,"x_min":47,"x_max":492,"o":"m 308 313 l 232 313 l 232 497 l 47 497 l 47 574 l 232 574 l 232 757 l 308 757 l 308 574 l 492 574 l 492 497 l 308 497 l 308 313 z "},",":{"ha":221,"x_min":15,"x_max":160,"o":"m 71 -117 l 15 -78 q 96 -14 78 -42 l 103 -4 l 89 0 q 65 43 64 18 q 78 80 65 68 q 101 92 92 92 q 121 91 111 92 q 145 74 131 90 q 160 38 160 58 q 71 -117 160 -43 z "},"-":{"ha":569,"x_min":63,"x_max":507,"o":"m 507 497 l 63 497 l 63 574 l 507 574 l 507 497 z "},".":{"ha":167,"x_min":15,"x_max":107,"o":"m 94 14 q 87 7 94 14 q 61 0 81 0 q 28 14 42 0 q 15 46 15 28 q 28 78 15 64 q 61 92 42 92 q 94 78 81 92 q 107 46 107 64 q 94 14 107 28 z "},"/":{"ha":596,"x_min":33,"x_max":563,"o":"m 118 -158 l 33 -158 l 483 1135 l 563 1135 l 118 -158 z "},":":{"ha":158,"x_min":33,"x_max":125,"o":"m 111 503 q 104 496 111 503 q 79 489 97 489 q 47 503 61 489 q 33 535 33 517 q 47 567 33 553 q 79 581 61 581 q 111 567 97 581 q 125 535 125 553 q 111 503 125 517 m 111 167 q 104 161 111 167 q 79 154 97 154 q 47 167 61 154 q 33 200 33 181 q 47 233 33 219 q 79 246 61 246 q 111 233 97 246 q 125 200 125 219 q 111 167 125 181 z "},";":{"ha":213,"x_min":33,"x_max":178,"o":"m 163 348 q 157 341 163 348 q 131 335 150 335 q 98 348 111 335 q 85 381 85 361 q 98 413 85 400 q 131 426 111 426 q 163 413 150 426 q 176 381 176 400 q 163 348 176 361 m 89 -117 l 33 -78 q 114 -14 96 -42 l 121 -4 l 107 0 q 83 43 82 18 q 97 80 83 68 q 119 92 110 92 q 139 91 129 92 q 163 74 149 90 q 178 38 178 58 q 89 -117 178 -43 z "},"<":{"ha":507,"x_min":33,"x_max":474,"o":"m 474 164 l 419 111 l 33 497 l 33 499 l 419 885 l 474 832 l 139 497 l 474 164 z "},"=":{"ha":511,"x_min":33,"x_max":478,"o":"m 478 497 l 33 497 l 33 574 l 478 574 l 478 497 m 478 351 l 33 351 l 33 428 l 478 428 l 478 351 z "},">":{"ha":507,"x_min":33,"x_max":474,"o":"m 88 111 l 33 164 l 368 497 l 33 832 l 88 885 l 474 499 l 474 497 l 88 111 z "},"?":{"ha":560,"x_min":33,"x_max":525,"o":"m 299 165 l 228 165 l 228 294 q 247 409 228 358 q 288 487 265 460 q 345 551 310 514 q 397 611 381 588 q 443 743 443 682 q 394 864 443 817 q 277 911 344 911 q 160 867 210 911 q 111 739 111 824 l 33 739 q 98 914 33 843 q 281 985 163 985 q 411 947 353 985 q 525 746 525 876 q 474 585 525 660 q 410 509 447 547 q 352 449 372 471 q 316 377 332 426 q 299 253 300 328 l 299 165 m 294 14 q 288 7 294 14 q 263 0 281 0 q 231 14 244 0 q 217 46 217 28 q 231 78 217 64 q 263 92 244 92 q 294 78 281 92 q 308 46 308 64 q 294 14 308 28 z "},"@":{"ha":982,"x_min":33,"x_max":949,"o":"m 444 75 q 204 283 219 75 l 204 424 q 326 624 204 578 q 429 642 374 642 q 657 581 531 642 q 591 697 649 661 q 457 733 533 733 q 325 722 381 733 q 219 682 269 710 q 111 475 111 624 l 111 264 q 160 101 111 165 q 283 10 210 36 q 449 -15 356 -15 q 718 47 610 -15 q 826 225 826 110 l 826 479 q 840 614 826 581 q 928 683 864 663 l 949 631 q 901 533 901 610 l 903 238 q 860 83 903 150 q 749 -19 818 17 q 440 -92 610 -92 q 152 -6 271 -92 q 33 254 33 81 l 33 475 q 58 611 33 551 q 125 706 83 671 q 282 786 201 768 q 435 804 363 804 q 579 785 508 804 q 694 706 650 765 q 739 554 739 647 l 790 532 l 790 464 l 739 486 l 739 126 q 444 75 550 75 m 661 510 q 421 569 540 569 q 320 532 360 569 q 281 419 281 494 l 281 283 q 383 153 282 179 q 454 144 415 144 q 661 185 540 144 l 661 510 z "},"A":{"ha":732,"x_min":17,"x_max":718,"o":"m 718 0 l 635 0 l 524 340 l 207 340 l 99 0 l 17 0 l 328 972 l 401 972 l 718 0 m 503 417 l 364 851 l 229 417 l 503 417 z "},"B":{"ha":756,"x_min":108,"x_max":710,"o":"m 428 0 l 108 0 l 108 972 l 415 972 q 594 914 529 972 q 660 733 660 856 q 568 547 660 610 q 567 544 567 546 l 567 543 q 669 453 628 515 q 710 290 710 390 q 653 97 710 179 q 566 26 624 53 q 428 0 508 0 m 186 574 l 413 574 q 535 615 490 574 q 579 736 579 657 q 404 899 579 899 l 186 899 l 186 574 m 186 74 l 425 74 q 626 296 626 74 q 574 445 626 393 q 449 497 521 497 l 186 497 l 186 74 z "},"C":{"ha":606,"x_min":92,"x_max":593,"o":"m 593 32 q 368 -14 475 -14 q 301 -10 346 -14 q 205 22 256 -6 q 123 108 154 49 q 92 254 92 167 l 92 700 q 122 860 92 806 q 213 951 151 914 q 361 986 275 986 q 558 940 468 986 l 536 888 q 386 917 457 917 q 169 713 169 917 l 169 257 q 346 58 169 75 q 375 56 360 56 q 576 97 458 56 l 593 32 z "},"D":{"ha":800,"x_min":108,"x_max":692,"o":"m 397 0 l 108 0 l 108 974 l 369 974 q 609 888 526 974 q 692 658 692 801 l 692 278 q 397 0 692 0 m 614 264 l 614 672 q 544 846 614 789 q 383 903 475 903 l 186 903 l 186 69 l 375 69 q 614 264 614 69 z "},"E":{"ha":646,"x_min":108,"x_max":572,"o":"m 569 0 l 108 0 l 108 972 l 572 972 l 572 900 l 186 900 l 186 574 l 451 574 l 425 497 l 186 497 l 186 69 l 569 69 l 569 0 z "},"F":{"ha":618,"x_min":108,"x_max":572,"o":"m 186 0 l 108 0 l 108 972 l 572 972 l 572 899 l 186 899 l 186 574 l 424 574 l 392 497 l 186 497 l 186 0 z "},"G":{"ha":746,"x_min":90,"x_max":661,"o":"m 661 0 l 604 0 l 585 57 q 387 -14 513 -14 q 176 56 261 -14 q 90 263 90 125 l 90 699 q 211 950 90 876 q 360 985 274 985 q 557 939 467 985 l 535 886 q 385 915 456 915 q 168 711 168 915 l 168 260 q 228 114 168 167 q 383 61 289 61 q 532 115 476 61 q 588 258 588 169 l 588 340 l 496 340 l 469 417 l 661 417 l 661 0 z "},"H":{"ha":817,"x_min":108,"x_max":706,"o":"m 706 0 l 628 0 l 628 497 l 186 497 l 186 0 l 108 0 l 108 972 l 186 972 l 186 574 l 628 574 l 628 972 l 706 972 l 706 0 z "},"I":{"ha":367,"x_min":92,"x_max":263,"o":"m 263 0 l 185 0 l 185 901 l 92 904 l 92 972 l 263 972 l 263 0 z "},"J":{"ha":272,"x_min":19,"x_max":213,"o":"m 38 -51 l 19 0 q 99 38 65 0 q 133 158 133 75 l 133 901 l 40 904 l 40 972 l 213 972 l 213 164 q 166 5 213 61 q 38 -51 119 -51 z "},"K":{"ha":660,"x_min":110,"x_max":661,"o":"m 661 0 l 568 0 l 254 479 l 188 374 l 188 0 l 110 0 l 110 974 l 188 974 l 188 510 l 499 974 l 589 974 l 304 553 l 661 0 z "},"L":{"ha":611,"x_min":108,"x_max":610,"o":"m 610 0 l 108 0 l 108 972 l 186 972 l 186 69 l 610 69 l 610 0 z "},"M":{"ha":964,"x_min":108,"x_max":853,"o":"m 853 0 l 775 0 l 775 743 l 522 0 l 438 0 l 186 743 l 186 0 l 108 0 l 108 972 l 186 972 l 479 119 l 775 972 l 853 972 l 853 0 z "},"N":{"ha":903,"x_min":108,"x_max":792,"o":"m 792 0 l 714 0 l 186 829 l 186 0 l 108 0 l 108 972 l 186 972 l 714 143 l 714 972 l 792 972 l 792 0 z "},"O":{"ha":763,"x_min":88,"x_max":671,"o":"m 671 703 l 671 257 q 585 51 671 117 q 381 -15 500 -15 q 174 51 261 -15 q 88 257 88 117 l 88 704 q 166 921 88 847 q 382 994 244 994 q 595 917 519 994 q 671 703 671 839 m 594 260 l 594 717 q 535 869 594 818 q 379 921 476 921 q 224 869 282 921 q 165 717 165 818 l 165 258 q 226 109 165 160 q 380 58 286 58 q 534 108 474 58 q 594 260 594 157 z "},"P":{"ha":757,"x_min":108,"x_max":711,"o":"m 186 417 l 461 417 q 546 437 511 417 q 597 482 581 457 q 622 550 614 507 q 633 675 633 599 q 585 843 633 788 q 456 899 538 899 l 186 899 l 186 417 m 186 0 l 108 0 l 108 972 l 450 972 q 647 892 582 972 q 711 675 711 811 q 709 592 711 626 q 693 506 707 558 q 654 422 679 454 q 579 365 629 389 q 460 340 529 340 l 186 340 l 186 0 z "},"Q":{"ha":763,"x_min":88,"x_max":671,"o":"m 594 -56 l 594 -131 q 369 -15 428 -131 q 178 47 261 -12 q 112 132 136 78 q 88 257 88 186 l 88 704 q 166 921 88 847 q 382 994 244 994 q 595 917 519 994 q 671 703 671 839 l 671 257 q 608 72 671 136 q 447 -10 544 7 q 589 -56 485 -56 q 594 -56 592 -56 m 594 260 l 594 717 q 535 869 594 818 q 379 921 476 921 q 224 869 282 921 q 165 717 165 818 l 165 258 q 215 119 165 169 q 344 60 264 68 q 339 140 339 93 l 339 242 l 417 242 l 417 142 q 421 61 417 85 q 547 120 500 71 q 594 260 594 169 z "},"R":{"ha":783,"x_min":108,"x_max":713,"o":"m 713 0 l 633 0 l 515 344 q 460 340 490 340 l 186 340 l 186 0 l 108 0 l 108 972 l 450 972 q 647 892 582 972 q 711 675 711 811 q 706 564 711 610 q 672 458 701 518 q 589 368 643 397 l 713 0 m 186 417 l 461 417 q 546 437 511 417 q 597 482 581 457 q 622 550 614 507 q 633 675 633 599 q 585 843 633 788 q 456 899 538 899 l 186 899 l 186 417 z "},"S":{"ha":779,"x_min":51,"x_max":711,"o":"m 51 247 l 131 247 q 205 117 138 174 q 378 60 272 60 q 556 108 483 60 q 628 260 628 156 q 587 369 628 324 q 485 438 546 414 q 352 488 424 461 q 219 542 281 515 q 117 621 158 568 q 76 747 76 674 q 157 915 76 844 q 389 986 238 986 q 592 944 504 986 q 568 871 592 942 q 387 911 489 911 q 221 867 285 911 q 157 743 157 822 q 267 604 157 654 q 374 563 315 582 q 493 519 433 543 q 601 466 553 496 q 681 385 650 436 q 711 267 711 333 q 630 62 711 139 q 388 -15 549 -15 q 141 65 228 -15 q 51 247 54 144 z "},"T":{"ha":558,"x_min":0,"x_max":558,"o":"m 314 0 l 236 0 l 236 903 l 0 903 l 0 972 l 558 972 l 558 903 l 314 903 l 314 0 z "},"U":{"ha":786,"x_min":103,"x_max":688,"o":"m 610 247 l 610 974 l 688 974 l 688 258 q 662 131 688 185 q 592 47 636 76 q 500 4 549 18 q 396 -10 451 -10 q 291 4 340 -10 q 198 47 242 18 q 128 131 154 76 q 103 258 103 185 l 103 974 l 181 974 l 181 247 q 242 111 181 163 q 394 60 304 60 q 547 111 485 60 q 610 247 610 163 z "},"V":{"ha":818,"x_min":108,"x_max":772,"o":"m 494 0 l 388 0 l 108 972 l 192 972 l 440 96 l 689 972 l 772 972 l 494 0 z "},"W":{"ha":1121,"x_min":108,"x_max":1075,"o":"m 849 0 l 731 0 l 593 832 l 456 0 l 338 0 l 108 972 l 192 972 l 390 96 l 539 972 l 647 972 l 796 96 l 992 972 l 1075 972 l 849 0 z "},"X":{"ha":872,"x_min":108,"x_max":813,"o":"m 813 0 l 717 0 l 461 408 l 204 0 l 108 0 l 415 489 l 135 972 l 222 972 l 461 564 l 703 972 l 790 972 l 508 489 l 813 0 z "},"Y":{"ha":778,"x_min":83,"x_max":700,"o":"m 554 -10 l 536 42 q 621 211 621 74 l 621 408 q 521 358 583 375 q 401 340 458 340 q 169 413 254 340 q 83 629 83 486 l 83 972 l 161 972 l 161 615 q 228 467 161 518 q 389 417 294 417 q 544 451 483 417 q 621 556 606 486 l 621 972 l 700 972 l 700 217 q 662 58 700 115 q 554 -10 624 0 z "},"Z":{"ha":764,"x_min":43,"x_max":719,"o":"m 719 0 l 43 0 l 43 69 l 613 901 l 61 901 l 61 972 l 711 972 l 711 903 l 142 71 l 719 71 l 719 0 z "},"[":{"ha":443,"x_min":108,"x_max":332,"o":"m 332 -158 l 108 -158 l 108 1135 l 332 1135 l 332 1072 l 186 1058 l 186 -82 l 332 -96 l 332 -158 z "},"\\":{"ha":683,"x_min":97,"x_max":626,"o":"m 626 -158 l 542 -158 l 97 1135 l 176 1135 l 626 -158 z "},"]":{"ha":443,"x_min":108,"x_max":332,"o":"m 332 -158 l 108 -158 l 108 -96 l 254 -82 l 254 1058 l 108 1072 l 108 1135 l 332 1135 l 332 -158 z "},"^":{"ha":557,"x_min":108,"x_max":511,"o":"m 458 999 l 313 1143 l 161 999 l 108 1053 l 314 1249 l 511 1053 l 458 999 z "},"_":{"ha":490,"x_min":106,"x_max":550,"o":"m 550 -76 l 106 -76 l 106 0 l 550 0 l 550 -76 z "},"`":{"ha":308,"x_min":64,"x_max":228,"o":"m 228 819 l 167 819 l 71 947 q 64 965 64 956 q 94 1013 64 1003 q 113 1015 104 1015 q 157 983 142 1015 l 228 819 z "},"a":{"ha":636,"x_min":51,"x_max":586,"o":"m 356 -14 q 51 235 51 -14 l 51 350 q 147 535 51 488 q 246 558 197 558 q 508 481 410 558 q 464 602 508 557 q 293 647 419 647 l 297 707 q 464 681 410 707 q 515 650 493 665 q 550 610 538 635 q 571 566 563 585 q 582 515 579 547 q 586 414 586 467 l 586 0 q 356 -14 442 -14 m 508 64 l 508 421 q 272 486 393 476 q 256 488 264 488 q 165 455 203 488 q 128 346 128 422 l 128 225 q 228 75 128 110 q 360 54 286 54 q 508 64 433 54 z "},"b":{"ha":667,"x_min":108,"x_max":621,"o":"m 186 658 q 369 707 254 707 q 503 681 446 707 q 621 481 621 626 l 621 218 q 513 25 621 81 q 329 -17 431 -17 q 108 0 228 -17 l 108 972 l 186 972 l 186 658 m 186 590 l 186 67 q 326 54 264 54 q 544 217 544 54 l 544 476 q 506 589 544 549 q 365 638 458 638 q 186 590 271 638 z "},"c":{"ha":532,"x_min":50,"x_max":497,"o":"m 342 53 q 481 71 404 53 l 497 8 q 336 -15 408 -15 q 194 7 264 -15 q 50 250 50 54 l 50 428 q 89 593 50 526 q 308 708 156 708 q 494 664 400 708 l 472 607 q 335 638 393 638 q 233 624 278 638 q 158 561 189 610 q 128 436 128 513 l 128 235 q 342 53 128 53 z "},"d":{"ha":667,"x_min":108,"x_max":621,"o":"m 360 707 q 543 658 475 707 l 543 972 l 621 972 l 621 0 q 400 -17 501 -17 q 217 25 299 -17 q 108 218 108 81 l 108 481 q 226 681 108 626 q 360 707 283 707 m 543 590 q 358 638 458 638 q 228 593 271 638 q 185 476 185 549 l 185 217 q 403 54 185 54 q 543 67 465 54 l 543 590 z "},"e":{"ha":603,"x_min":49,"x_max":549,"o":"m 281 51 q 483 108 376 51 l 514 49 q 290 -17 407 -17 q 49 186 49 -17 l 49 471 q 119 646 49 583 q 304 708 189 708 q 484 647 419 708 q 549 475 549 585 l 549 294 l 126 271 l 126 186 q 181 78 126 111 q 281 51 222 51 m 471 364 l 471 485 q 439 583 471 544 q 372 631 407 621 q 303 642 338 642 q 176 600 226 642 q 126 469 126 558 l 126 347 l 471 364 z "},"f":{"ha":408,"x_min":108,"x_max":363,"o":"m 186 0 l 108 0 l 108 763 q 132 882 108 832 q 192 953 156 932 q 314 988 251 988 q 363 982 339 988 l 350 914 q 315 917 332 917 q 186 763 186 917 l 186 696 l 344 696 l 311 622 l 186 622 l 186 0 z "},"g":{"ha":622,"x_min":51,"x_max":575,"o":"m 426 -292 l 406 -232 q 497 -87 497 -197 l 497 85 q 313 -17 439 -17 q 119 50 188 -17 q 51 244 51 117 l 51 451 q 123 641 51 574 q 319 708 194 708 q 503 615 444 708 l 497 696 l 575 696 l 575 -89 q 540 -219 575 -172 q 426 -292 506 -267 m 497 240 l 497 467 q 442 595 497 553 q 311 638 386 638 q 183 592 236 638 q 129 444 129 547 l 129 232 q 178 100 129 144 q 308 56 228 56 q 442 103 388 56 q 497 240 497 151 z "},"h":{"ha":685,"x_min":89,"x_max":601,"o":"m 167 658 q 354 708 236 708 q 483 682 429 708 q 601 481 601 628 l 601 0 l 525 0 l 525 476 q 486 589 525 549 q 345 638 439 638 q 167 590 251 638 l 167 0 l 89 0 l 89 972 l 167 972 l 167 658 z "},"i":{"ha":313,"x_min":108,"x_max":201,"o":"m 201 940 q 201 930 201 940 q 188 907 201 921 q 155 893 174 893 q 122 908 136 893 q 108 940 108 922 q 122 972 108 958 q 156 986 136 986 q 188 972 175 986 q 201 940 201 958 m 193 0 l 115 0 l 115 696 l 193 696 l 193 0 z "},"j":{"ha":268,"x_min":-10,"x_max":181,"o":"m 94 -78 l 94 619 l 32 624 l 0 696 l 172 696 l 172 -104 q 122 -237 169 -185 q 0 -290 75 -290 l -10 -231 q 22 -219 0 -231 q 58 -193 44 -208 q 94 -78 94 -153 m 167 907 q 160 900 167 907 q 135 893 153 893 q 102 908 117 893 q 88 940 88 922 q 101 972 88 958 q 134 986 115 986 q 167 972 153 986 q 181 940 181 958 q 167 907 181 921 z "},"k":{"ha":603,"x_min":93,"x_max":603,"o":"m 603 0 l 510 0 l 243 440 l 171 378 l 171 0 l 93 0 l 93 972 l 171 972 l 171 465 l 449 722 l 504 668 l 299 489 q 603 0 393 332 z "},"l":{"ha":297,"x_min":108,"x_max":186,"o":"m 186 0 l 108 0 l 108 972 l 186 972 l 186 0 z "},"m":{"ha":1021,"x_min":108,"x_max":975,"o":"m 535 640 q 758 707 653 707 q 917 643 858 707 q 975 481 975 579 l 975 0 l 899 0 l 899 476 q 872 578 899 539 q 808 626 846 617 q 748 636 771 636 q 697 634 725 636 q 621 614 668 632 l 569 589 q 593 481 593 542 l 593 0 l 517 0 l 517 476 q 482 589 517 549 q 355 636 440 636 q 186 590 269 636 l 186 0 l 108 0 l 108 696 l 186 696 l 179 651 q 373 706 275 706 q 535 640 471 706 z "},"n":{"ha":694,"x_min":89,"x_max":601,"o":"m 161 649 q 360 708 232 708 q 483 682 432 708 q 601 481 601 628 l 601 0 l 525 0 l 525 476 q 486 589 525 549 q 345 638 439 638 q 167 590 251 638 l 167 0 l 89 0 l 89 696 l 167 696 l 161 649 z "},"o":{"ha":672,"x_min":108,"x_max":626,"o":"m 626 439 l 626 256 q 563 63 626 139 q 369 -14 499 -14 q 174 63 240 -14 q 108 256 108 140 l 108 439 q 176 641 108 571 q 367 711 243 711 q 558 638 490 711 q 626 439 626 565 m 549 242 l 549 439 q 369 640 549 640 q 186 439 186 640 l 186 242 q 235 107 186 158 q 370 56 285 56 q 502 106 456 56 q 549 242 549 157 z "},"p":{"ha":678,"x_min":108,"x_max":632,"o":"m 186 -261 l 108 -292 l 108 696 l 186 696 l 179 625 q 376 707 256 707 q 565 632 497 707 q 632 438 632 557 l 632 244 q 561 51 632 118 q 370 -17 490 -17 q 186 58 250 -17 l 186 -261 m 554 231 l 554 443 q 501 590 554 544 q 373 636 447 636 q 244 591 299 636 q 186 450 190 546 l 186 231 q 238 97 186 140 q 369 54 289 54 q 502 99 450 54 q 554 231 554 144 z "},"q":{"ha":622,"x_min":51,"x_max":575,"o":"m 575 -292 l 497 -261 l 497 58 q 313 -17 433 -17 q 122 51 193 -17 q 51 244 51 118 l 51 436 q 119 631 51 556 q 306 707 186 707 q 504 622 426 707 l 497 696 l 575 696 l 575 -292 m 497 231 l 497 450 q 439 591 493 546 q 310 636 385 636 q 183 590 236 636 q 129 442 129 543 l 129 231 q 181 99 129 144 q 314 54 233 54 q 446 97 394 54 q 497 231 497 140 z "},"r":{"ha":463,"x_min":85,"x_max":432,"o":"m 411 625 q 304 639 358 639 q 206 615 250 639 q 163 544 163 590 l 163 0 l 85 0 l 85 696 l 163 696 l 158 647 q 331 707 224 707 q 432 696 378 707 l 411 625 z "},"s":{"ha":599,"x_min":50,"x_max":550,"o":"m 50 176 l 124 176 q 186 83 132 114 q 305 51 240 51 q 421 80 369 51 q 472 166 472 108 q 433 256 472 224 q 336 306 393 288 q 221 344 279 324 q 118 404 163 364 q 65 522 65 451 q 122 652 65 592 q 304 713 178 713 q 388 702 349 713 q 443 682 426 692 l 460 672 l 433 608 q 308 644 383 644 q 188 613 233 644 q 143 526 143 581 q 189 444 143 474 q 294 397 235 414 q 411 357 353 379 q 510 289 469 335 q 550 167 550 243 q 488 35 550 90 q 308 -21 426 -21 q 121 36 189 -21 q 50 176 53 93 z "},"t":{"ha":338,"x_min":61,"x_max":306,"o":"m 231 42 l 208 -18 q 96 53 131 4 q 61 183 61 101 l 61 972 l 139 972 l 139 696 l 306 696 l 272 622 l 139 622 l 139 183 q 231 42 139 72 z "},"u":{"ha":621,"x_min":50,"x_max":568,"o":"m 568 0 l 492 0 l 497 71 q 413 7 464 29 q 311 -15 363 -15 q 50 239 50 -15 l 50 696 l 128 696 l 128 229 q 177 97 128 140 q 311 54 226 54 q 490 229 490 54 l 490 696 l 568 696 l 568 0 z "},"v":{"ha":589,"x_min":25,"x_max":560,"o":"m 344 0 l 238 0 l 25 696 l 107 696 l 292 81 l 478 696 l 560 696 l 344 0 z "},"w":{"ha":978,"x_min":25,"x_max":949,"o":"m 733 0 l 626 0 l 486 563 l 344 0 l 238 0 l 25 696 l 107 696 l 292 81 l 449 696 l 528 696 l 681 81 l 867 696 l 949 696 l 733 0 z "},"x":{"ha":679,"x_min":108,"x_max":633,"o":"m 633 0 l 542 0 l 371 274 l 200 0 l 108 0 l 325 346 l 108 696 l 196 696 l 371 418 l 546 696 l 633 696 l 415 346 l 633 0 z "},"y":{"ha":667,"x_min":51,"x_max":619,"o":"m 426 -292 l 406 -232 q 499 -87 499 -197 l 499 68 q 315 -17 447 -17 q 51 244 51 -17 l 51 696 l 126 696 l 126 231 q 175 98 126 142 q 308 54 224 54 q 444 97 392 54 q 497 231 497 140 l 497 504 q 511 639 497 606 q 599 708 535 688 l 619 656 q 572 558 572 635 l 572 -85 q 539 -218 572 -169 q 426 -292 506 -267 z "},"z":{"ha":664,"x_min":108,"x_max":618,"o":"m 618 0 l 108 0 l 108 69 l 490 625 l 121 625 l 121 696 l 589 696 l 589 626 l 204 71 l 618 71 l 618 0 z "},"{":{"ha":429,"x_min":108,"x_max":383,"o":"m 383 -110 l 358 -161 q 239 -42 267 -108 q 211 194 211 24 l 211 343 q 189 403 211 369 q 152 451 167 438 q 108 492 138 465 q 175 561 142 518 q 208 642 208 604 l 208 788 q 221 967 208 904 q 263 1068 233 1031 q 356 1142 293 1106 l 381 1090 q 286 890 286 1019 l 286 633 q 206 493 286 574 q 289 351 289 410 l 289 90 q 383 -110 289 -39 z "},"|":{"ha":297,"x_min":108,"x_max":186,"o":"m 186 -158 l 108 -158 l 108 1135 l 186 1135 l 186 -158 z "},"}":{"ha":429,"x_min":108,"x_max":383,"o":"m 133 -161 l 108 -110 q 203 90 203 -39 l 203 351 q 286 493 203 410 q 206 633 206 574 l 206 890 q 111 1090 206 1019 l 136 1142 q 228 1068 199 1106 q 271 967 258 1031 q 283 788 283 904 l 283 642 q 317 561 283 604 q 383 492 350 518 q 340 451 354 465 q 303 403 325 438 q 281 343 281 369 l 281 194 q 253 -42 281 24 q 133 -161 225 -108 z "},"~":{"ha":717,"x_min":108,"x_max":671,"o":"m 515 475 q 633 526 590 475 l 671 474 q 513 394 610 394 q 349 433 474 394 q 272 444 310 444 q 144 390 193 444 l 108 443 q 271 522 172 522 q 392 499 308 522 q 515 475 476 475 z "},"¡":{"ha":313,"x_min":108,"x_max":201,"o":"m 110 51 l 124 819 l 189 819 l 201 50 q 156 0 201 0 q 110 51 110 0 m 186 908 q 179 901 186 908 q 154 894 172 894 q 122 908 136 894 q 108 940 108 922 q 122 972 108 958 q 154 986 136 986 q 186 972 172 986 q 200 940 200 958 q 186 908 200 922 z "},"¢":{"ha":601,"x_min":108,"x_max":556,"o":"m 407 -158 l 331 -158 l 331 -11 q 264 3 304 -8 q 145 88 182 31 q 108 250 108 146 l 108 428 q 169 624 108 554 q 331 706 231 694 l 331 865 l 407 865 l 407 706 q 553 664 481 697 l 531 607 q 407 638 463 632 l 407 53 q 539 71 467 53 l 556 8 q 407 -14 476 -12 l 407 -158 m 331 58 l 331 635 q 225 573 264 622 q 186 436 186 524 l 186 235 q 331 58 186 85 z "},"£":{"ha":654,"x_min":108,"x_max":608,"o":"m 608 0 l 108 0 l 108 69 q 223 171 179 106 q 267 313 267 236 q 247 421 267 353 l 140 421 l 140 497 l 222 497 q 174 715 174 646 q 249 910 174 836 q 431 985 325 985 q 593 950 538 985 l 568 882 q 435 914 511 914 q 304 859 358 914 q 250 713 250 804 q 306 497 250 667 l 585 497 l 585 421 l 329 421 q 346 299 346 357 q 313 176 346 242 q 226 76 281 110 l 608 76 l 608 0 z "},"¤":{"ha":642,"x_min":108,"x_max":596,"o":"m 546 208 l 500 254 q 349 206 433 206 q 203 256 265 206 l 157 207 l 113 253 l 157 300 q 108 448 108 367 q 156 594 108 529 l 113 640 l 158 686 l 201 642 q 351 693 268 693 q 499 644 435 693 l 543 688 l 590 639 l 547 596 q 596 447 596 529 q 544 299 596 365 l 590 253 l 546 208 m 351 282 q 386 282 351 282 q 471 331 421 282 q 521 449 521 379 q 471 569 521 519 q 351 619 421 619 q 231 569 281 619 q 181 449 181 519 q 231 331 181 379 q 351 282 281 282 z "},"¥":{"ha":810,"x_min":108,"x_max":764,"o":"m 475 0 l 397 0 l 397 351 l 215 351 l 215 428 l 397 428 l 397 472 l 382 497 l 215 497 l 215 574 l 338 574 l 108 972 l 196 972 l 429 574 l 440 574 l 676 972 l 764 972 l 532 574 l 660 574 l 660 497 l 488 497 l 475 475 l 475 428 l 660 428 l 660 351 l 475 351 l 475 0 z "},"§":{"ha":814,"x_min":108,"x_max":768,"o":"m 108 -11 l 188 -11 q 262 -142 194 -85 q 435 -199 329 -199 q 613 -151 540 -199 q 685 1 685 -103 q 644 110 685 65 q 542 179 603 156 q 409 230 481 203 q 276 283 338 257 q 174 363 215 310 q 133 488 133 415 q 178 618 133 561 q 133 750 133 674 q 214 918 133 847 q 446 989 294 989 q 649 947 561 989 q 625 874 649 944 q 444 914 546 914 q 278 869 342 914 q 214 746 214 825 q 324 607 214 657 q 431 565 372 585 q 550 522 490 546 q 658 469 610 499 q 738 388 707 439 q 768 262 768 336 q 736 128 768 188 q 768 8 768 79 q 687 -197 768 -119 q 445 -274 606 -274 q 198 -194 285 -274 q 108 -11 111 -114 m 675 194 q 685 263 685 231 q 635 378 685 331 q 522 447 586 426 q 238 567 306 522 q 214 478 214 531 q 265 383 214 425 q 383 319 317 340 q 675 194 592 257 z "},"¨":{"ha":308,"x_min":0,"x_max":308,"o":"m 78 936 q 71 929 78 936 q 46 922 64 922 q 14 936 28 922 q 0 968 0 950 q 14 1000 0 986 q 46 1014 28 1014 q 78 1000 64 1014 q 92 968 92 986 q 78 936 92 950 m 294 936 q 288 929 294 936 q 263 922 281 922 q 231 936 244 922 q 217 968 217 950 q 231 1000 217 986 q 263 1014 244 1014 q 294 1000 281 1014 q 308 968 308 986 q 294 936 308 950 z "},"©":{"ha":1111,"x_min":35,"x_max":1075,"o":"m 1075 344 q 1075 234 1075 344 q 924 -26 1075 124 q 556 -176 772 -176 q 188 -26 340 -176 q 35 344 35 124 q 186 714 35 565 q 556 863 338 863 q 925 714 775 863 q 1075 344 1075 565 m 117 344 q 117 247 117 344 q 244 25 117 150 q 556 -100 371 -100 q 867 26 740 -100 q 994 340 994 151 q 866 658 994 529 q 555 786 738 786 q 244 662 372 786 q 117 344 117 538 m 743 243 l 832 243 q 735 83 810 143 q 563 22 660 22 q 345 113 425 22 q 265 340 265 203 q 344 570 265 476 q 560 664 424 664 q 738 604 661 664 q 831 449 814 544 l 743 449 q 681 543 732 504 q 561 582 629 582 q 403 514 456 582 q 351 344 351 446 q 406 172 351 242 q 563 103 460 103 q 683 142 632 103 q 743 243 733 182 z "},"ª":{"ha":528,"x_min":108,"x_max":482,"o":"m 482 543 q 343 528 386 528 q 258 532 300 528 q 183 556 215 536 q 130 617 151 575 q 108 721 108 658 q 194 867 108 835 q 249 876 219 876 q 410 822 318 876 q 372 896 410 867 q 247 925 333 925 l 251 985 q 435 933 388 985 q 482 771 482 881 l 482 543 m 410 604 l 410 754 q 250 811 308 811 q 174 713 174 811 q 242 603 174 629 q 317 589 275 589 q 410 604 358 589 z "},"«":{"ha":678,"x_min":58,"x_max":675,"o":"m 367 158 l 318 111 l 58 371 l 58 372 l 318 632 l 369 579 l 161 371 l 367 158 m 672 158 l 624 111 l 364 371 l 364 372 l 624 632 l 675 579 l 467 371 l 672 158 z "},"­":{"ha":569,"x_min":63,"x_max":507,"o":"m 507 497 l 63 497 l 63 574 l 507 574 l 507 497 z "},"®":{"ha":1111,"x_min":35,"x_max":1075,"o":"m 815 54 l 722 54 l 557 318 l 444 318 l 444 54 l 367 54 l 367 661 l 589 661 q 747 614 693 661 q 801 491 801 567 q 758 374 801 415 q 642 325 714 333 l 815 54 m 444 392 l 547 392 q 708 436 678 392 q 722 492 722 457 q 678 568 722 546 q 574 590 633 590 l 444 590 l 444 392 m 1075 344 q 1075 234 1075 344 q 924 -26 1075 124 q 556 -176 772 -176 q 188 -26 340 -176 q 35 344 35 124 q 186 714 35 565 q 556 863 338 863 q 925 714 775 863 q 1075 344 1075 565 m 117 344 q 117 247 117 344 q 244 25 117 150 q 556 -100 371 -100 q 867 26 740 -100 q 994 340 994 151 q 866 658 994 529 q 555 786 738 786 q 244 662 372 786 q 117 344 117 538 z "},"¯":{"ha":461,"x_min":108,"x_max":415,"o":"m 415 860 l 108 860 l 108 940 l 415 940 l 415 860 z "},"°":{"ha":554,"x_min":108,"x_max":508,"o":"m 450 643 q 421 614 450 643 q 308 585 392 585 q 167 643 225 585 q 108 785 108 701 q 167 926 108 868 q 308 985 225 985 q 450 926 392 985 q 508 785 508 868 q 450 643 508 701 m 403 694 q 421 714 403 694 q 439 785 439 733 q 403 876 439 836 q 308 915 367 915 q 214 876 250 915 q 178 785 178 836 q 214 694 178 733 q 308 654 250 654 q 403 694 367 654 z "},"±":{"ha":599,"x_min":108,"x_max":553,"o":"m 553 329 l 108 329 l 108 406 l 293 406 l 293 497 l 108 497 l 108 574 l 293 574 l 293 757 l 369 757 l 369 574 l 553 574 l 553 497 l 369 497 l 369 406 l 553 406 l 553 329 z "},"´":{"ha":308,"x_min":64,"x_max":228,"o":"m 125 817 l 64 817 l 135 981 q 179 1013 150 1013 q 225 981 217 1013 q 228 963 228 972 q 221 944 228 953 l 125 817 z "},"µ":{"ha":664,"x_min":51,"x_max":617,"o":"m 617 38 l 579 -8 q 518 35 543 -8 q 363 -17 467 -17 q 153 40 257 -17 q 131 53 133 51 l 131 -292 l 51 -279 l 51 696 l 131 696 l 131 146 q 225 86 164 113 q 357 56 294 56 q 500 213 500 56 l 500 692 l 579 708 l 579 96 q 617 38 583 57 z "},"¶":{"ha":929,"x_min":108,"x_max":883,"o":"m 883 -276 l 806 -276 l 806 969 l 711 971 l 711 -275 l 633 -275 l 633 342 l 354 342 q 213 378 261 342 q 169 417 188 397 q 140 471 150 438 q 122 529 129 504 q 113 596 115 554 q 108 728 108 658 q 172 954 108 867 q 367 1042 236 1042 l 883 1042 l 883 -276 z "},"¸":{"ha":346,"x_min":106,"x_max":406,"o":"m 106 -265 l 139 -192 q 236 -226 190 -226 q 333 -168 333 -226 q 306 -124 333 -137 q 274 -118 293 -118 q 226 -128 254 -118 l 179 -147 l 156 -108 l 240 0 l 299 0 l 243 -74 q 298 -65 256 -65 q 373 -92 340 -65 q 406 -177 406 -119 q 354 -263 406 -235 q 240 -292 303 -292 q 106 -265 178 -292 z "},"»":{"ha":711,"x_min":4,"x_max":621,"o":"m 361 111 l 313 158 l 518 371 l 310 579 l 361 632 l 621 372 l 621 371 l 361 111 m 56 111 l 7 158 l 213 371 l 4 579 l 56 632 l 315 372 l 315 371 l 56 111 z "},"¿":{"ha":647,"x_min":110,"x_max":601,"o":"m 524 246 l 601 246 q 537 71 601 142 q 354 0 472 0 q 224 36 282 0 q 110 239 110 108 q 161 400 110 325 q 225 476 188 438 q 283 536 263 514 q 319 608 303 558 q 336 732 335 657 l 336 819 l 407 819 l 407 690 q 388 576 407 626 q 347 498 369 525 q 290 434 325 471 q 238 374 254 397 q 192 242 192 303 q 241 121 192 168 q 358 74 290 74 q 474 117 425 74 q 524 246 524 161 m 405 906 q 398 900 405 906 q 372 893 392 893 q 340 906 353 893 q 326 939 326 919 q 340 972 326 958 q 372 985 353 985 q 405 972 392 985 q 418 939 418 958 q 405 906 418 919 z "},"À":{"ha":732,"x_min":17,"x_max":718,"o":"m 718 0 l 635 0 l 524 340 l 207 340 l 99 0 l 17 0 l 328 972 l 401 972 l 718 0 m 503 417 l 364 851 l 229 417 l 503 417 m 381 1018 l 319 1018 l 224 1146 q 217 1164 217 1154 q 247 1211 217 1201 q 265 1214 257 1214 q 310 1182 294 1214 l 381 1018 z "},"Á":{"ha":732,"x_min":17,"x_max":718,"o":"m 718 0 l 635 0 l 524 340 l 207 340 l 99 0 l 17 0 l 328 972 l 401 972 l 718 0 m 503 417 l 364 851 l 229 417 l 503 417 m 397 1015 l 336 1015 l 407 1179 q 451 1211 422 1211 q 497 1179 489 1211 q 500 1161 500 1171 q 493 1143 500 1151 l 397 1015 z "},"Â":{"ha":732,"x_min":17,"x_max":718,"o":"m 718 0 l 635 0 l 524 340 l 207 340 l 99 0 l 17 0 l 328 972 l 401 972 l 718 0 m 503 417 l 364 851 l 229 417 l 503 417 m 514 1018 l 368 1163 l 217 1018 l 164 1072 l 369 1268 l 567 1072 l 514 1018 z "},"Ã":{"ha":732,"x_min":17,"x_max":718,"o":"m 718 0 l 635 0 l 524 340 l 207 340 l 99 0 l 17 0 l 328 972 l 401 972 l 718 0 m 503 417 l 364 851 l 229 417 l 503 417 m 465 1090 q 563 1139 519 1090 l 597 1085 q 464 1011 535 1011 q 408 1024 439 1011 q 342 1053 376 1038 q 272 1069 307 1069 q 168 1019 215 1069 l 133 1074 q 272 1147 199 1147 q 328 1135 297 1147 q 395 1106 360 1122 q 465 1090 431 1090 z "},"Ä":{"ha":732,"x_min":17,"x_max":718,"o":"m 718 0 l 635 0 l 524 340 l 207 340 l 99 0 l 17 0 l 328 972 l 401 972 l 718 0 m 503 417 l 364 851 l 229 417 l 503 417 m 288 1028 q 282 1022 288 1028 q 256 1015 275 1015 q 223 1028 236 1015 q 210 1061 210 1042 q 223 1094 210 1081 q 256 1107 236 1107 q 288 1094 275 1107 q 301 1061 301 1081 q 288 1028 301 1042 m 505 1028 q 498 1022 505 1028 q 472 1015 492 1015 q 440 1028 453 1015 q 426 1061 426 1042 q 440 1094 426 1081 q 472 1107 453 1107 q 505 1094 492 1107 q 518 1061 518 1081 q 505 1028 518 1042 z "},"Å":{"ha":732,"x_min":17,"x_max":718,"o":"m 718 0 l 635 0 l 524 340 l 207 340 l 99 0 l 17 0 l 311 922 q 237 979 265 939 q 208 1076 208 1019 q 254 1180 208 1133 q 365 1226 300 1226 q 476 1180 431 1226 q 522 1076 522 1133 q 493 978 522 1019 q 418 922 464 938 l 718 0 m 503 417 l 364 851 l 229 417 l 503 417 m 433 1003 q 446 1017 433 1003 q 460 1069 460 1031 q 433 1136 460 1108 q 365 1164 406 1164 q 298 1136 325 1164 q 271 1069 271 1108 q 298 1003 271 1031 q 365 975 325 975 q 433 1003 406 975 z "},"Æ":{"ha":1128,"x_min":108,"x_max":1082,"o":"m 1079 0 l 617 0 l 618 340 l 368 340 l 190 0 l 108 0 l 617 972 l 1082 972 l 1082 900 l 696 900 l 696 574 l 961 574 l 935 497 l 696 497 l 696 69 l 1079 69 l 1079 0 m 618 417 l 618 819 l 407 417 l 618 417 z "},"Ç":{"ha":606,"x_min":92,"x_max":593,"o":"m 576 97 l 593 32 q 369 -14 479 -11 l 325 -74 q 380 -65 338 -65 q 455 -92 422 -65 q 488 -177 488 -119 q 436 -263 488 -235 q 322 -292 385 -292 q 188 -265 260 -292 l 221 -192 q 317 -226 272 -226 q 415 -168 415 -226 q 386 -124 415 -137 q 356 -118 375 -118 q 308 -128 336 -118 l 261 -147 l 238 -108 l 313 -11 q 152 64 213 0 q 92 254 92 128 l 92 700 q 122 860 92 806 q 213 951 151 914 q 361 986 275 986 q 558 940 468 986 l 536 888 q 386 917 457 917 q 169 713 169 917 l 169 257 q 346 58 169 75 q 375 56 360 56 q 576 97 458 56 z "},"È":{"ha":646,"x_min":108,"x_max":572,"o":"m 569 0 l 108 0 l 108 972 l 572 972 l 572 900 l 186 900 l 186 574 l 451 574 l 425 497 l 186 497 l 186 69 l 569 69 l 569 0 m 372 1017 l 311 1017 l 215 1144 q 208 1163 208 1153 q 239 1210 208 1200 q 257 1213 249 1213 q 301 1181 286 1213 l 372 1017 z "},"É":{"ha":646,"x_min":108,"x_max":572,"o":"m 569 0 l 108 0 l 108 972 l 572 972 l 572 900 l 186 900 l 186 574 l 451 574 l 425 497 l 186 497 l 186 69 l 569 69 l 569 0 m 390 1014 l 329 1014 l 400 1178 q 444 1210 415 1210 q 492 1178 482 1210 q 493 1160 493 1169 q 486 1142 493 1150 l 390 1014 z "},"Ê":{"ha":646,"x_min":108,"x_max":572,"o":"m 569 0 l 108 0 l 108 972 l 572 972 l 572 900 l 186 900 l 186 574 l 451 574 l 425 497 l 186 497 l 186 69 l 569 69 l 569 0 m 490 1018 l 344 1163 l 193 1018 l 140 1072 l 346 1268 l 543 1072 l 490 1018 z "},"Ë":{"ha":646,"x_min":108,"x_max":572,"o":"m 569 0 l 108 0 l 108 972 l 572 972 l 572 900 l 186 900 l 186 574 l 451 574 l 425 497 l 186 497 l 186 69 l 569 69 l 569 0 m 260 1028 q 254 1022 260 1028 q 228 1015 247 1015 q 195 1028 208 1015 q 182 1061 182 1042 q 195 1094 182 1081 q 228 1107 208 1107 q 260 1094 247 1107 q 274 1061 274 1081 q 260 1028 274 1042 m 477 1028 q 470 1022 477 1028 q 444 1015 464 1015 q 412 1028 425 1015 q 399 1061 399 1042 q 412 1094 399 1081 q 444 1107 425 1107 q 477 1094 464 1107 q 490 1061 490 1081 q 477 1028 490 1042 z "},"Ì":{"ha":403,"x_min":108,"x_max":292,"o":"m 292 0 l 214 0 l 214 901 l 121 904 l 121 972 l 292 972 l 292 0 m 272 1017 l 211 1017 l 115 1144 q 108 1163 108 1153 q 139 1210 108 1200 q 157 1213 149 1213 q 201 1181 186 1213 l 272 1017 z "},"Í":{"ha":486,"x_min":108,"x_max":375,"o":"m 279 0 l 201 0 l 201 901 l 108 904 l 108 972 l 279 972 l 279 0 m 272 1014 l 211 1014 l 282 1178 q 326 1210 297 1210 q 372 1178 364 1210 q 375 1160 375 1169 q 368 1142 375 1150 l 272 1014 z "},"Î":{"ha":622,"x_min":108,"x_max":511,"o":"m 365 0 l 288 0 l 288 901 l 194 904 l 194 972 l 365 972 l 365 0 m 458 1018 l 313 1163 l 161 1018 l 108 1072 l 314 1268 l 511 1072 l 458 1018 z "},"Ï":{"ha":528,"x_min":108,"x_max":417,"o":"m 314 0 l 236 0 l 236 901 l 143 904 l 143 972 l 314 972 l 314 0 m 186 1026 q 179 1019 186 1026 q 154 1013 172 1013 q 122 1026 136 1013 q 108 1058 108 1039 q 122 1091 108 1078 q 154 1104 136 1104 q 186 1091 172 1104 q 200 1058 200 1078 q 186 1026 200 1039 m 403 1026 q 396 1019 403 1026 q 371 1013 389 1013 q 339 1026 353 1013 q 325 1058 325 1039 q 339 1091 325 1078 q 371 1104 353 1104 q 403 1091 389 1104 q 417 1058 417 1078 q 403 1026 417 1039 z "},"Ð":{"ha":886,"x_min":108,"x_max":840,"o":"m 465 0 l 176 0 l 176 671 l 108 671 l 108 747 l 176 747 l 176 974 l 438 974 q 647 913 567 974 q 750 747 726 851 l 840 747 l 840 671 l 760 671 l 760 278 q 465 0 760 0 m 682 264 l 682 671 l 254 671 l 254 69 l 443 69 q 682 264 682 69 m 451 903 l 254 903 l 254 747 l 672 747 q 587 864 650 825 q 451 903 524 903 z "},"Ñ":{"ha":903,"x_min":108,"x_max":792,"o":"m 792 0 l 714 0 l 186 829 l 186 0 l 108 0 l 108 972 l 186 972 l 714 143 l 714 972 l 792 972 l 792 0 m 551 1090 q 649 1139 606 1090 l 683 1085 q 550 1011 621 1011 q 494 1024 525 1011 q 428 1053 463 1038 q 358 1069 393 1069 q 254 1019 301 1069 l 219 1074 q 358 1147 285 1147 q 415 1135 383 1147 q 481 1106 446 1122 q 551 1090 517 1090 z "},"Ò":{"ha":763,"x_min":88,"x_max":671,"o":"m 671 703 l 671 257 q 585 51 671 117 q 381 -15 500 -15 q 174 51 261 -15 q 88 257 88 117 l 88 704 q 166 921 88 847 q 382 994 244 994 q 595 917 519 994 q 671 703 671 839 m 594 260 l 594 717 q 535 869 594 818 q 379 921 476 921 q 224 869 282 921 q 165 717 165 818 l 165 258 q 226 109 165 160 q 380 58 286 58 q 534 108 474 58 q 594 260 594 157 m 403 1017 l 342 1017 l 246 1144 q 239 1163 239 1153 q 269 1210 239 1200 q 288 1213 279 1213 q 332 1181 317 1213 l 403 1017 z "},"Ó":{"ha":763,"x_min":88,"x_max":671,"o":"m 671 703 l 671 257 q 585 51 671 117 q 381 -15 500 -15 q 174 51 261 -15 q 88 257 88 117 l 88 704 q 166 921 88 847 q 382 994 244 994 q 595 917 519 994 q 671 703 671 839 m 594 260 l 594 717 q 535 869 594 818 q 379 921 476 921 q 224 869 282 921 q 165 717 165 818 l 165 258 q 226 109 165 160 q 380 58 286 58 q 534 108 474 58 q 594 260 594 157 m 418 1014 l 357 1014 l 428 1178 q 472 1210 443 1210 q 519 1178 510 1210 q 521 1160 521 1169 q 514 1142 521 1150 l 418 1014 z "},"Ô":{"ha":763,"x_min":88,"x_max":671,"o":"m 671 703 l 671 257 q 585 51 671 117 q 381 -15 500 -15 q 174 51 261 -15 q 88 257 88 117 l 88 704 q 166 921 88 847 q 382 994 244 994 q 595 917 519 994 q 671 703 671 839 m 594 260 l 594 717 q 535 869 594 818 q 379 921 476 921 q 224 869 282 921 q 165 717 165 818 l 165 258 q 226 109 165 160 q 380 58 286 58 q 534 108 474 58 q 594 260 594 157 m 533 1018 l 388 1163 l 236 1018 l 183 1072 l 389 1268 l 586 1072 l 533 1018 z "},"Õ":{"ha":763,"x_min":88,"x_max":671,"o":"m 671 703 l 671 257 q 585 51 671 117 q 381 -15 500 -15 q 174 51 261 -15 q 88 257 88 117 l 88 704 q 166 921 88 847 q 382 994 244 994 q 595 917 519 994 q 671 703 671 839 m 594 260 l 594 717 q 535 869 594 818 q 379 921 476 921 q 224 869 282 921 q 165 717 165 818 l 165 258 q 226 109 165 160 q 380 58 286 58 q 534 108 474 58 q 594 260 594 157 m 486 1090 q 583 1139 540 1090 l 618 1085 q 485 1011 556 1011 q 428 1024 460 1011 q 363 1053 397 1038 q 293 1069 328 1069 q 189 1019 236 1069 l 154 1074 q 293 1147 219 1147 q 349 1135 318 1147 q 416 1106 381 1122 q 486 1090 451 1090 z "},"Ö":{"ha":763,"x_min":88,"x_max":671,"o":"m 671 703 l 671 257 q 585 51 671 117 q 381 -15 500 -15 q 174 51 261 -15 q 88 257 88 117 l 88 704 q 166 921 88 847 q 382 994 244 994 q 595 917 519 994 q 671 703 671 839 m 594 260 l 594 717 q 535 869 594 818 q 379 921 476 921 q 224 869 282 921 q 165 717 165 818 l 165 258 q 226 109 165 160 q 380 58 286 58 q 534 108 474 58 q 594 260 594 157 m 300 1028 q 293 1022 300 1028 q 268 1015 286 1015 q 236 1028 250 1015 q 222 1061 222 1042 q 236 1094 222 1081 q 268 1107 250 1107 q 300 1094 286 1107 q 314 1061 314 1081 q 300 1028 314 1042 m 517 1028 q 510 1022 517 1028 q 485 1015 503 1015 q 453 1028 467 1015 q 439 1061 439 1042 q 453 1094 439 1081 q 485 1107 467 1107 q 517 1094 503 1107 q 531 1061 531 1081 q 517 1028 531 1042 z "},"×":{"ha":549,"x_min":108,"x_max":503,"o":"m 503 285 l 444 233 l 306 403 l 167 233 l 108 285 l 256 463 l 108 642 l 165 690 l 306 521 l 446 690 l 503 642 l 354 463 l 503 285 z "},"Ø":{"ha":738,"x_min":108,"x_max":692,"o":"m 224 -158 l 139 -158 l 208 40 q 108 257 108 114 l 108 704 q 187 921 108 847 q 403 994 265 994 q 532 972 472 994 l 589 1135 l 668 1135 l 599 932 q 692 703 692 856 l 692 257 q 606 51 692 117 q 401 -15 521 -15 q 279 4 333 -15 l 224 -158 m 235 119 l 507 900 q 400 921 461 921 q 244 869 303 921 q 186 717 186 818 l 186 258 q 235 119 186 171 m 615 260 l 615 717 q 571 853 615 801 l 303 75 q 400 58 346 58 q 555 108 494 58 q 615 260 615 157 z "},"Ù":{"ha":786,"x_min":103,"x_max":688,"o":"m 610 247 l 610 974 l 688 974 l 688 258 q 662 131 688 185 q 592 47 636 76 q 500 4 549 18 q 396 -10 451 -10 q 291 4 340 -10 q 198 47 242 18 q 128 131 154 76 q 103 258 103 185 l 103 974 l 181 974 l 181 247 q 242 111 181 163 q 394 60 304 60 q 547 111 485 60 q 610 247 610 163 m 425 1017 l 364 1017 l 268 1144 q 261 1163 261 1153 q 292 1210 261 1200 q 310 1213 301 1213 q 354 1181 339 1213 l 425 1017 z "},"Ú":{"ha":786,"x_min":103,"x_max":688,"o":"m 610 247 l 610 974 l 688 974 l 688 258 q 662 131 688 185 q 592 47 636 76 q 500 4 549 18 q 396 -10 451 -10 q 291 4 340 -10 q 198 47 242 18 q 128 131 154 76 q 103 258 103 185 l 103 974 l 181 974 l 181 247 q 242 111 181 163 q 394 60 304 60 q 547 111 485 60 q 610 247 610 163 m 425 1015 l 364 1015 l 435 1179 q 479 1211 450 1211 q 525 1179 517 1211 q 528 1161 528 1171 q 521 1143 528 1151 l 425 1015 z "},"Û":{"ha":786,"x_min":103,"x_max":688,"o":"m 610 247 l 610 974 l 688 974 l 688 258 q 662 131 688 185 q 592 47 636 76 q 500 4 549 18 q 396 -10 451 -10 q 291 4 340 -10 q 198 47 242 18 q 128 131 154 76 q 103 258 103 185 l 103 974 l 181 974 l 181 247 q 242 111 181 163 q 394 60 304 60 q 547 111 485 60 q 610 247 610 163 m 546 1018 l 400 1163 l 249 1018 l 196 1072 l 401 1268 l 599 1072 l 546 1018 z "},"Ü":{"ha":786,"x_min":103,"x_max":688,"o":"m 610 247 l 610 974 l 688 974 l 688 258 q 662 131 688 185 q 592 47 636 76 q 500 4 549 18 q 396 -10 451 -10 q 291 4 340 -10 q 198 47 242 18 q 128 131 154 76 q 103 258 103 185 l 103 974 l 181 974 l 181 247 q 242 111 181 163 q 394 60 304 60 q 547 111 485 60 q 610 247 610 163 m 317 1028 q 310 1022 317 1028 q 285 1015 303 1015 q 253 1028 267 1015 q 239 1061 239 1042 q 253 1094 239 1081 q 285 1107 267 1107 q 317 1094 303 1107 q 331 1061 331 1081 q 317 1028 331 1042 m 533 1028 q 526 1022 533 1028 q 501 1015 519 1015 q 469 1028 483 1015 q 456 1061 456 1042 q 469 1094 456 1081 q 501 1107 483 1107 q 533 1094 519 1107 q 547 1061 547 1081 q 533 1028 547 1042 z "},"Ý":{"ha":778,"x_min":83,"x_max":700,"o":"m 554 -10 l 536 42 q 621 211 621 74 l 621 408 q 521 358 583 375 q 401 340 458 340 q 169 413 254 340 q 83 629 83 486 l 83 972 l 161 972 l 161 615 q 228 467 161 518 q 389 417 294 417 q 544 451 483 417 q 621 556 606 486 l 621 972 l 700 972 l 700 217 q 662 58 700 115 q 554 -10 624 0 m 425 1015 l 364 1015 l 435 1179 q 479 1211 450 1211 q 525 1179 517 1211 q 528 1161 528 1171 q 521 1143 528 1151 l 425 1015 z "},"Þ":{"ha":678,"x_min":108,"x_max":632,"o":"m 186 0 l 108 0 l 108 972 l 186 972 l 186 632 q 378 707 260 707 q 565 632 497 707 q 632 432 632 557 q 560 234 632 307 q 374 161 489 161 q 268 187 322 161 q 186 257 214 213 l 186 0 m 186 450 q 238 290 186 343 q 371 236 289 236 q 503 286 453 236 q 554 440 554 336 q 501 590 554 544 q 373 636 447 636 q 244 591 299 636 q 186 450 190 546 z "},"ß":{"ha":710,"x_min":108,"x_max":663,"o":"m 108 746 q 156 913 108 853 q 294 974 204 974 q 431 916 385 974 q 476 783 476 858 q 425 663 476 708 l 383 663 q 379 585 360 622 q 430 520 399 549 q 482 474 461 492 q 574 388 542 422 q 663 196 663 293 q 643 101 663 149 q 535 3 613 31 q 444 -15 485 -15 q 239 51 318 -15 l 279 118 q 426 61 338 61 q 565 131 532 61 q 582 200 582 165 q 515 338 582 269 q 417 429 465 388 q 303 561 328 503 q 293 625 293 588 q 317 704 293 663 q 392 753 374 704 q 400 797 400 772 q 383 850 400 821 q 303 899 357 899 q 188 751 188 899 l 188 0 l 108 0 l 108 746 z "},"à":{"ha":689,"x_min":108,"x_max":643,"o":"m 413 -14 q 108 235 108 -14 l 108 350 q 204 535 108 488 q 303 558 254 558 q 565 481 467 558 q 521 602 565 557 q 350 647 476 647 l 354 707 q 521 681 467 707 q 572 650 550 665 q 607 610 594 635 q 628 566 619 585 q 639 515 636 547 q 643 414 643 467 l 643 0 q 413 -14 499 -14 m 565 64 l 565 421 q 331 486 450 476 q 313 488 321 488 q 222 455 260 488 q 185 346 185 422 l 185 225 q 285 75 185 110 q 417 54 343 54 q 565 64 490 54 m 403 750 l 342 750 l 246 878 q 239 896 239 886 q 269 943 239 933 q 288 946 279 946 q 332 914 317 946 l 403 750 z "},"á":{"ha":689,"x_min":108,"x_max":643,"o":"m 413 -14 q 108 235 108 -14 l 108 350 q 204 535 108 488 q 303 558 254 558 q 565 481 467 558 q 521 602 565 557 q 350 647 476 647 l 354 707 q 521 681 467 707 q 572 650 550 665 q 607 610 594 635 q 628 566 619 585 q 639 515 636 547 q 643 414 643 467 l 643 0 q 413 -14 499 -14 m 565 64 l 565 421 q 331 486 450 476 q 313 488 321 488 q 222 455 260 488 q 185 346 185 422 l 185 225 q 285 75 185 110 q 417 54 343 54 q 565 64 490 54 m 419 747 l 358 747 l 429 911 q 474 943 444 943 q 519 911 511 943 q 522 893 522 903 q 515 875 522 883 l 419 747 z "},"â":{"ha":689,"x_min":108,"x_max":643,"o":"m 413 -14 q 108 235 108 -14 l 108 350 q 204 535 108 488 q 303 558 254 558 q 565 481 467 558 q 521 602 565 557 q 350 647 476 647 l 354 707 q 521 681 467 707 q 572 650 550 665 q 607 610 594 635 q 628 566 619 585 q 639 515 636 547 q 643 414 643 467 l 643 0 q 413 -14 499 -14 m 565 64 l 565 421 q 331 486 450 476 q 313 488 321 488 q 222 455 260 488 q 185 346 185 422 l 185 225 q 285 75 185 110 q 417 54 343 54 q 565 64 490 54 m 536 750 l 390 894 l 239 750 l 186 804 l 392 1000 l 589 804 l 536 750 z "},"ã":{"ha":689,"x_min":108,"x_max":643,"o":"m 413 -14 q 108 235 108 -14 l 108 350 q 204 535 108 488 q 303 558 254 558 q 565 481 467 558 q 521 602 565 557 q 350 647 476 647 l 354 707 q 521 681 467 707 q 572 650 550 665 q 607 610 594 635 q 628 566 619 585 q 639 515 636 547 q 643 414 643 467 l 643 0 q 413 -14 499 -14 m 565 64 l 565 421 q 331 486 450 476 q 313 488 321 488 q 222 455 260 488 q 185 346 185 422 l 185 225 q 285 75 185 110 q 417 54 343 54 q 565 64 490 54 m 475 829 q 572 878 529 829 l 607 824 q 474 750 544 750 q 417 763 449 750 q 351 792 386 776 q 282 808 317 808 q 178 758 225 808 l 143 813 q 282 886 208 886 q 338 874 307 886 q 405 845 369 861 q 475 829 440 829 z "},"ä":{"ha":689,"x_min":108,"x_max":643,"o":"m 413 -14 q 108 235 108 -14 l 108 350 q 204 535 108 488 q 303 558 254 558 q 565 481 467 558 q 521 602 565 557 q 350 647 476 647 l 354 707 q 521 681 467 707 q 572 650 550 665 q 607 610 594 635 q 628 566 619 585 q 639 515 636 547 q 643 414 643 467 l 643 0 q 413 -14 499 -14 m 565 64 l 565 421 q 331 486 450 476 q 313 488 321 488 q 222 455 260 488 q 185 346 185 422 l 185 225 q 285 75 185 110 q 417 54 343 54 q 565 64 490 54 m 314 762 q 307 755 314 762 q 282 749 300 749 q 250 762 264 749 q 236 794 236 775 q 250 827 236 814 q 282 840 264 840 q 314 827 300 840 q 328 794 328 814 q 314 762 328 775 m 531 762 q 524 755 531 762 q 499 749 517 749 q 467 762 481 749 q 453 794 453 775 q 467 827 453 814 q 499 840 481 840 q 531 827 517 840 q 544 794 544 814 q 531 762 544 775 z "},"å":{"ha":689,"x_min":108,"x_max":643,"o":"m 363 647 l 350 647 q 247 698 289 653 q 206 806 206 743 q 251 915 206 869 q 363 961 297 961 q 474 915 428 961 q 519 805 519 869 q 474 694 519 740 q 593 628 560 674 q 622 582 611 603 q 638 526 633 561 q 643 414 643 481 l 643 0 q 413 -14 499 -14 q 108 235 108 -14 l 108 350 q 204 535 108 488 q 303 558 254 558 q 565 481 467 558 q 524 599 565 554 q 363 647 482 644 m 565 64 l 565 421 q 331 486 450 476 q 313 488 321 488 q 222 455 260 488 q 185 346 185 422 l 185 225 q 285 75 185 110 q 417 54 343 54 q 565 64 490 54 m 430 737 q 443 750 430 737 q 457 804 457 764 q 430 872 457 844 q 363 899 403 899 q 295 872 322 899 q 268 804 268 844 q 295 737 268 764 q 363 710 322 710 q 430 737 403 710 z "},"æ":{"ha":1113,"x_min":108,"x_max":1067,"o":"m 799 51 q 1001 108 894 51 l 1032 49 q 790 -17 924 -17 q 643 21 700 -17 l 643 0 q 413 -14 499 -14 q 108 235 108 -14 l 108 350 q 204 535 108 488 q 303 558 254 558 q 565 481 467 558 q 521 602 565 557 q 350 647 476 647 l 354 707 q 606 611 543 707 q 822 708 675 708 q 1002 647 938 708 q 1067 475 1067 585 l 1067 294 l 644 271 l 644 186 q 699 78 644 111 q 799 51 740 51 m 565 64 l 565 421 q 331 486 450 476 q 313 488 321 488 q 222 455 260 488 q 185 346 185 422 l 185 225 q 285 75 185 110 q 417 54 343 54 q 565 64 490 54 m 989 364 l 989 485 q 957 583 989 544 q 890 631 925 621 q 821 642 856 642 q 694 600 744 642 q 644 469 644 558 l 644 347 l 989 364 z "},"ç":{"ha":532,"x_min":50,"x_max":497,"o":"m 342 53 q 481 71 404 53 l 497 8 q 329 -15 406 -15 q 299 -14 314 -15 l 253 -74 q 308 -65 265 -65 q 383 -92 350 -65 q 415 -177 415 -119 q 364 -263 415 -235 q 250 -292 313 -292 q 115 -265 188 -292 l 149 -192 q 244 -226 200 -226 q 343 -168 343 -226 q 314 -124 343 -137 q 283 -118 303 -118 q 236 -128 264 -118 l 189 -147 l 165 -108 l 244 -7 q 206 3 219 -3 q 87 88 124 31 q 50 250 50 146 l 50 428 q 89 593 50 526 q 308 708 156 708 q 494 664 400 708 l 472 607 q 335 638 393 638 q 233 624 278 638 q 158 561 189 610 q 128 436 128 513 l 128 235 q 342 53 128 53 z "},"è":{"ha":654,"x_min":108,"x_max":608,"o":"m 340 51 q 543 108 436 51 l 574 49 q 350 -17 467 -17 q 108 186 108 -17 l 108 471 q 178 646 108 583 q 364 708 249 708 q 544 647 479 708 q 608 475 608 585 l 608 294 l 186 271 l 186 186 q 240 78 186 111 q 340 51 282 51 m 531 364 l 531 485 q 499 583 531 544 q 432 631 467 621 q 363 642 397 642 q 236 600 286 642 q 186 469 186 558 l 186 347 l 531 364 m 392 750 l 331 750 l 235 878 q 228 896 228 886 q 258 943 228 933 q 276 946 268 946 q 321 914 306 946 l 392 750 z "},"é":{"ha":654,"x_min":108,"x_max":608,"o":"m 340 51 q 543 108 436 51 l 574 49 q 350 -17 467 -17 q 108 186 108 -17 l 108 471 q 178 646 108 583 q 364 708 249 708 q 544 647 479 708 q 608 475 608 585 l 608 294 l 186 271 l 186 186 q 240 78 186 111 q 340 51 282 51 m 531 364 l 531 485 q 499 583 531 544 q 432 631 467 621 q 363 642 397 642 q 236 600 286 642 q 186 469 186 558 l 186 347 l 531 364 m 394 747 l 333 747 l 404 911 q 449 943 419 943 q 494 911 486 943 q 497 893 497 903 q 490 875 497 883 l 394 747 z "},"ê":{"ha":654,"x_min":108,"x_max":608,"o":"m 340 51 q 543 108 436 51 l 574 49 q 350 -17 467 -17 q 108 186 108 -17 l 108 471 q 178 646 108 583 q 364 708 249 708 q 544 647 479 708 q 608 475 608 585 l 608 294 l 186 271 l 186 186 q 240 78 186 111 q 340 51 282 51 m 531 364 l 531 485 q 499 583 531 544 q 432 631 467 621 q 363 642 397 642 q 236 600 286 642 q 186 469 186 558 l 186 347 l 531 364 m 529 750 l 383 894 l 232 750 l 179 804 l 385 1000 l 582 804 l 529 750 z "},"ë":{"ha":746,"x_min":49,"x_max":549,"o":"m 281 51 q 483 108 376 51 l 514 49 q 290 -17 407 -17 q 49 186 49 -17 l 49 471 q 119 646 49 583 q 304 708 189 708 q 484 647 419 708 q 549 475 549 585 l 549 294 l 126 271 l 126 186 q 181 78 126 111 q 281 51 222 51 m 471 364 l 471 485 q 439 583 471 544 q 372 631 407 621 q 303 642 338 642 q 176 600 226 642 q 126 469 126 558 l 126 347 l 471 364 m 224 762 q 218 755 224 762 q 192 749 211 749 q 159 762 172 749 q 146 794 146 775 q 159 827 146 814 q 192 840 172 840 q 224 827 211 840 q 238 794 238 814 q 224 762 238 775 m 441 762 q 434 755 441 762 q 408 749 428 749 q 376 762 389 749 q 363 794 363 775 q 376 827 363 814 q 408 840 389 840 q 441 827 428 840 q 454 794 454 814 q 441 762 454 775 z "},"ì":{"ha":340,"x_min":108,"x_max":294,"o":"m 272 750 l 211 750 l 115 878 q 108 896 108 886 q 139 943 108 933 q 157 946 149 946 q 201 914 186 946 l 272 750 m 294 0 l 217 0 l 217 696 l 294 696 l 294 0 z "},"í":{"ha":329,"x_min":108,"x_max":283,"o":"m 181 747 l 119 747 l 190 911 q 235 943 206 943 q 281 911 272 943 q 283 893 283 903 q 276 875 283 883 l 181 747 m 186 0 l 108 0 l 108 696 l 186 696 l 186 0 z "},"î":{"ha":310,"x_min":-50,"x_max":353,"o":"m 300 750 l 154 894 l 3 750 l -50 804 l 156 1000 l 353 804 l 300 750 m 193 0 l 115 0 l 115 696 l 193 696 l 193 0 z "},"ï":{"ha":463,"x_min":108,"x_max":417,"o":"m 186 762 q 179 755 186 762 q 154 749 172 749 q 122 762 136 749 q 108 794 108 775 q 122 827 108 814 q 154 840 136 840 q 186 827 172 840 q 200 794 200 814 q 186 762 200 775 m 403 762 q 396 755 403 762 q 371 749 389 749 q 339 762 353 749 q 325 794 325 775 q 339 827 325 814 q 371 840 353 840 q 403 827 389 840 q 417 794 417 814 q 403 762 417 775 m 303 0 l 225 0 l 225 696 l 303 696 l 303 0 z "},"ñ":{"ha":667,"x_min":108,"x_max":621,"o":"m 181 649 q 379 708 251 708 q 503 682 451 708 q 621 481 621 628 l 621 0 l 544 0 l 544 476 q 506 589 544 549 q 365 638 458 638 q 186 590 271 638 l 186 0 l 108 0 l 108 696 l 186 696 l 181 649 m 460 829 q 557 878 514 829 l 592 824 q 458 750 529 750 q 402 763 433 750 q 336 792 371 776 q 267 808 301 808 q 163 758 210 808 l 128 813 q 267 886 193 886 q 323 874 292 886 q 390 845 354 861 q 460 829 425 829 z "},"ò":{"ha":672,"x_min":108,"x_max":626,"o":"m 626 439 l 626 256 q 563 63 626 139 q 369 -14 499 -14 q 174 63 240 -14 q 108 256 108 140 l 108 439 q 176 641 108 571 q 367 711 243 711 q 558 638 490 711 q 626 439 626 565 m 549 242 l 549 439 q 369 640 549 640 q 186 439 186 640 l 186 242 q 235 107 186 158 q 370 56 285 56 q 502 106 456 56 q 549 242 549 157 m 390 750 l 329 750 l 233 878 q 226 896 226 886 q 257 943 226 933 q 275 946 267 946 q 319 914 304 946 l 390 750 z "},"ó":{"ha":672,"x_min":108,"x_max":626,"o":"m 626 439 l 626 256 q 563 63 626 139 q 369 -14 499 -14 q 174 63 240 -14 q 108 256 108 140 l 108 439 q 176 641 108 571 q 367 711 243 711 q 558 638 490 711 q 626 439 626 565 m 549 242 l 549 439 q 369 640 549 640 q 186 439 186 640 l 186 242 q 235 107 186 158 q 370 56 285 56 q 502 106 456 56 q 549 242 549 157 m 393 747 l 332 747 l 403 911 q 447 943 418 943 q 494 911 485 943 q 496 893 496 903 q 489 875 496 883 l 393 747 z "},"ô":{"ha":672,"x_min":108,"x_max":626,"o":"m 626 439 l 626 256 q 563 63 626 139 q 369 -14 499 -14 q 174 63 240 -14 q 108 256 108 140 l 108 439 q 176 641 108 571 q 367 711 243 711 q 558 638 490 711 q 626 439 626 565 m 549 242 l 549 439 q 369 640 549 640 q 186 439 186 640 l 186 242 q 235 107 186 158 q 370 56 285 56 q 502 106 456 56 q 549 242 549 157 m 521 750 l 375 894 l 224 750 l 171 804 l 376 1000 l 574 804 l 521 750 z "},"õ":{"ha":672,"x_min":108,"x_max":626,"o":"m 626 439 l 626 256 q 563 63 626 139 q 369 -14 499 -14 q 174 63 240 -14 q 108 256 108 140 l 108 439 q 176 641 108 571 q 367 711 243 711 q 558 638 490 711 q 626 439 626 565 m 549 242 l 549 439 q 369 640 549 640 q 186 439 186 640 l 186 242 q 235 107 186 158 q 370 56 285 56 q 502 106 456 56 q 549 242 549 157 m 472 829 q 569 878 526 829 l 604 824 q 471 750 542 750 q 415 763 446 750 q 349 792 383 776 q 279 808 314 808 q 175 758 222 808 l 140 813 q 279 886 206 886 q 335 874 304 886 q 402 845 367 861 q 472 829 438 829 z "},"ö":{"ha":672,"x_min":108,"x_max":626,"o":"m 626 439 l 626 256 q 563 63 626 139 q 369 -14 499 -14 q 174 63 240 -14 q 108 256 108 140 l 108 439 q 176 641 108 571 q 367 711 243 711 q 558 638 490 711 q 626 439 626 565 m 549 242 l 549 439 q 369 640 549 640 q 186 439 186 640 l 186 242 q 235 107 186 158 q 370 56 285 56 q 502 106 456 56 q 549 242 549 157 m 299 762 q 293 755 299 762 q 267 749 286 749 q 234 762 247 749 q 221 794 221 775 q 234 827 221 814 q 267 840 247 840 q 299 827 286 840 q 313 794 313 814 q 299 762 313 775 m 516 762 q 509 755 516 762 q 483 749 503 749 q 451 762 464 749 q 438 794 438 775 q 451 827 438 814 q 483 840 464 840 q 516 827 503 840 q 529 794 529 814 q 516 762 529 775 z "},"÷":{"ha":599,"x_min":108,"x_max":553,"o":"m 553 497 l 108 497 l 108 574 l 553 574 l 553 497 m 366 678 q 359 672 366 678 q 333 665 353 665 q 301 678 314 665 q 288 711 288 692 q 301 744 288 731 q 333 757 314 757 q 366 744 353 757 q 379 711 379 731 q 366 678 379 692 m 366 322 q 359 315 366 322 q 333 308 353 308 q 301 322 314 308 q 288 354 288 336 q 301 386 288 372 q 333 400 314 400 q 366 386 353 400 q 379 354 379 372 q 366 322 379 336 z "},"ø":{"ha":672,"x_min":108,"x_max":626,"o":"m 215 -93 l 136 -93 l 194 43 q 108 256 108 117 l 108 439 q 176 641 108 571 q 369 711 243 711 q 474 693 424 711 l 526 817 l 608 817 l 539 656 q 626 439 626 581 l 626 256 q 563 63 626 139 q 369 -14 499 -14 q 258 6 308 -14 l 215 -93 m 549 242 l 549 439 q 507 583 549 533 l 286 71 q 369 56 324 56 q 502 106 456 56 q 549 242 549 157 m 226 117 l 444 628 q 369 640 411 640 q 186 439 186 640 l 186 242 q 226 117 186 165 z "},"ù":{"ha":672,"x_min":108,"x_max":626,"o":"m 626 0 l 550 0 l 556 71 q 472 7 522 29 q 369 -15 421 -15 q 108 239 108 -15 l 108 696 l 186 696 l 186 229 q 235 97 186 140 q 369 54 285 54 q 549 229 549 54 l 549 696 l 626 696 l 626 0 m 400 750 l 339 750 l 243 878 q 236 896 236 886 q 267 943 236 933 q 285 946 276 946 q 329 914 314 946 l 400 750 z "},"ú":{"ha":672,"x_min":108,"x_max":626,"o":"m 626 0 l 550 0 l 556 71 q 472 7 522 29 q 369 -15 421 -15 q 108 239 108 -15 l 108 696 l 186 696 l 186 229 q 235 97 186 140 q 369 54 285 54 q 549 229 549 54 l 549 696 l 626 696 l 626 0 m 393 747 l 332 747 l 403 911 q 447 943 418 943 q 494 911 485 943 q 496 893 496 903 q 489 875 496 883 l 393 747 z "},"û":{"ha":672,"x_min":108,"x_max":626,"o":"m 626 0 l 550 0 l 556 71 q 472 7 522 29 q 369 -15 421 -15 q 108 239 108 -15 l 108 696 l 186 696 l 186 229 q 235 97 186 140 q 369 54 285 54 q 549 229 549 54 l 549 696 l 626 696 l 626 0 m 518 750 l 372 894 l 221 750 l 168 804 l 374 1000 l 571 804 l 518 750 z "},"ü":{"ha":672,"x_min":108,"x_max":626,"o":"m 626 0 l 550 0 l 556 71 q 472 7 522 29 q 369 -15 421 -15 q 108 239 108 -15 l 108 696 l 186 696 l 186 229 q 235 97 186 140 q 369 54 285 54 q 549 229 549 54 l 549 696 l 626 696 l 626 0 m 292 762 q 285 755 292 762 q 260 749 278 749 q 228 762 242 749 q 214 794 214 775 q 228 827 214 814 q 260 840 242 840 q 292 827 278 840 q 306 794 306 814 q 292 762 306 775 m 508 762 q 501 755 508 762 q 476 749 494 749 q 444 762 458 749 q 431 794 431 775 q 444 827 431 814 q 476 840 458 840 q 508 827 494 840 q 522 794 522 814 q 508 762 522 775 z "},"ý":{"ha":722,"x_min":108,"x_max":676,"o":"m 483 -292 l 463 -232 q 556 -87 556 -197 l 556 68 q 372 -17 504 -17 q 108 244 108 -17 l 108 696 l 183 696 l 183 231 q 232 98 183 142 q 365 54 281 54 q 501 97 449 54 q 554 231 554 140 l 554 504 q 568 639 554 606 q 656 708 592 688 l 676 656 q 629 558 629 635 l 629 -85 q 596 -218 629 -169 q 483 -292 563 -267 m 389 747 l 328 747 l 399 911 q 443 943 414 943 q 489 911 481 943 q 492 893 492 903 q 485 875 492 883 l 389 747 z "},"þ":{"ha":678,"x_min":108,"x_max":632,"o":"m 186 0 l 108 0 l 108 817 l 186 817 l 186 632 q 378 707 260 707 q 565 632 497 707 q 632 432 632 557 q 560 234 632 307 q 374 161 489 161 q 268 187 322 161 q 186 257 214 213 l 186 0 m 186 450 q 238 290 186 343 q 371 236 289 236 q 503 286 453 236 q 554 440 554 336 q 501 590 554 544 q 373 636 447 636 q 244 591 299 636 q 186 450 190 546 z "},"ÿ":{"ha":722,"x_min":108,"x_max":676,"o":"m 483 -292 l 463 -232 q 556 -87 556 -197 l 556 68 q 372 -17 504 -17 q 108 244 108 -17 l 108 696 l 183 696 l 183 231 q 232 98 183 142 q 365 54 281 54 q 501 97 449 54 q 554 231 554 140 l 554 504 q 568 639 554 606 q 656 708 592 688 l 676 656 q 629 558 629 635 l 629 -85 q 596 -218 629 -169 q 483 -292 563 -267 m 300 762 q 293 755 300 762 q 268 749 286 749 q 236 762 250 749 q 222 794 222 775 q 236 827 222 814 q 268 840 250 840 q 300 827 286 840 q 314 794 314 814 q 300 762 314 775 m 517 762 q 510 755 517 762 q 485 749 503 749 q 453 762 467 749 q 439 794 439 775 q 453 827 439 814 q 485 840 467 840 q 517 827 503 840 q 531 794 531 814 q 517 762 531 775 z "},"Ā":{"ha":732,"x_min":17,"x_max":718,"o":"m 718 0 l 635 0 l 524 340 l 207 340 l 99 0 l 17 0 l 328 972 l 401 972 l 718 0 m 503 417 l 364 851 l 229 417 l 503 417 m 511 1014 l 210 1014 l 210 1094 l 511 1094 l 511 1014 z "},"ā":{"ha":689,"x_min":108,"x_max":643,"o":"m 413 -14 q 108 235 108 -14 l 108 350 q 204 535 108 488 q 303 558 254 558 q 565 481 467 558 q 521 602 565 557 q 350 647 476 647 l 354 707 q 521 681 467 707 q 572 650 550 665 q 607 610 594 635 q 628 566 619 585 q 639 515 636 547 q 643 414 643 467 l 643 0 q 413 -14 499 -14 m 565 64 l 565 421 q 331 486 450 476 q 313 488 321 488 q 222 455 260 488 q 185 346 185 422 l 185 225 q 285 75 185 110 q 417 54 343 54 q 565 64 490 54 m 536 747 l 235 747 l 235 828 l 536 828 l 536 747 z "},"Ă":{"ha":732,"x_min":17,"x_max":718,"o":"m 718 0 l 635 0 l 524 340 l 207 340 l 99 0 l 17 0 l 328 972 l 401 972 l 718 0 m 503 417 l 364 851 l 229 417 l 503 417 m 525 1178 l 525 1171 q 479 1060 525 1106 q 368 1014 433 1014 q 257 1060 303 1014 q 211 1171 211 1106 l 211 1178 l 274 1178 l 274 1171 q 301 1103 274 1131 q 368 1076 328 1076 q 435 1103 408 1076 q 463 1171 463 1131 l 463 1178 l 525 1178 z "},"ă":{"ha":689,"x_min":108,"x_max":643,"o":"m 413 -14 q 108 235 108 -14 l 108 350 q 204 535 108 488 q 303 558 254 558 q 565 481 467 558 q 521 602 565 557 q 350 647 476 647 l 354 707 q 521 681 467 707 q 572 650 550 665 q 607 610 594 635 q 628 566 619 585 q 639 515 636 547 q 643 414 643 467 l 643 0 q 413 -14 499 -14 m 565 64 l 565 421 q 331 486 450 476 q 313 488 321 488 q 222 455 260 488 q 185 346 185 422 l 185 225 q 285 75 185 110 q 417 54 343 54 q 565 64 490 54 m 586 911 l 586 904 q 540 793 586 839 q 429 747 494 747 q 318 793 364 747 q 272 904 272 839 l 272 911 l 335 911 l 335 904 q 362 837 335 864 q 429 810 389 810 q 497 837 469 810 q 524 904 524 864 l 524 911 l 586 911 z "},"Ą":{"ha":903,"x_min":108,"x_max":857,"o":"m 808 0 q 664 -176 664 -121 q 677 -214 664 -197 q 719 -231 690 -231 q 767 -217 749 -231 q 806 -174 786 -204 l 857 -226 q 722 -296 813 -296 q 674 -290 699 -296 q 622 -256 649 -283 q 594 -182 594 -228 q 728 0 594 -87 l 726 0 l 615 340 l 299 340 l 190 0 l 108 0 l 419 972 l 493 972 l 810 0 l 808 0 m 594 417 l 456 851 l 321 417 l 594 417 z "},"ą":{"ha":683,"x_min":51,"x_max":633,"o":"m 585 0 q 440 -176 440 -121 q 453 -214 440 -197 q 496 -231 467 -231 q 544 -217 525 -231 q 582 -174 563 -204 l 633 -226 q 499 -296 589 -296 q 450 -290 475 -296 q 398 -256 425 -283 q 371 -182 371 -228 q 490 -8 371 -92 q 324 -14 354 -14 q 242 -2 294 -14 q 147 34 190 10 q 77 110 103 58 q 51 235 51 161 l 51 350 q 147 535 51 488 q 246 558 197 558 q 508 481 410 558 q 464 602 508 557 q 293 647 419 647 l 297 707 q 464 681 410 707 q 515 650 493 665 q 550 610 538 635 q 571 566 563 585 q 582 515 579 547 q 586 414 586 467 l 586 0 l 585 0 m 508 64 l 508 421 q 272 486 393 476 q 256 488 264 488 q 165 455 203 488 q 128 346 128 422 l 128 225 q 228 75 128 110 q 360 54 286 54 q 508 64 433 54 z "},"Ć":{"ha":606,"x_min":92,"x_max":593,"o":"m 593 32 q 368 -14 475 -14 q 301 -10 346 -14 q 205 22 256 -6 q 123 108 154 49 q 92 254 92 167 l 92 700 q 122 860 92 806 q 213 951 151 914 q 361 986 275 986 q 558 940 468 986 l 536 888 q 386 917 457 917 q 169 713 169 917 l 169 257 q 346 58 169 75 q 375 56 360 56 q 576 97 458 56 l 593 32 m 386 1019 l 325 1019 l 396 1183 q 440 1215 411 1215 q 486 1183 478 1215 q 489 1165 489 1175 q 482 1147 489 1156 l 386 1019 z "},"ć":{"ha":601,"x_min":108,"x_max":556,"o":"m 400 53 q 539 71 463 53 l 556 8 q 394 -15 467 -15 q 253 7 322 -15 q 108 250 108 54 l 108 428 q 147 593 108 526 q 367 708 214 708 q 553 664 458 708 l 531 607 q 394 638 451 638 q 292 624 336 638 q 217 561 247 610 q 186 436 186 513 l 186 235 q 400 53 186 53 m 351 747 l 290 747 l 361 911 q 406 943 376 943 q 453 911 443 943 q 454 893 454 903 q 447 875 454 883 l 351 747 z "},"Ĉ":{"ha":606,"x_min":92,"x_max":593,"o":"m 532 1018 l 386 1163 l 235 1018 l 182 1072 l 388 1268 l 585 1072 l 532 1018 m 593 32 q 368 -14 475 -14 q 301 -10 346 -14 q 205 22 256 -6 q 123 108 154 49 q 92 254 92 167 l 92 700 q 122 860 92 806 q 213 951 151 914 q 361 986 275 986 q 558 940 468 986 l 536 888 q 386 917 457 917 q 169 713 169 917 l 169 257 q 346 58 169 75 q 375 56 360 56 q 576 97 458 56 l 593 32 z "},"ĉ":{"ha":603,"x_min":108,"x_max":557,"o":"m 400 53 q 539 71 463 53 l 556 8 q 394 -15 467 -15 q 253 7 322 -15 q 108 250 108 54 l 108 428 q 147 593 108 526 q 367 708 214 708 q 553 664 458 708 l 531 607 q 394 638 451 638 q 292 624 336 638 q 217 561 247 610 q 186 436 186 513 l 186 235 q 400 53 186 53 m 504 751 l 358 896 l 207 751 l 154 806 l 360 1001 l 557 806 l 504 751 z "},"Ċ":{"ha":606,"x_min":92,"x_max":593,"o":"m 593 32 q 368 -14 475 -14 q 301 -10 346 -14 q 205 22 256 -6 q 123 108 154 49 q 92 254 92 167 l 92 700 q 122 860 92 806 q 213 951 151 914 q 361 986 275 986 q 558 940 468 986 l 536 888 q 386 917 457 917 q 169 713 169 917 l 169 257 q 346 58 169 75 q 375 56 360 56 q 576 97 458 56 l 593 32 m 415 1061 q 415 1051 415 1061 q 401 1028 415 1042 q 369 1014 388 1014 q 336 1028 350 1014 q 322 1060 322 1042 q 336 1093 322 1079 q 369 1107 350 1107 q 402 1094 389 1107 q 415 1061 415 1081 z "},"ċ":{"ha":601,"x_min":108,"x_max":556,"o":"m 400 53 q 539 71 463 53 l 556 8 q 394 -15 467 -15 q 253 7 322 -15 q 108 250 108 54 l 108 428 q 147 593 108 526 q 367 708 214 708 q 553 664 458 708 l 531 607 q 394 638 451 638 q 292 624 336 638 q 217 561 247 610 q 186 436 186 513 l 186 235 q 400 53 186 53 m 400 761 q 393 754 400 761 q 368 747 386 747 q 335 761 350 747 q 321 794 321 775 q 335 826 321 813 q 367 840 349 840 q 400 827 386 840 q 414 794 414 814 q 400 761 414 775 z "},"Č":{"ha":606,"x_min":92,"x_max":593,"o":"m 593 32 q 368 -14 475 -14 q 301 -10 346 -14 q 205 22 256 -6 q 123 108 154 49 q 92 254 92 167 l 92 700 q 122 860 92 806 q 213 951 151 914 q 361 986 275 986 q 558 940 468 986 l 536 888 q 386 917 457 917 q 169 713 169 917 l 169 257 q 346 58 169 75 q 375 56 360 56 q 576 97 458 56 l 593 32 m 553 1214 l 356 1018 l 150 1214 l 203 1268 l 354 1124 l 500 1268 l 553 1214 z "},"č":{"ha":603,"x_min":108,"x_max":557,"o":"m 400 53 q 539 71 463 53 l 556 8 q 394 -15 467 -15 q 253 7 322 -15 q 108 250 108 54 l 108 428 q 147 593 108 526 q 367 708 214 708 q 553 664 458 708 l 531 607 q 394 638 451 638 q 292 624 336 638 q 217 561 247 610 q 186 436 186 513 l 186 235 q 400 53 186 53 m 557 950 l 360 754 l 154 950 l 207 1004 l 358 860 l 504 1004 l 557 950 z "},"Ď":{"ha":800,"x_min":108,"x_max":692,"o":"m 397 0 l 108 0 l 108 974 l 369 974 q 609 888 526 974 q 692 658 692 801 l 692 278 q 397 0 692 0 m 614 264 l 614 672 q 544 846 614 789 q 383 903 475 903 l 186 903 l 186 69 l 375 69 q 614 264 614 69 m 578 1215 l 381 1019 l 175 1215 l 228 1269 l 379 1125 l 525 1269 l 578 1215 z "},"ď":{"ha":847,"x_min":108,"x_max":800,"o":"m 360 707 q 543 658 475 707 l 543 972 l 621 972 l 621 0 q 400 -17 501 -17 q 217 25 299 -17 q 108 218 108 81 l 108 481 q 226 681 108 626 q 360 707 283 707 m 543 590 q 358 638 458 638 q 228 593 271 638 q 185 476 185 549 l 185 217 q 403 54 185 54 q 543 67 465 54 l 543 590 m 711 778 l 656 817 q 736 881 718 853 l 743 890 l 729 894 q 705 938 704 913 q 719 974 706 963 q 742 986 732 986 q 761 985 751 986 q 785 969 771 985 q 800 932 800 953 q 711 778 800 851 z "},"Đ":{"ha":800,"x_min":108,"x_max":692,"o":"m 397 0 l 108 0 l 108 974 l 369 974 q 609 888 526 974 q 692 658 692 801 l 692 278 q 397 0 692 0 m 614 264 l 614 672 q 544 846 614 789 q 383 903 475 903 l 186 903 l 186 69 l 375 69 q 614 264 614 69 m 544 1014 l 243 1014 l 243 1094 l 544 1094 l 544 1014 z "},"đ":{"ha":753,"x_min":108,"x_max":707,"o":"m 360 707 q 543 658 475 707 l 543 781 l 382 781 l 382 857 l 543 857 l 543 972 l 621 972 l 621 857 l 707 857 l 707 781 l 621 781 l 621 0 q 400 -17 501 -17 q 217 25 299 -17 q 108 218 108 81 l 108 481 q 226 681 108 626 q 360 707 283 707 m 543 590 q 358 638 458 638 q 228 593 271 638 q 185 476 185 549 l 185 217 q 403 54 185 54 q 543 67 465 54 l 543 590 z "},"Ē":{"ha":646,"x_min":108,"x_max":572,"o":"m 569 0 l 108 0 l 108 972 l 572 972 l 572 900 l 186 900 l 186 574 l 451 574 l 425 497 l 186 497 l 186 69 l 569 69 l 569 0 m 489 1014 l 188 1014 l 188 1094 l 489 1094 l 489 1014 z "},"ē":{"ha":746,"x_min":49,"x_max":549,"o":"m 281 51 q 483 108 376 51 l 514 49 q 290 -17 407 -17 q 49 186 49 -17 l 49 471 q 119 646 49 583 q 304 708 189 708 q 484 647 419 708 q 549 475 549 585 l 549 294 l 126 271 l 126 186 q 181 78 126 111 q 281 51 222 51 m 471 364 l 471 485 q 439 583 471 544 q 372 631 407 621 q 303 642 338 642 q 176 600 226 642 q 126 469 126 558 l 126 347 l 471 364 m 453 747 l 151 747 l 151 828 l 453 828 l 453 747 z "},"Ė":{"ha":646,"x_min":108,"x_max":572,"o":"m 569 0 l 108 0 l 108 972 l 572 972 l 572 900 l 186 900 l 186 574 l 451 574 l 425 497 l 186 497 l 186 69 l 569 69 l 569 0 m 401 1061 q 401 1051 401 1061 q 388 1028 401 1042 q 355 1014 374 1014 q 322 1028 336 1014 q 308 1060 308 1042 q 322 1093 308 1079 q 356 1107 336 1107 q 388 1094 375 1107 q 401 1061 401 1081 z "},"ė":{"ha":654,"x_min":108,"x_max":608,"o":"m 340 51 q 543 108 436 51 l 574 49 q 350 -17 467 -17 q 108 186 108 -17 l 108 471 q 178 646 108 583 q 364 708 249 708 q 544 647 479 708 q 608 475 608 585 l 608 294 l 186 271 l 186 186 q 240 78 186 111 q 340 51 282 51 m 531 364 l 531 485 q 499 583 531 544 q 432 631 467 621 q 363 642 397 642 q 236 600 286 642 q 186 469 186 558 l 186 347 l 531 364 m 421 794 q 421 785 421 794 q 407 761 421 775 q 374 747 393 747 q 342 761 356 747 q 328 794 328 775 q 342 826 328 813 q 375 840 356 840 q 408 827 394 840 q 421 794 421 814 z "},"Ę":{"ha":690,"x_min":108,"x_max":617,"o":"m 568 0 q 424 -176 424 -121 q 437 -214 424 -197 q 479 -231 450 -231 q 527 -217 508 -231 q 565 -174 546 -204 l 617 -226 q 482 -296 572 -296 q 433 -290 458 -296 q 381 -256 408 -283 q 354 -182 354 -228 q 488 0 354 -87 l 108 0 l 108 972 l 572 972 l 572 900 l 186 900 l 186 574 l 451 574 l 425 497 l 186 497 l 186 69 l 569 69 l 569 0 l 568 0 z "},"ę":{"ha":603,"x_min":49,"x_max":549,"o":"m 281 51 q 483 108 376 51 l 514 49 q 368 -7 447 7 q 233 -176 233 -122 q 247 -214 233 -197 q 289 -231 260 -231 q 337 -217 318 -231 q 375 -174 356 -204 l 426 -226 q 292 -296 382 -296 q 243 -290 268 -296 q 191 -256 218 -283 q 164 -182 164 -228 q 272 -17 164 -96 q 109 34 169 -17 q 49 186 49 85 l 49 471 q 119 646 49 583 q 304 708 189 708 q 484 647 419 708 q 549 475 549 585 l 549 294 l 126 271 l 126 186 q 181 78 126 111 q 281 51 222 51 m 471 364 l 471 485 q 439 583 471 544 q 372 631 407 621 q 303 642 338 642 q 176 600 226 642 q 126 469 126 558 l 126 347 l 471 364 z "},"Ě":{"ha":646,"x_min":108,"x_max":572,"o":"m 569 0 l 108 0 l 108 972 l 572 972 l 572 900 l 186 900 l 186 574 l 451 574 l 425 497 l 186 497 l 186 69 l 569 69 l 569 0 m 543 1215 l 346 1019 l 140 1215 l 193 1269 l 344 1125 l 490 1269 l 543 1215 z "},"ě":{"ha":654,"x_min":108,"x_max":608,"o":"m 340 51 q 543 108 436 51 l 574 49 q 350 -17 467 -17 q 108 186 108 -17 l 108 471 q 178 646 108 583 q 364 708 249 708 q 544 647 479 708 q 608 475 608 585 l 608 294 l 186 271 l 186 186 q 240 78 186 111 q 340 51 282 51 m 531 364 l 531 485 q 499 583 531 544 q 432 631 467 621 q 363 642 397 642 q 236 600 286 642 q 186 469 186 558 l 186 347 l 531 364 m 565 949 l 368 753 l 163 949 l 215 1003 l 367 858 l 513 1003 l 565 949 z "},"Ĝ":{"ha":746,"x_min":90,"x_max":661,"o":"m 661 0 l 604 0 l 585 57 q 387 -14 513 -14 q 176 56 261 -14 q 90 263 90 125 l 90 699 q 211 950 90 876 q 360 985 274 985 q 557 939 467 985 l 535 886 q 385 915 456 915 q 168 711 168 915 l 168 260 q 228 114 168 167 q 383 61 289 61 q 532 115 476 61 q 588 258 588 169 l 588 340 l 496 340 l 469 417 l 661 417 l 661 0 m 539 1018 l 393 1163 l 242 1018 l 189 1072 l 394 1268 l 592 1072 l 539 1018 z "},"ĝ":{"ha":679,"x_min":108,"x_max":633,"o":"m 581 751 l 435 896 l 283 751 l 231 806 l 436 1001 l 633 806 l 581 751 m 483 -292 l 463 -232 q 554 -87 554 -197 l 554 85 q 370 -17 496 -17 q 176 50 244 -17 q 108 244 108 117 l 108 451 q 180 641 108 574 q 376 708 251 708 q 560 615 501 708 l 554 696 l 632 696 l 632 -89 q 597 -219 632 -172 q 483 -292 563 -267 m 554 240 l 554 467 q 499 595 554 553 q 368 638 443 638 q 240 592 293 638 q 186 444 186 547 l 186 232 q 235 100 186 144 q 365 56 285 56 q 499 103 444 56 q 554 240 554 151 z "},"Ğ":{"ha":746,"x_min":90,"x_max":661,"o":"m 661 0 l 604 0 l 585 57 q 387 -14 513 -14 q 176 56 261 -14 q 90 263 90 125 l 90 699 q 211 950 90 876 q 360 985 274 985 q 557 939 467 985 l 535 886 q 385 915 456 915 q 168 711 168 915 l 168 260 q 228 114 168 167 q 383 61 289 61 q 532 115 476 61 q 588 258 588 169 l 588 340 l 496 340 l 469 417 l 661 417 l 661 0 m 540 1175 l 540 1168 q 494 1057 540 1103 q 383 1011 447 1011 q 273 1057 319 1011 q 226 1168 226 1103 l 226 1175 l 289 1175 l 289 1168 q 317 1101 289 1128 q 383 1074 344 1074 q 450 1101 422 1074 q 478 1168 478 1128 l 478 1175 l 540 1175 z "},"ğ":{"ha":678,"x_min":108,"x_max":632,"o":"m 549 903 l 549 896 q 502 785 549 831 q 392 739 456 739 q 281 785 328 739 q 235 896 235 831 l 235 903 l 297 903 l 297 896 q 325 828 297 856 q 392 801 353 801 q 458 828 431 801 q 486 896 486 856 l 486 903 l 549 903 m 483 -292 l 463 -232 q 554 -87 554 -197 l 554 85 q 370 -17 496 -17 q 176 50 244 -17 q 108 244 108 117 l 108 451 q 180 641 108 574 q 376 708 251 708 q 560 615 501 708 l 554 696 l 632 696 l 632 -89 q 597 -219 632 -172 q 483 -292 563 -267 m 554 240 l 554 467 q 499 595 554 553 q 368 638 443 638 q 240 592 293 638 q 186 444 186 547 l 186 232 q 235 100 186 144 q 365 56 285 56 q 499 103 444 56 q 554 240 554 151 z "},"Ġ":{"ha":786,"x_min":90,"x_max":661,"o":"m 411 1026 q 404 1019 411 1026 q 379 1013 397 1013 q 347 1027 361 1013 q 332 1060 332 1042 q 346 1092 332 1078 q 378 1106 360 1106 q 411 1092 397 1106 q 425 1059 425 1078 q 411 1026 425 1040 m 661 0 l 604 0 l 585 57 q 387 -14 513 -14 q 176 56 261 -14 q 90 263 90 125 l 90 699 q 211 950 90 876 q 360 985 274 985 q 557 939 467 985 l 535 886 q 385 915 456 915 q 168 711 168 915 l 168 260 q 228 114 168 167 q 383 61 289 61 q 532 115 476 61 q 588 258 588 169 l 588 340 l 496 340 l 469 417 l 661 417 l 661 0 z "},"ġ":{"ha":678,"x_min":108,"x_max":632,"o":"m 435 792 q 435 783 435 792 q 421 760 435 774 q 388 746 407 746 q 356 760 369 746 q 342 793 342 775 q 356 825 342 811 q 389 839 369 839 q 422 825 408 839 q 435 792 435 811 m 483 -292 l 463 -232 q 554 -87 554 -197 l 554 85 q 370 -17 496 -17 q 176 50 244 -17 q 108 244 108 117 l 108 451 q 180 641 108 574 q 376 708 251 708 q 560 615 501 708 l 554 696 l 632 696 l 632 -89 q 597 -219 632 -172 q 483 -292 563 -267 m 554 240 l 554 467 q 499 595 554 553 q 368 638 443 638 q 240 592 293 638 q 186 444 186 547 l 186 232 q 235 100 186 144 q 365 56 285 56 q 499 103 444 56 q 554 240 554 151 z "},"Ģ":{"ha":746,"x_min":90,"x_max":661,"o":"m 661 0 l 604 0 l 585 57 q 387 -14 513 -14 q 176 56 261 -14 q 90 263 90 125 l 90 699 q 211 950 90 876 q 360 985 274 985 q 557 939 467 985 l 535 886 q 385 915 456 915 q 168 711 168 915 l 168 260 q 228 114 168 167 q 383 61 289 61 q 532 115 476 61 q 588 258 588 169 l 588 340 l 496 340 l 469 417 l 661 417 l 661 0 m 335 -256 l 279 -217 q 360 -153 342 -181 l 367 -143 l 353 -139 q 328 -96 328 -121 q 342 -59 329 -71 q 365 -47 356 -47 q 385 -48 375 -47 q 409 -65 394 -49 q 424 -101 424 -81 q 335 -256 424 -182 z "},"ģ":{"ha":678,"x_min":108,"x_max":632,"o":"m 483 -292 l 463 -232 q 554 -87 554 -197 l 554 85 q 370 -17 496 -17 q 176 50 244 -17 q 108 244 108 117 l 108 451 q 180 641 108 574 q 376 708 251 708 q 560 615 501 708 l 554 696 l 632 696 l 632 -89 q 597 -219 632 -172 q 483 -292 563 -267 m 554 240 l 554 467 q 499 595 554 553 q 368 638 443 638 q 240 592 293 638 q 186 444 186 547 l 186 232 q 235 100 186 144 q 365 56 285 56 q 499 103 444 56 q 554 240 554 151 m 375 847 l 389 843 q 413 800 414 825 q 399 763 413 775 q 376 751 386 751 q 357 752 367 751 q 333 769 347 753 q 318 806 318 785 q 407 960 318 886 l 463 921 q 382 857 404 888 l 375 847 z "},"Ĥ":{"ha":817,"x_min":108,"x_max":706,"o":"m 706 0 l 628 0 l 628 497 l 186 497 l 186 0 l 108 0 l 108 972 l 186 972 l 186 574 l 628 574 l 628 972 l 706 972 l 706 0 m 599 1018 l 453 1163 l 301 1018 l 249 1072 l 454 1268 l 651 1072 l 599 1018 z "},"ĥ":{"ha":847,"x_min":89,"x_max":764,"o":"m 439 1018 l 293 1163 l 142 1018 l 89 1072 l 294 1268 l 492 1072 l 439 1018 m 329 658 q 517 708 399 708 q 646 682 592 708 q 764 481 764 628 l 764 0 l 688 0 l 688 476 q 649 589 688 549 q 508 638 601 638 q 329 590 414 638 l 329 0 l 251 0 l 251 972 l 329 972 l 329 658 z "},"Ħ":{"ha":951,"x_min":108,"x_max":840,"o":"m 774 0 l 696 0 l 696 497 l 254 497 l 254 0 l 176 0 l 176 671 l 108 671 l 108 747 l 176 747 l 176 972 l 254 972 l 254 747 l 696 747 l 696 972 l 774 972 l 774 747 l 840 747 l 840 671 l 774 671 l 774 0 m 696 574 l 696 671 l 254 671 l 254 574 l 696 574 z "},"ħ":{"ha":753,"x_min":108,"x_max":707,"o":"m 272 658 q 460 708 342 708 q 589 682 535 708 q 707 481 707 628 l 707 0 l 631 0 l 631 476 q 592 589 631 549 q 451 638 544 638 q 272 590 357 638 l 272 0 l 194 0 l 194 781 l 108 781 l 108 857 l 194 857 l 194 972 l 272 972 l 272 857 l 433 857 l 433 781 l 272 781 l 272 658 z "},"Ĩ":{"ha":683,"x_min":108,"x_max":572,"o":"m 397 0 l 319 0 l 319 901 l 226 904 l 226 972 l 397 972 l 397 0 m 440 1092 q 538 1140 494 1092 l 572 1086 q 439 1013 510 1013 q 383 1026 414 1013 q 317 1055 351 1039 q 247 1071 282 1071 q 143 1021 190 1071 l 108 1075 q 247 1149 174 1149 q 303 1136 272 1149 q 370 1108 335 1124 q 440 1092 406 1092 z "},"ĩ":{"ha":618,"x_min":108,"x_max":572,"o":"m 440 815 q 538 864 494 815 l 572 810 q 439 736 510 736 q 383 749 414 736 q 317 778 351 763 q 247 794 282 794 q 143 744 190 794 l 108 799 q 247 872 174 872 q 303 860 272 872 q 370 831 335 847 q 440 815 406 815 m 371 0 l 293 0 l 293 696 l 371 696 l 371 0 z "},"Ī":{"ha":519,"x_min":108,"x_max":408,"o":"m 340 0 l 263 0 l 263 901 l 169 904 l 169 972 l 340 972 l 340 0 m 408 1014 l 108 1014 l 108 1094 l 408 1094 l 408 1014 z "},"ī":{"ha":456,"x_min":108,"x_max":410,"o":"m 410 747 l 108 747 l 108 828 l 410 828 l 410 747 m 303 0 l 225 0 l 225 696 l 303 696 l 303 0 z "},"Į":{"ha":482,"x_min":108,"x_max":371,"o":"m 322 0 q 178 -176 178 -121 q 191 -214 178 -197 q 233 -231 204 -231 q 281 -217 263 -231 q 319 -174 300 -204 l 371 -226 q 236 -296 326 -296 q 188 -290 213 -296 q 135 -256 163 -283 q 108 -182 108 -228 q 242 0 108 -87 l 244 0 l 244 901 l 151 904 l 151 972 l 322 972 l 322 0 z "},"į":{"ha":340,"x_min":-10,"x_max":253,"o":"m 204 0 q 60 -176 60 -121 q 73 -214 60 -197 q 115 -231 86 -231 q 163 -217 144 -231 q 201 -174 182 -204 l 253 -226 q 118 -296 208 -296 q 69 -290 94 -296 q 17 -256 44 -283 q -10 -182 -10 -228 q 124 0 -10 -87 l 128 0 l 128 696 l 206 696 l 206 0 l 204 0 m 200 907 q 193 900 200 907 q 168 893 186 893 q 135 908 150 893 q 121 940 121 922 q 135 972 121 958 q 167 986 149 986 q 200 972 186 986 q 214 940 214 958 q 200 907 214 921 z "},"İ":{"ha":399,"x_min":108,"x_max":288,"o":"m 279 0 l 201 0 l 201 901 l 108 904 l 108 972 l 279 972 l 279 0 m 288 1061 q 288 1051 288 1061 q 274 1028 288 1042 q 241 1014 260 1014 q 208 1028 222 1014 q 194 1060 194 1042 q 208 1093 194 1079 q 242 1107 222 1107 q 274 1094 261 1107 q 288 1061 288 1081 z "},"ı":{"ha":181,"x_min":50,"x_max":128,"o":"m 128 0 l 50 0 l 50 696 l 128 696 l 128 0 z "},"Ĵ":{"ha":368,"x_min":-6,"x_max":308,"o":"m 24 -51 l 6 0 q 85 38 51 0 q 119 158 119 75 l 119 901 l 26 904 l 26 972 l 199 972 l 199 164 q 152 5 199 61 q 24 -51 106 -51 m 308 1175 l 308 1168 q 263 1057 308 1103 q 151 1011 217 1011 q 40 1057 86 1011 q -6 1168 -6 1103 l -6 1175 l 57 1175 l 57 1168 q 84 1101 57 1128 q 151 1074 111 1074 q 219 1101 192 1074 q 246 1168 246 1128 l 246 1175 l 308 1175 z "},"ĵ":{"ha":557,"x_min":108,"x_max":511,"o":"m 458 751 l 313 896 l 161 751 l 108 806 l 314 1001 l 511 806 l 458 751 m 269 -78 l 269 619 l 207 624 l 175 696 l 347 696 l 347 -104 q 297 -237 344 -185 q 175 -290 250 -290 l 165 -231 q 197 -219 175 -231 q 233 -193 219 -208 q 269 -78 269 -153 z "},"Ķ":{"ha":660,"x_min":110,"x_max":661,"o":"m 661 0 l 568 0 l 254 479 l 188 374 l 188 0 l 110 0 l 110 974 l 188 974 l 188 510 l 499 974 l 589 974 l 304 553 l 661 0 m 319 -256 l 264 -217 q 344 -153 326 -181 l 351 -143 l 338 -139 q 313 -96 313 -121 q 327 -59 314 -71 q 350 -47 340 -47 q 369 -48 360 -47 q 394 -65 379 -49 q 408 -101 408 -81 q 319 -256 408 -182 z "},"ķ":{"ha":603,"x_min":93,"x_max":603,"o":"m 603 0 l 510 0 l 243 440 l 171 378 l 171 0 l 93 0 l 93 972 l 171 972 l 171 465 l 449 722 l 504 668 l 299 489 q 603 0 393 332 m 286 -256 l 231 -217 q 311 -153 293 -181 l 318 -143 l 304 -139 q 280 -96 279 -121 q 294 -59 281 -71 q 317 -47 307 -47 q 336 -48 326 -47 q 360 -65 346 -49 q 375 -101 375 -81 q 286 -256 375 -182 z "},"ĸ":{"ha":668,"x_min":108,"x_max":622,"o":"m 619 65 l 622 -1 q 532 24 574 -1 q 469 75 490 50 q 408 153 447 100 l 263 353 l 186 275 l 186 0 l 108 0 l 108 711 l 186 693 l 186 381 l 475 696 l 578 696 l 317 411 l 493 163 q 619 65 564 68 z "},"Ĺ":{"ha":611,"x_min":108,"x_max":610,"o":"m 610 0 l 108 0 l 108 972 l 186 972 l 186 69 l 610 69 l 610 0 m 257 1014 l 196 1014 l 267 1178 q 311 1210 282 1210 q 358 1178 349 1210 q 360 1160 360 1169 q 353 1142 360 1150 l 257 1014 z "},"ĺ":{"ha":397,"x_min":108,"x_max":286,"o":"m 186 0 l 108 0 l 108 972 l 186 972 l 186 0 m 183 1019 l 122 1019 l 193 1183 q 238 1215 208 1215 q 283 1183 275 1215 q 286 1165 286 1175 q 279 1147 286 1156 l 183 1019 z "},"Ļ":{"ha":611,"x_min":108,"x_max":610,"o":"m 610 0 l 108 0 l 108 972 l 186 972 l 186 69 l 610 69 l 610 0 m 335 -256 l 279 -217 q 360 -153 342 -181 l 367 -143 l 353 -139 q 328 -96 328 -121 q 342 -59 329 -71 q 365 -47 356 -47 q 385 -48 375 -47 q 409 -65 394 -49 q 424 -101 424 -81 q 335 -256 424 -182 z "},"ļ":{"ha":365,"x_min":108,"x_max":253,"o":"m 243 0 l 165 0 l 165 972 l 243 972 l 243 0 m 164 -256 l 108 -217 q 189 -153 171 -181 l 196 -143 l 182 -139 q 158 -96 157 -121 q 172 -59 158 -71 q 194 -47 185 -47 q 214 -48 204 -47 q 238 -65 224 -49 q 253 -101 253 -81 q 164 -256 253 -182 z "},"Ľ":{"ha":771,"x_min":108,"x_max":769,"o":"m 769 0 l 268 0 l 268 972 l 346 972 l 346 69 l 769 69 l 769 0 m 511 1215 l 314 1019 l 108 1215 l 161 1269 l 313 1125 l 458 1269 l 511 1215 z "},"ľ":{"ha":622,"x_min":108,"x_max":511,"o":"m 347 0 l 269 0 l 269 972 l 347 972 l 347 0 m 511 1215 l 314 1019 l 108 1215 l 161 1269 l 313 1125 l 458 1269 l 511 1215 z "},"Ł":{"ha":826,"x_min":108,"x_max":781,"o":"m 781 0 l 279 0 l 279 490 l 139 428 l 108 497 l 279 574 l 279 972 l 357 972 l 357 608 l 513 679 l 544 610 l 357 525 l 357 69 l 781 69 l 781 0 z "},"ł":{"ha":590,"x_min":108,"x_max":544,"o":"m 375 0 l 297 0 l 297 499 l 139 428 l 108 497 l 297 582 l 297 901 l 204 904 l 204 972 l 375 972 l 375 617 l 513 679 l 544 610 l 375 533 l 375 0 z "},"Ń":{"ha":903,"x_min":108,"x_max":792,"o":"m 792 0 l 714 0 l 186 829 l 186 0 l 108 0 l 108 972 l 186 972 l 714 143 l 714 972 l 792 972 l 792 0 m 447 1014 l 386 1014 l 457 1178 q 501 1210 472 1210 q 547 1178 539 1210 q 550 1160 550 1169 q 543 1142 550 1150 l 447 1014 z "},"ń":{"ha":667,"x_min":108,"x_max":621,"o":"m 181 649 q 379 708 251 708 q 503 682 451 708 q 621 481 621 628 l 621 0 l 544 0 l 544 476 q 506 589 544 549 q 365 638 458 638 q 186 590 271 638 l 186 0 l 108 0 l 108 696 l 186 696 l 181 649 m 382 747 l 321 747 l 392 911 q 436 943 407 943 q 483 911 474 943 q 485 893 485 903 q 478 875 485 883 l 382 747 z "},"Ņ":{"ha":903,"x_min":108,"x_max":792,"o":"m 792 0 l 714 0 l 186 829 l 186 0 l 108 0 l 108 972 l 186 972 l 714 143 l 714 972 l 792 972 l 792 0 m 436 -256 l 381 -217 q 461 -153 443 -181 l 468 -143 l 454 -139 q 430 -96 429 -121 q 444 -59 431 -71 q 467 -47 457 -47 q 486 -48 476 -47 q 510 -65 496 -49 q 525 -101 525 -81 q 436 -256 525 -182 z "},"ņ":{"ha":694,"x_min":89,"x_max":601,"o":"m 161 649 q 360 708 232 708 q 483 682 432 708 q 601 481 601 628 l 601 0 l 525 0 l 525 476 q 486 589 525 549 q 345 638 439 638 q 167 590 251 638 l 167 0 l 89 0 l 89 696 l 167 696 l 161 649 m 303 -256 l 247 -217 q 328 -153 310 -181 l 335 -143 l 321 -139 q 297 -96 296 -121 q 310 -59 297 -71 q 333 -47 324 -47 q 353 -48 343 -47 q 377 -65 363 -49 q 392 -101 392 -81 q 303 -256 392 -182 z "},"Ň":{"ha":903,"x_min":108,"x_max":792,"o":"m 792 0 l 714 0 l 186 829 l 186 0 l 108 0 l 108 972 l 186 972 l 714 143 l 714 972 l 792 972 l 792 0 m 658 1215 l 461 1019 l 256 1215 l 308 1269 l 460 1125 l 606 1269 l 658 1215 z "},"ň":{"ha":667,"x_min":108,"x_max":621,"o":"m 181 649 q 379 708 251 708 q 503 682 451 708 q 621 481 621 628 l 621 0 l 544 0 l 544 476 q 506 589 544 549 q 365 638 458 638 q 186 590 271 638 l 186 0 l 108 0 l 108 696 l 186 696 l 181 649 m 585 1018 l 388 822 l 182 1018 l 235 1072 l 386 928 l 532 1072 l 585 1018 z "},"Ŋ":{"ha":904,"x_min":108,"x_max":793,"o":"m 713 146 l 713 901 l 619 904 l 619 972 l 793 972 l 793 164 q 747 5 793 61 q 618 -51 700 -51 q 609 -26 615 -43 q 600 0 603 -8 q 685 46 656 0 q 435 438 601 176 q 186 829 269 699 l 186 0 l 108 0 l 108 972 l 186 972 q 713 146 682 207 z "},"ŋ":{"ha":694,"x_min":89,"x_max":601,"o":"m 161 649 q 360 708 232 708 q 483 682 432 708 q 601 481 601 628 l 601 -104 q 551 -237 599 -185 q 429 -290 504 -290 l 419 -231 q 452 -219 429 -231 q 489 -193 475 -208 q 525 -78 525 -153 l 525 476 q 486 589 525 549 q 345 638 439 638 q 167 590 251 638 l 167 0 l 89 0 l 89 696 l 167 696 l 161 649 z "},"Ō":{"ha":763,"x_min":88,"x_max":671,"o":"m 671 703 l 671 257 q 585 51 671 117 q 381 -15 500 -15 q 174 51 261 -15 q 88 257 88 117 l 88 704 q 166 921 88 847 q 382 994 244 994 q 595 917 519 994 q 671 703 671 839 m 594 260 l 594 717 q 535 869 594 818 q 379 921 476 921 q 224 869 282 921 q 165 717 165 818 l 165 258 q 226 109 165 160 q 380 58 286 58 q 534 108 474 58 q 594 260 594 157 m 524 1014 l 222 1014 l 222 1094 l 524 1094 l 524 1014 z "},"ō":{"ha":672,"x_min":108,"x_max":626,"o":"m 626 439 l 626 256 q 563 63 626 139 q 369 -14 499 -14 q 174 63 240 -14 q 108 256 108 140 l 108 439 q 176 641 108 571 q 367 711 243 711 q 558 638 490 711 q 626 439 626 565 m 549 242 l 549 439 q 369 640 549 640 q 186 439 186 640 l 186 242 q 235 107 186 158 q 370 56 285 56 q 502 106 456 56 q 549 242 549 157 m 517 747 l 217 747 l 217 828 l 517 828 l 517 747 z "},"Ő":{"ha":763,"x_min":88,"x_max":671,"o":"m 671 703 l 671 257 q 585 51 671 117 q 381 -15 500 -15 q 174 51 261 -15 q 88 257 88 117 l 88 704 q 166 921 88 847 q 382 994 244 994 q 595 917 519 994 q 671 703 671 839 m 594 260 l 594 717 q 535 869 594 818 q 379 921 476 921 q 224 869 282 921 q 165 717 165 818 l 165 258 q 226 109 165 160 q 380 58 286 58 q 534 108 474 58 q 594 260 594 157 m 479 1015 l 418 1015 l 489 1179 q 533 1211 504 1211 q 581 1179 571 1211 q 582 1161 582 1171 q 575 1143 582 1151 l 479 1015 m 324 1015 l 263 1015 l 333 1179 q 378 1211 349 1211 q 425 1179 415 1211 q 426 1161 426 1171 q 419 1143 426 1151 l 324 1015 z "},"ő":{"ha":672,"x_min":108,"x_max":626,"o":"m 626 439 l 626 256 q 563 63 626 139 q 369 -14 499 -14 q 174 63 240 -14 q 108 256 108 140 l 108 439 q 176 641 108 571 q 367 711 243 711 q 558 638 490 711 q 626 439 626 565 m 549 242 l 549 439 q 369 640 549 640 q 186 439 186 640 l 186 242 q 235 107 186 158 q 370 56 285 56 q 502 106 456 56 q 549 242 549 157 m 461 754 l 400 754 l 471 918 q 515 950 486 950 q 561 918 553 950 q 564 900 564 910 q 557 882 564 890 l 461 754 m 306 754 l 244 754 l 315 918 q 360 950 331 950 q 406 918 397 950 q 408 900 408 910 q 401 882 408 890 l 306 754 z "},"Œ":{"ha":1122,"x_min":108,"x_max":1076,"o":"m 692 257 l 690 226 l 690 69 l 1074 69 l 1074 0 l 613 0 l 613 56 q 408 -15 533 -15 q 195 51 282 -15 q 108 257 108 117 l 108 704 q 187 921 108 847 q 401 994 265 994 q 613 919 538 994 l 613 972 l 1076 972 l 1076 900 l 690 900 l 690 742 q 692 703 692 729 l 692 574 l 956 574 l 929 497 l 692 497 l 692 257 m 613 218 l 613 756 q 544 879 600 838 q 395 921 488 921 q 244 869 303 921 q 186 717 186 818 l 186 258 q 247 109 186 160 q 395 58 307 58 q 542 98 483 58 q 613 218 600 138 z "},"œ":{"ha":1096,"x_min":108,"x_max":1050,"o":"m 782 51 q 985 108 878 51 l 1015 49 q 769 -17 908 -17 q 575 83 629 -17 q 372 -14 503 -14 q 174 63 240 -14 q 108 256 108 140 l 108 439 q 176 641 108 571 q 369 711 243 711 q 585 599 515 711 q 806 708 651 708 q 985 647 921 708 q 1050 475 1050 585 l 1050 294 l 628 271 l 628 186 q 682 78 628 111 q 782 51 724 51 m 549 242 l 549 439 q 369 640 549 640 q 186 439 186 640 l 186 242 q 235 107 186 158 q 370 56 285 56 q 502 106 456 56 q 549 242 549 157 m 972 364 l 972 485 q 940 583 972 544 q 874 631 908 621 q 804 642 839 642 q 678 600 728 642 q 628 469 628 558 l 628 347 l 972 364 z "},"Ŕ":{"ha":783,"x_min":108,"x_max":713,"o":"m 713 0 l 633 0 l 515 344 q 460 340 490 340 l 186 340 l 186 0 l 108 0 l 108 972 l 450 972 q 647 892 582 972 q 711 675 711 811 q 706 564 711 610 q 672 458 701 518 q 589 368 643 397 l 713 0 m 186 417 l 461 417 q 546 437 511 417 q 597 482 581 457 q 622 550 614 507 q 633 675 633 599 q 585 843 633 788 q 456 899 538 899 l 186 899 l 186 417 m 376 1014 l 315 1014 l 386 1178 q 431 1210 401 1210 q 478 1178 468 1210 q 479 1160 479 1169 q 472 1142 479 1150 l 376 1014 z "},"ŕ":{"ha":501,"x_min":108,"x_max":456,"o":"m 435 625 q 328 639 382 639 q 230 615 274 639 q 186 544 186 590 l 186 0 l 108 0 l 108 696 l 186 696 l 182 647 q 354 707 247 707 q 456 696 401 707 l 435 625 m 253 747 l 192 747 l 263 911 q 307 943 278 943 q 353 911 344 943 q 356 893 356 903 q 349 875 356 883 l 253 747 z "},"Ŗ":{"ha":783,"x_min":108,"x_max":713,"o":"m 713 0 l 633 0 l 515 344 q 460 340 490 340 l 186 340 l 186 0 l 108 0 l 108 972 l 450 972 q 647 892 582 972 q 711 675 711 811 q 706 564 711 610 q 672 458 701 518 q 589 368 643 397 l 713 0 m 186 417 l 461 417 q 546 437 511 417 q 597 482 581 457 q 622 550 614 507 q 633 675 633 599 q 585 843 633 788 q 456 899 538 899 l 186 899 l 186 417 m 349 -256 l 293 -217 q 374 -153 356 -181 l 381 -143 l 367 -139 q 342 -96 342 -121 q 356 -59 343 -71 q 379 -47 369 -47 q 399 -48 389 -47 q 423 -65 408 -49 q 438 -101 438 -81 q 349 -256 438 -182 z "},"ŗ":{"ha":463,"x_min":85,"x_max":432,"o":"m 411 625 q 304 639 358 639 q 206 615 250 639 q 163 544 163 590 l 163 0 l 85 0 l 85 696 l 163 696 l 158 647 q 331 707 224 707 q 432 696 378 707 l 411 625 m 154 -256 l 99 -217 q 179 -153 161 -181 l 186 -143 l 172 -139 q 148 -96 147 -121 q 162 -59 149 -71 q 185 -47 175 -47 q 204 -48 194 -47 q 228 -65 214 -49 q 243 -101 243 -81 q 154 -256 243 -182 z "},"Ř":{"ha":783,"x_min":108,"x_max":713,"o":"m 713 0 l 633 0 l 515 344 q 460 340 490 340 l 186 340 l 186 0 l 108 0 l 108 972 l 450 972 q 647 892 582 972 q 711 675 711 811 q 706 564 711 610 q 672 458 701 518 q 589 368 643 397 l 713 0 m 186 417 l 461 417 q 546 437 511 417 q 597 482 581 457 q 622 550 614 507 q 633 675 633 599 q 585 843 633 788 q 456 899 538 899 l 186 899 l 186 417 m 593 1215 l 396 1019 l 190 1215 l 243 1269 l 394 1125 l 540 1269 l 593 1215 z "},"ř":{"ha":557,"x_min":108,"x_max":511,"o":"m 436 625 q 329 639 383 639 q 231 615 275 639 q 188 544 188 590 l 188 0 l 110 0 l 110 696 l 188 696 l 183 647 q 356 707 249 707 q 457 696 403 707 l 436 625 m 511 1018 l 314 822 l 108 1018 l 161 1072 l 313 928 l 458 1072 l 511 1018 z "},"Ś":{"ha":779,"x_min":51,"x_max":711,"o":"m 51 247 l 131 247 q 205 117 138 174 q 378 60 272 60 q 556 108 483 60 q 628 260 628 156 q 587 369 628 324 q 485 438 546 414 q 352 488 424 461 q 219 542 281 515 q 117 621 158 568 q 76 747 76 674 q 157 915 76 844 q 389 986 238 986 q 592 944 504 986 q 568 871 592 942 q 387 911 489 911 q 221 867 285 911 q 157 743 157 822 q 267 604 157 654 q 374 563 315 582 q 493 519 433 543 q 601 466 553 496 q 681 385 650 436 q 711 267 711 333 q 630 62 711 139 q 388 -15 549 -15 q 141 65 228 -15 q 51 247 54 144 m 394 1021 l 333 1021 l 404 1185 q 449 1217 419 1217 q 494 1185 486 1217 q 497 1167 497 1176 q 490 1149 497 1157 l 394 1021 z "},"ś":{"ha":654,"x_min":108,"x_max":608,"o":"m 108 176 l 182 176 q 244 83 190 114 q 363 51 299 51 q 479 80 428 51 q 531 166 531 108 q 491 256 531 224 q 394 306 451 288 q 279 344 338 324 q 176 404 221 364 q 124 522 124 451 q 180 652 124 592 q 363 713 236 713 q 446 702 407 713 q 501 682 485 692 l 518 672 l 492 608 q 367 644 442 644 q 247 613 292 644 q 201 526 201 581 q 247 444 201 474 q 352 397 293 414 q 469 357 411 379 q 568 289 528 335 q 608 167 608 243 q 547 35 608 90 q 366 -21 485 -21 q 179 36 247 -21 q 108 176 111 93 m 372 747 l 311 747 l 382 911 q 426 943 397 943 q 472 911 464 943 q 475 893 475 903 q 468 875 475 883 l 372 747 z "},"Ŝ":{"ha":779,"x_min":51,"x_max":711,"o":"m 51 247 l 131 247 q 205 117 138 174 q 378 60 272 60 q 556 108 483 60 q 628 260 628 156 q 587 369 628 324 q 485 438 546 414 q 352 488 424 461 q 219 542 281 515 q 117 621 158 568 q 76 747 76 674 q 157 915 76 844 q 389 986 238 986 q 592 944 504 986 q 568 871 592 942 q 387 911 489 911 q 221 867 285 911 q 157 743 157 822 q 267 604 157 654 q 374 563 315 582 q 493 519 433 543 q 601 466 553 496 q 681 385 650 436 q 711 267 711 333 q 630 62 711 139 q 388 -15 549 -15 q 141 65 228 -15 q 51 247 54 144 m 524 1018 l 378 1163 l 226 1018 l 174 1072 l 379 1268 l 576 1072 l 524 1018 z "},"ŝ":{"ha":654,"x_min":108,"x_max":608,"o":"m 515 751 l 369 896 l 218 751 l 165 806 l 371 1001 l 568 806 l 515 751 m 108 176 l 182 176 q 244 83 190 114 q 363 51 299 51 q 479 80 428 51 q 531 166 531 108 q 491 256 531 224 q 394 306 451 288 q 279 344 338 324 q 176 404 221 364 q 124 522 124 451 q 180 652 124 592 q 363 713 236 713 q 446 702 407 713 q 501 682 485 692 l 518 672 l 492 608 q 367 644 442 644 q 247 613 292 644 q 201 526 201 581 q 247 444 201 474 q 352 397 293 414 q 469 357 411 379 q 568 289 528 335 q 608 167 608 243 q 547 35 608 90 q 366 -21 485 -21 q 179 36 247 -21 q 108 176 111 93 z "},"ş":{"ha":599,"x_min":50,"x_max":550,"o":"m 153 -265 l 186 -192 q 283 -226 238 -226 q 381 -168 381 -226 q 353 -124 381 -137 q 321 -118 340 -118 q 274 -128 301 -118 l 226 -147 l 203 -108 l 272 -19 q 111 44 169 -11 q 50 176 53 100 l 124 176 q 186 83 132 114 q 305 51 240 51 q 421 80 369 51 q 472 166 472 108 q 433 256 472 224 q 336 306 393 288 q 221 344 279 324 q 118 404 163 364 q 65 522 65 451 q 122 652 65 592 q 304 713 178 713 q 388 702 349 713 q 443 682 426 692 l 460 672 l 433 608 q 308 644 383 644 q 188 613 233 644 q 143 526 143 581 q 189 444 143 474 q 294 397 235 414 q 411 357 353 379 q 510 289 469 335 q 550 169 550 243 q 494 40 550 94 q 331 -19 439 -14 l 290 -74 q 345 -65 303 -65 q 420 -92 388 -65 q 453 -177 453 -119 q 401 -263 453 -235 q 288 -292 350 -292 q 153 -265 225 -292 z "},"Š":{"ha":779,"x_min":51,"x_max":711,"o":"m 51 247 l 131 247 q 205 117 138 174 q 378 60 272 60 q 556 108 483 60 q 628 260 628 156 q 587 369 628 324 q 485 438 546 414 q 352 488 424 461 q 219 542 281 515 q 117 621 158 568 q 76 747 76 674 q 157 915 76 844 q 389 986 238 986 q 592 944 504 986 q 568 871 592 942 q 387 911 489 911 q 221 867 285 911 q 157 743 157 822 q 267 604 157 654 q 374 563 315 582 q 493 519 433 543 q 601 466 553 496 q 681 385 650 436 q 711 267 711 333 q 630 62 711 139 q 388 -15 549 -15 q 141 65 228 -15 q 51 247 54 144 m 617 1285 l 419 1089 l 214 1285 l 267 1339 l 418 1194 l 564 1339 l 617 1285 z "},"š":{"ha":654,"x_min":108,"x_max":608,"o":"m 108 176 l 182 176 q 244 83 190 114 q 363 51 299 51 q 479 80 428 51 q 531 166 531 108 q 491 256 531 224 q 394 306 451 288 q 279 344 338 324 q 176 404 221 364 q 124 522 124 451 q 180 652 124 592 q 363 713 236 713 q 446 702 407 713 q 501 682 485 692 l 518 672 l 492 608 q 367 644 442 644 q 247 613 292 644 q 201 526 201 581 q 247 444 201 474 q 352 397 293 414 q 469 357 411 379 q 568 289 528 335 q 608 167 608 243 q 547 35 608 90 q 366 -21 485 -21 q 179 36 247 -21 q 108 176 111 93 m 563 1017 l 365 821 l 160 1017 l 213 1071 l 364 926 l 510 1071 l 563 1017 z "},"Ţ":{"ha":558,"x_min":0,"x_max":558,"o":"m 314 0 l 236 0 l 236 903 l 0 903 l 0 972 l 558 972 l 558 903 l 314 903 l 314 0 m 238 -256 l 182 -217 q 263 -153 244 -181 l 269 -143 l 256 -139 q 231 -96 231 -121 q 245 -59 232 -71 q 268 -47 258 -47 q 288 -48 278 -47 q 312 -65 297 -49 q 326 -101 326 -81 q 238 -256 326 -182 z "},"ţ":{"ha":365,"x_min":61,"x_max":333,"o":"m 258 42 l 236 -18 q 124 53 158 4 q 89 183 89 101 l 89 972 l 167 972 l 167 696 l 333 696 l 300 622 l 167 622 l 167 183 q 258 42 167 72 m 117 -256 l 61 -217 q 142 -153 124 -181 l 149 -143 l 135 -139 q 110 -96 110 -121 q 124 -59 111 -71 q 147 -47 138 -47 q 167 -48 157 -47 q 191 -65 176 -49 q 206 -101 206 -81 q 117 -256 206 -182 z "},"Ť":{"ha":558,"x_min":0,"x_max":558,"o":"m 314 0 l 236 0 l 236 903 l 0 903 l 0 972 l 558 972 l 558 903 l 314 903 l 314 0 m 478 1215 l 281 1019 l 75 1215 l 128 1269 l 279 1125 l 425 1269 l 478 1215 z "},"ť":{"ha":496,"x_min":61,"x_max":464,"o":"m 314 42 l 292 -18 q 179 53 214 4 q 144 183 144 101 l 144 972 l 222 972 l 222 696 l 389 696 l 356 622 l 222 622 l 222 183 q 314 42 222 72 m 464 1215 l 267 1019 l 61 1215 l 114 1269 l 265 1125 l 411 1269 l 464 1215 z "},"Ŧ":{"ha":558,"x_min":0,"x_max":558,"o":"m 314 0 l 236 0 l 236 903 l 0 903 l 0 972 l 558 972 l 558 903 l 314 903 l 314 0 m 426 1014 l 125 1014 l 125 1094 l 426 1094 l 426 1014 z "},"ŧ":{"ha":496,"x_min":108,"x_max":450,"o":"m 375 42 l 353 -18 q 240 53 275 4 q 206 183 206 101 l 206 421 l 108 421 l 108 497 l 206 497 l 206 972 l 283 972 l 283 696 l 450 696 l 417 622 l 283 622 l 283 497 l 433 497 l 433 421 l 283 421 l 283 183 q 375 42 283 72 z "},"Ũ":{"ha":786,"x_min":103,"x_max":688,"o":"m 610 247 l 610 974 l 688 974 l 688 258 q 662 131 688 185 q 592 47 636 76 q 500 4 549 18 q 396 -10 451 -10 q 291 4 340 -10 q 198 47 242 18 q 128 131 154 76 q 103 258 103 185 l 103 974 l 181 974 l 181 247 q 242 111 181 163 q 394 60 304 60 q 547 111 485 60 q 610 247 610 163 m 499 1092 q 596 1140 553 1092 l 631 1086 q 497 1013 568 1013 q 441 1026 472 1013 q 375 1055 410 1039 q 306 1071 340 1071 q 201 1021 249 1071 l 167 1075 q 306 1149 232 1149 q 362 1136 331 1149 q 428 1108 393 1124 q 499 1092 464 1092 z "},"ũ":{"ha":672,"x_min":108,"x_max":626,"o":"m 626 0 l 550 0 l 556 71 q 472 7 522 29 q 369 -15 421 -15 q 108 239 108 -15 l 108 696 l 186 696 l 186 229 q 235 97 186 140 q 369 54 285 54 q 549 229 549 54 l 549 696 l 626 696 l 626 0 m 467 829 q 564 878 521 829 l 599 824 q 465 750 536 750 q 409 763 440 750 q 343 792 378 776 q 274 808 308 808 q 169 758 217 808 l 135 813 q 274 886 200 886 q 330 874 299 886 q 397 845 361 861 q 467 829 432 829 z "},"Ū":{"ha":786,"x_min":103,"x_max":688,"o":"m 610 247 l 610 974 l 688 974 l 688 258 q 662 131 688 185 q 592 47 636 76 q 500 4 549 18 q 396 -10 451 -10 q 291 4 340 -10 q 198 47 242 18 q 128 131 154 76 q 103 258 103 185 l 103 974 l 181 974 l 181 247 q 242 111 181 163 q 394 60 304 60 q 547 111 485 60 q 610 247 610 163 m 543 1014 l 242 1014 l 242 1094 l 543 1094 l 543 1014 z "},"ū":{"ha":672,"x_min":108,"x_max":626,"o":"m 626 0 l 550 0 l 556 71 q 472 7 522 29 q 369 -15 421 -15 q 108 239 108 -15 l 108 696 l 186 696 l 186 229 q 235 97 186 140 q 369 54 285 54 q 549 229 549 54 l 549 696 l 626 696 l 626 0 m 511 747 l 210 747 l 210 828 l 511 828 l 511 747 z "},"Ŭ":{"ha":786,"x_min":103,"x_max":688,"o":"m 610 247 l 610 974 l 688 974 l 688 258 q 662 131 688 185 q 592 47 636 76 q 500 4 549 18 q 396 -10 451 -10 q 291 4 340 -10 q 198 47 242 18 q 128 131 154 76 q 103 258 103 185 l 103 974 l 181 974 l 181 247 q 242 111 181 163 q 394 60 304 60 q 547 111 485 60 q 610 247 610 163 m 551 1169 l 551 1163 q 505 1051 551 1097 q 394 1006 458 1006 q 284 1051 331 1006 q 238 1163 238 1097 l 238 1169 l 300 1169 l 300 1163 q 328 1095 300 1122 q 394 1068 356 1068 q 461 1095 433 1068 q 489 1163 489 1122 l 489 1169 l 551 1169 z "},"ŭ":{"ha":672,"x_min":108,"x_max":626,"o":"m 532 907 l 532 900 q 485 790 532 836 q 375 743 439 743 q 265 790 311 743 q 218 900 218 836 l 218 907 l 281 907 l 281 900 q 308 833 281 861 q 375 806 336 806 q 442 833 414 806 q 469 900 469 861 l 469 907 l 532 907 m 626 0 l 550 0 l 556 71 q 472 7 522 29 q 369 -15 421 -15 q 108 239 108 -15 l 108 696 l 186 696 l 186 229 q 235 97 186 140 q 369 54 285 54 q 549 229 549 54 l 549 696 l 626 696 l 626 0 z "},"Ů":{"ha":786,"x_min":103,"x_max":688,"o":"m 610 247 l 610 974 l 688 974 l 688 258 q 662 131 688 185 q 592 47 636 76 q 500 4 549 18 q 396 -10 451 -10 q 291 4 340 -10 q 198 47 242 18 q 128 131 154 76 q 103 258 103 185 l 103 974 l 181 974 l 181 247 q 242 111 181 163 q 394 60 304 60 q 547 111 485 60 q 610 247 610 163 m 461 1003 q 475 1017 461 1003 q 489 1069 489 1031 q 461 1136 489 1108 q 394 1164 433 1164 q 328 1136 356 1164 q 300 1069 300 1108 q 328 1003 300 1031 q 394 975 356 975 q 461 1003 433 975 m 505 959 q 482 936 505 959 q 394 913 458 913 q 284 959 331 913 q 238 1069 238 1006 q 284 1180 238 1133 q 394 1226 331 1226 q 505 1180 458 1226 q 551 1069 551 1133 q 505 959 551 1006 z "},"ů":{"ha":672,"x_min":108,"x_max":626,"o":"m 626 0 l 550 0 l 556 71 q 472 7 522 29 q 369 -15 421 -15 q 108 239 108 -15 l 108 696 l 186 696 l 186 229 q 235 97 186 140 q 369 54 285 54 q 549 229 549 54 l 549 696 l 626 696 l 626 0 m 442 750 q 456 764 442 750 q 469 817 469 778 q 442 883 469 856 q 375 911 414 911 q 308 883 336 911 q 281 817 281 856 q 308 750 281 778 q 375 722 336 722 q 442 750 414 722 m 485 706 q 462 683 485 706 q 375 660 439 660 q 265 706 311 660 q 218 817 218 753 q 265 927 218 881 q 375 974 311 974 q 485 927 439 974 q 532 817 532 881 q 485 706 532 753 z "},"Ű":{"ha":786,"x_min":103,"x_max":688,"o":"m 610 247 l 610 974 l 688 974 l 688 258 q 662 131 688 185 q 592 47 636 76 q 500 4 549 18 q 396 -10 451 -10 q 291 4 340 -10 q 198 47 242 18 q 128 131 154 76 q 103 258 103 185 l 103 974 l 181 974 l 181 247 q 242 111 181 163 q 394 60 304 60 q 547 111 485 60 q 610 247 610 163 m 496 1015 l 435 1015 l 506 1179 q 550 1211 521 1211 q 597 1179 588 1211 q 599 1161 599 1171 q 592 1143 599 1151 l 496 1015 m 340 1015 l 279 1015 l 350 1179 q 394 1211 365 1211 q 442 1179 432 1211 q 443 1161 443 1171 q 436 1143 443 1151 l 340 1015 z "},"ű":{"ha":672,"x_min":108,"x_max":626,"o":"m 626 0 l 550 0 l 556 71 q 472 7 522 29 q 369 -15 421 -15 q 108 239 108 -15 l 108 696 l 186 696 l 186 229 q 235 97 186 140 q 369 54 285 54 q 549 229 549 54 l 549 696 l 626 696 l 626 0 m 461 754 l 400 754 l 471 918 q 515 950 486 950 q 561 918 553 950 q 564 900 564 910 q 557 882 564 890 l 461 754 m 306 754 l 244 754 l 315 918 q 360 950 331 950 q 406 918 397 950 q 408 900 408 910 q 401 882 408 890 l 306 754 z "},"Ų":{"ha":786,"x_min":103,"x_max":688,"o":"m 454 -174 l 506 -226 q 371 -296 461 -296 q 322 -290 347 -296 q 270 -256 297 -283 q 243 -182 243 -228 q 364 -8 243 -92 q 178 64 253 0 q 103 258 103 128 l 103 974 l 181 974 l 181 247 q 242 111 181 163 q 394 60 304 60 q 547 111 485 60 q 610 247 610 163 l 610 974 l 688 974 l 688 258 q 619 70 688 135 q 449 -6 551 6 q 313 -176 313 -119 q 326 -214 313 -197 q 368 -231 339 -231 q 416 -217 397 -231 q 454 -174 435 -204 z "},"ų":{"ha":668,"x_min":50,"x_max":615,"o":"m 567 0 q 422 -176 422 -121 q 435 -214 422 -197 q 478 -231 449 -231 q 526 -217 507 -231 q 564 -174 544 -204 l 615 -226 q 481 -296 571 -296 q 432 -290 457 -296 q 380 -256 407 -283 q 353 -182 353 -228 q 486 0 353 -87 l 492 0 l 497 71 q 413 7 464 29 q 311 -15 363 -15 q 50 239 50 -15 l 50 696 l 128 696 l 128 229 q 177 97 128 140 q 311 54 226 54 q 490 229 490 54 l 490 696 l 568 696 l 568 0 l 567 0 z "},"Ÿ":{"ha":778,"x_min":83,"x_max":700,"o":"m 554 -10 l 536 42 q 621 211 621 74 l 621 408 q 521 358 583 375 q 401 340 458 340 q 169 413 254 340 q 83 629 83 486 l 83 972 l 161 972 l 161 615 q 228 467 161 518 q 389 417 294 417 q 544 451 483 417 q 621 556 606 486 l 621 972 l 700 972 l 700 217 q 662 58 700 115 q 554 -10 624 0 m 316 1028 q 309 1022 316 1028 q 283 1015 303 1015 q 251 1028 264 1015 q 238 1061 238 1042 q 251 1094 238 1081 q 283 1107 264 1107 q 316 1094 303 1107 q 329 1061 329 1081 q 316 1028 329 1042 m 533 1028 q 526 1022 533 1028 q 500 1015 519 1015 q 467 1028 481 1015 q 454 1061 454 1042 q 467 1094 454 1081 q 500 1107 481 1107 q 533 1094 519 1107 q 546 1061 546 1081 q 533 1028 546 1042 z "},"Ź":{"ha":764,"x_min":43,"x_max":719,"o":"m 719 0 l 43 0 l 43 69 l 613 901 l 61 901 l 61 972 l 711 972 l 711 903 l 142 71 l 719 71 l 719 0 m 344 1090 l 283 1090 l 354 1254 q 399 1286 369 1286 q 444 1254 436 1286 q 447 1236 447 1246 q 440 1218 447 1226 l 344 1090 z "},"ź":{"ha":664,"x_min":108,"x_max":618,"o":"m 618 0 l 108 0 l 108 69 l 490 625 l 121 625 l 121 696 l 589 696 l 589 626 l 204 71 l 618 71 l 618 0 m 372 747 l 311 747 l 382 911 q 426 943 397 943 q 472 911 464 943 q 475 893 475 903 q 468 875 475 883 l 372 747 z "},"Ż":{"ha":764,"x_min":43,"x_max":719,"o":"m 719 0 l 43 0 l 43 69 l 613 901 l 61 901 l 61 972 l 711 972 l 711 903 l 142 71 l 719 71 l 719 0 m 446 1056 q 446 1046 446 1056 q 432 1022 446 1036 q 399 1008 418 1008 q 367 1022 381 1008 q 353 1055 353 1036 q 367 1088 353 1074 q 400 1101 381 1101 q 433 1088 419 1101 q 446 1056 446 1075 z "},"ż":{"ha":664,"x_min":108,"x_max":618,"o":"m 618 0 l 108 0 l 108 69 l 490 625 l 121 625 l 121 696 l 589 696 l 589 626 l 204 71 l 618 71 l 618 0 m 394 757 q 388 750 394 757 q 363 743 381 743 q 330 758 344 743 q 315 790 315 772 q 329 822 315 808 q 362 836 343 836 q 394 822 381 836 q 408 790 408 808 q 394 757 408 771 z "},"Ž":{"ha":764,"x_min":43,"x_max":719,"o":"m 719 0 l 43 0 l 43 69 l 613 901 l 61 901 l 61 972 l 711 972 l 711 903 l 142 71 l 719 71 l 719 0 m 617 1285 l 419 1089 l 214 1285 l 267 1339 l 418 1194 l 564 1339 l 617 1285 z "},"ž":{"ha":664,"x_min":108,"x_max":618,"o":"m 618 0 l 108 0 l 108 69 l 490 625 l 121 625 l 121 696 l 589 696 l 589 626 l 204 71 l 618 71 l 618 0 m 600 1017 l 403 821 l 197 1017 l 250 1071 l 401 926 l 547 1071 l 600 1017 z "},"Ș":{"ha":779,"x_min":51,"x_max":711,"o":"m 51 247 l 131 247 q 205 117 138 174 q 378 60 272 60 q 556 108 483 60 q 628 260 628 156 q 587 369 628 324 q 485 438 546 414 q 352 488 424 461 q 219 542 281 515 q 117 621 158 568 q 76 747 76 674 q 157 915 76 844 q 389 986 238 986 q 592 944 504 986 q 568 871 592 942 q 387 911 489 911 q 221 867 285 911 q 157 743 157 822 q 267 604 157 654 q 374 563 315 582 q 493 519 433 543 q 601 466 553 496 q 681 385 650 436 q 711 267 711 333 q 630 62 711 139 q 388 -15 549 -15 q 141 65 228 -15 q 51 247 54 144 m 340 -256 l 285 -217 q 365 -153 347 -181 l 372 -143 l 358 -139 q 334 -96 333 -121 q 348 -59 335 -71 q 371 -47 361 -47 q 390 -48 381 -47 q 415 -65 400 -49 q 429 -101 429 -81 q 340 -256 429 -182 z "},"ș":{"ha":599,"x_min":50,"x_max":550,"o":"m 50 176 l 124 176 q 186 83 132 114 q 305 51 240 51 q 421 80 369 51 q 472 166 472 108 q 433 256 472 224 q 336 306 393 288 q 221 344 279 324 q 118 404 163 364 q 65 522 65 451 q 122 652 65 592 q 304 713 178 713 q 388 702 349 713 q 443 682 426 692 l 460 672 l 433 608 q 308 644 383 644 q 188 613 233 644 q 143 526 143 581 q 189 444 143 474 q 294 397 235 414 q 411 357 353 379 q 510 289 469 335 q 550 167 550 243 q 488 35 550 90 q 308 -21 426 -21 q 121 36 189 -21 q 50 176 53 93 m 258 -256 l 203 -217 q 283 -153 265 -181 l 290 -143 l 276 -139 q 252 -96 251 -121 q 266 -59 253 -71 q 289 -47 279 -47 q 308 -48 299 -47 q 333 -65 318 -49 q 347 -101 347 -81 q 258 -256 347 -182 z "},"ˆ":{"ha":547,"x_min":64,"x_max":467,"o":"m 414 821 l 268 965 l 117 821 l 64 875 l 269 1071 l 467 875 l 414 821 z "},"ˇ":{"ha":547,"x_min":64,"x_max":467,"o":"m 467 1017 l 269 821 l 64 1017 l 117 1071 l 268 926 l 414 1071 l 467 1017 z "},"˘":{"ha":458,"x_min":64,"x_max":378,"o":"m 378 972 l 378 965 q 332 854 378 900 q 221 808 286 808 q 110 854 156 808 q 64 965 64 900 l 64 972 l 126 972 l 126 965 q 153 898 126 925 q 221 871 181 871 q 288 898 261 871 q 315 965 315 925 l 315 972 l 378 972 z "},"˙":{"ha":93,"x_min":0,"x_max":93,"o":"m 93 940 q 93 930 93 940 q 79 907 93 921 q 47 893 65 893 q 14 908 28 893 q 0 940 0 922 q 14 972 0 958 q 47 986 28 986 q 80 972 67 986 q 93 940 93 958 z "},"˚":{"ha":308,"x_min":-3,"x_max":311,"o":"m 222 853 q 235 867 222 853 q 249 919 249 881 q 222 986 249 958 q 154 1014 194 1014 q 87 986 114 1014 q 60 919 60 958 q 87 853 60 881 q 154 825 114 825 q 222 853 194 825 m 265 809 q 242 786 265 809 q 154 763 219 763 q 43 809 89 763 q -3 919 -3 856 q 43 1030 -3 983 q 154 1076 89 1076 q 265 1030 219 1076 q 311 919 311 983 q 265 809 311 856 z "},"˛":{"ha":308,"x_min":106,"x_max":368,"o":"m 319 4 q 175 -172 175 -117 q 188 -210 175 -193 q 231 -226 201 -226 q 278 -213 260 -226 q 317 -169 297 -200 l 368 -222 q 233 -292 324 -292 q 185 -285 210 -292 q 133 -251 160 -279 q 106 -178 106 -224 q 239 4 106 -83 l 319 4 z "},"˜":{"ha":618,"x_min":108,"x_max":572,"o":"m 440 919 q 538 968 494 919 l 572 914 q 439 840 510 840 q 383 853 414 840 q 317 883 351 867 q 247 899 282 899 q 143 849 190 899 l 108 903 q 247 976 174 976 q 303 964 272 976 q 370 935 335 951 q 440 919 406 919 z "},"˝":{"ha":314,"x_min":-3,"x_max":317,"o":"m 214 789 l 153 789 l 224 953 q 268 985 239 985 q 314 953 306 985 q 317 935 317 944 q 310 917 317 925 l 214 789 m 58 789 l -3 789 l 68 953 q 113 985 83 985 q 158 953 150 985 q 161 935 161 944 q 154 917 161 925 l 58 789 z "},"΅":{"ha":463,"x_min":108,"x_max":417,"o":"m 186 936 q 179 929 186 936 q 154 922 172 922 q 122 936 136 922 q 108 968 108 950 q 122 1000 108 986 q 154 1014 136 1014 q 186 1000 172 1014 q 200 968 200 986 q 186 936 200 950 m 403 936 q 396 929 403 936 q 371 922 389 922 q 339 936 353 922 q 325 968 325 950 q 339 1000 325 986 q 371 1014 353 1014 q 403 1000 389 1014 q 417 968 417 986 q 403 936 417 950 m 292 1015 l 231 1015 l 301 1179 q 346 1211 317 1211 q 392 1179 383 1211 q 394 1161 394 1171 q 388 1143 394 1151 l 292 1015 z "},"Ά":{"ha":856,"x_min":108,"x_max":810,"o":"m 810 0 l 726 0 l 615 340 l 299 340 l 190 0 l 108 0 l 419 972 l 493 972 l 810 0 m 594 417 l 456 851 l 321 417 l 594 417 m 178 789 l 117 789 l 188 953 q 232 985 203 985 q 278 953 269 985 q 281 935 281 944 q 274 917 281 925 l 178 789 z "},"Έ":{"ha":850,"x_min":108,"x_max":804,"o":"m 169 789 l 108 789 l 179 953 q 224 985 194 985 q 269 953 261 985 q 265 917 276 931 l 169 789 m 801 0 l 340 0 l 340 972 l 804 972 l 804 900 l 418 900 l 418 574 l 683 574 l 657 497 l 418 497 l 418 69 l 801 69 l 801 0 z "},"Ή":{"ha":986,"x_min":108,"x_max":940,"o":"m 169 789 l 108 789 l 179 953 q 224 985 194 985 q 269 953 261 985 q 265 917 276 931 l 169 789 m 940 0 l 863 0 l 863 497 l 421 497 l 421 0 l 343 0 l 343 972 l 421 972 l 421 574 l 863 574 l 863 972 l 940 972 l 940 0 z "},"Ί":{"ha":542,"x_min":108,"x_max":496,"o":"m 496 0 l 418 0 l 418 901 l 325 904 l 325 972 l 496 972 l 496 0 m 169 789 l 108 789 l 179 953 q 224 985 194 985 q 269 953 261 985 q 272 935 272 944 q 265 917 272 925 l 169 789 z "},"Ό":{"ha":900,"x_min":108,"x_max":854,"o":"m 854 703 l 854 257 q 769 51 854 117 q 564 -15 683 -15 q 358 51 444 -15 q 271 257 271 117 l 271 704 q 349 921 271 847 q 565 994 428 994 q 778 917 703 994 q 854 703 854 839 m 778 260 l 778 717 q 719 869 778 818 q 563 921 660 921 q 407 869 465 921 q 349 717 349 818 l 349 258 q 409 109 349 160 q 563 58 469 58 q 717 108 657 58 q 778 260 778 157 m 169 789 l 108 789 l 179 953 q 224 985 194 985 q 269 953 261 985 q 272 935 272 944 q 265 917 272 925 l 169 789 z "},"Ύ":{"ha":992,"x_min":108,"x_max":946,"o":"m 169 789 l 108 789 l 179 953 q 224 985 194 985 q 269 953 261 985 q 265 917 276 931 l 169 789 m 800 -10 l 782 42 q 867 211 867 74 l 867 408 q 767 358 829 375 q 647 340 704 340 q 415 413 500 340 q 329 629 329 486 l 329 972 l 407 972 l 407 615 q 474 467 407 518 q 635 417 540 417 q 790 451 729 417 q 867 556 851 486 l 867 972 l 946 972 l 946 217 q 908 58 946 115 q 800 -10 869 0 z "},"Ώ":{"ha":999,"x_min":108,"x_max":953,"o":"m 953 0 l 636 0 l 636 71 q 779 114 742 92 q 857 272 857 160 l 857 713 q 806 858 857 806 q 674 911 756 911 l 518 911 q 385 858 436 911 q 335 713 335 806 l 335 272 q 379 139 335 189 q 542 74 417 96 q 556 71 551 72 l 556 0 l 239 0 l 263 71 l 353 71 q 257 272 257 131 l 257 699 q 322 904 257 826 q 518 982 388 982 l 674 982 q 869 904 804 982 q 935 699 935 826 l 935 272 q 833 71 935 133 l 929 71 l 953 0 m 169 789 l 108 789 l 179 953 q 224 985 194 985 q 269 953 261 985 q 272 935 272 944 q 265 917 272 925 l 169 789 z "},"ΐ":{"ha":463,"x_min":108,"x_max":417,"o":"m 303 0 l 225 0 l 225 696 l 303 696 l 303 0 m 296 804 l 235 804 l 306 968 q 350 1000 321 1000 q 397 968 388 1000 q 392 932 403 946 l 296 804 m 186 765 q 179 758 186 765 q 154 751 172 751 q 122 765 136 751 q 108 797 108 778 q 122 830 108 817 q 154 843 136 843 q 186 830 172 843 q 200 797 200 817 q 186 765 200 778 m 403 765 q 396 758 403 765 q 371 751 389 751 q 339 765 353 751 q 325 797 325 778 q 339 830 325 817 q 371 843 353 843 q 403 830 389 843 q 417 797 417 817 q 403 765 417 778 z "},"Α":{"ha":726,"x_min":17,"x_max":718,"o":"m 718 0 l 635 0 l 524 340 l 207 340 l 99 0 l 17 0 l 328 972 l 401 972 l 718 0 m 503 417 l 364 851 l 229 417 l 503 417 z "},"Β":{"ha":756,"x_min":108,"x_max":710,"o":"m 428 0 l 108 0 l 108 972 l 415 972 q 594 914 529 972 q 660 733 660 856 q 568 547 660 610 q 567 544 567 546 l 567 543 q 669 453 628 515 q 710 290 710 390 q 653 97 710 179 q 566 26 624 53 q 428 0 508 0 m 186 574 l 413 574 q 535 615 490 574 q 579 736 579 657 q 404 899 579 899 l 186 899 l 186 574 m 186 74 l 425 74 q 626 296 626 74 q 574 445 626 393 q 449 497 521 497 l 186 497 l 186 74 z "},"Γ":{"ha":618,"x_min":108,"x_max":572,"o":"m 186 0 l 108 0 l 108 972 l 572 972 l 572 899 l 186 899 l 186 0 z "},"Δ":{"ha":726,"x_min":17,"x_max":718,"o":"m 718 0 l 17 0 l 328 972 l 401 972 l 718 0 m 613 69 l 364 851 l 119 69 l 613 69 z "},"Ε":{"ha":618,"x_min":108,"x_max":572,"o":"m 569 0 l 108 0 l 108 972 l 572 972 l 572 900 l 186 900 l 186 574 l 451 574 l 425 497 l 186 497 l 186 69 l 569 69 l 569 0 z "},"Ζ":{"ha":831,"x_min":108,"x_max":785,"o":"m 785 0 l 108 0 l 108 69 l 678 901 l 126 901 l 126 972 l 776 972 l 776 903 l 207 71 l 785 71 l 785 0 z "},"Η":{"ha":807,"x_min":111,"x_max":708,"o":"m 708 0 l 631 0 l 631 497 l 189 497 l 189 0 l 111 0 l 111 972 l 189 972 l 189 574 l 631 574 l 631 972 l 708 972 l 708 0 z "},"Θ":{"ha":826,"x_min":197,"x_max":781,"o":"m 781 703 l 781 257 q 695 51 781 117 q 490 -15 610 -15 q 284 51 371 -15 q 197 257 197 117 l 197 704 q 276 921 197 847 q 492 994 354 994 q 705 917 629 994 q 781 703 781 839 m 275 717 l 275 497 l 704 497 l 704 717 q 645 869 704 818 q 489 921 586 921 q 333 869 392 921 q 275 717 275 818 m 704 260 l 704 421 l 275 421 l 275 258 q 335 109 275 160 q 490 58 396 58 q 644 108 583 58 q 704 260 704 157 z "},"Ι":{"ha":381,"x_min":111,"x_max":282,"o":"m 282 0 l 204 0 l 204 901 l 111 904 l 111 972 l 282 972 l 282 0 z "},"Κ":{"ha":706,"x_min":108,"x_max":660,"o":"m 660 0 l 567 0 l 253 479 l 186 374 l 186 0 l 108 0 l 108 974 l 186 974 l 186 510 l 497 974 l 588 974 l 303 553 l 660 0 z "},"Λ":{"ha":726,"x_min":17,"x_max":718,"o":"m 718 0 l 635 0 l 364 851 l 99 0 l 17 0 l 328 972 l 401 972 l 718 0 z "},"Μ":{"ha":954,"x_min":111,"x_max":856,"o":"m 856 0 l 778 0 l 778 743 l 525 0 l 440 0 l 189 743 l 189 0 l 111 0 l 111 972 l 189 972 l 482 119 l 778 972 l 856 972 l 856 0 z "},"Ν":{"ha":893,"x_min":111,"x_max":794,"o":"m 794 0 l 717 0 l 189 829 l 189 0 l 111 0 l 111 972 l 189 972 l 717 143 l 717 972 l 794 972 l 794 0 z "},"Ξ":{"ha":861,"x_min":108,"x_max":815,"o":"m 651 497 l 285 497 l 285 574 l 651 574 l 651 497 m 732 901 l 310 901 q 168 804 201 901 l 108 826 q 179 939 131 904 q 310 974 228 974 l 761 974 l 732 901 m 614 0 l 163 0 l 192 72 l 614 72 q 756 169 722 72 l 815 147 q 744 35 793 69 q 614 0 696 0 z "},"Ο":{"ha":754,"x_min":86,"x_max":669,"o":"m 669 703 l 669 257 q 584 51 669 117 q 379 -15 499 -15 q 173 51 260 -15 q 86 257 86 117 l 86 704 q 165 921 86 847 q 381 994 243 994 q 594 917 518 994 q 669 703 669 839 m 593 260 l 593 717 q 534 869 593 818 q 378 921 475 921 q 222 869 281 921 q 164 717 164 818 l 164 258 q 224 109 164 160 q 378 58 285 58 q 533 108 472 58 q 593 260 593 157 z "},"Π":{"ha":807,"x_min":111,"x_max":708,"o":"m 708 0 l 631 0 l 631 896 l 189 896 l 189 0 l 111 0 l 111 972 l 708 972 l 708 0 z "},"Ρ":{"ha":757,"x_min":108,"x_max":711,"o":"m 186 417 l 461 417 q 546 437 511 417 q 597 482 581 457 q 622 550 614 507 q 633 675 633 599 q 585 843 633 788 q 456 899 538 899 l 186 899 l 186 417 m 186 0 l 108 0 l 108 972 l 450 972 q 647 892 582 972 q 711 675 711 811 q 709 592 711 626 q 693 506 707 558 q 654 422 679 454 q 579 365 629 389 q 460 340 529 340 l 186 340 l 186 0 z "},"Σ":{"ha":804,"x_min":108,"x_max":758,"o":"m 557 0 l 108 0 l 422 533 l 131 975 l 725 975 l 700 901 l 271 901 l 515 538 l 238 71 l 551 71 q 643 97 604 71 q 699 169 682 122 l 758 147 q 688 35 736 69 q 557 0 639 0 z "},"Τ":{"ha":713,"x_min":108,"x_max":667,"o":"m 422 0 l 344 0 l 344 903 l 108 903 l 108 972 l 667 972 l 667 903 l 422 903 l 422 0 z "},"Υ":{"ha":772,"x_min":83,"x_max":700,"o":"m 554 -10 l 536 42 q 621 211 621 74 l 621 408 q 521 358 583 375 q 401 340 458 340 q 169 413 254 340 q 83 629 83 486 l 83 972 l 161 972 l 161 615 q 228 467 161 518 q 389 417 294 417 q 544 451 483 417 q 621 556 606 486 l 621 972 l 700 972 l 700 217 q 662 58 700 115 q 554 -10 624 0 z "},"Φ":{"ha":886,"x_min":108,"x_max":840,"o":"m 511 -49 l 431 -31 l 431 42 l 369 42 q 173 114 238 42 q 108 313 108 186 l 108 718 q 269 981 108 929 l 311 918 q 186 718 186 886 l 186 299 q 236 160 186 207 q 369 113 286 113 l 431 113 l 431 840 q 475 949 435 910 q 581 988 515 988 q 771 912 701 988 q 840 710 840 836 l 840 313 q 776 114 840 186 q 579 42 711 42 l 511 42 l 511 -49 m 763 299 l 763 724 q 709 866 763 818 q 592 914 656 914 q 511 828 511 914 l 511 113 l 579 113 q 713 160 663 113 q 763 299 763 207 z "},"Χ":{"ha":858,"x_min":108,"x_max":813,"o":"m 813 0 l 717 0 l 461 408 l 204 0 l 108 0 l 415 489 l 135 972 l 222 972 l 461 564 l 703 972 l 790 972 l 508 489 l 813 0 z "},"Ψ":{"ha":878,"x_min":85,"x_max":817,"o":"m 488 0 l 408 0 l 407 294 l 346 294 q 149 366 214 294 q 85 564 85 438 l 85 972 l 163 972 l 163 550 q 213 411 163 458 q 346 364 263 364 l 407 364 l 407 972 l 488 972 l 488 364 l 556 364 q 689 411 639 364 q 739 550 739 458 l 739 783 q 729 876 739 839 q 710 925 719 913 q 676 963 700 938 l 739 985 q 794 920 776 961 q 815 850 813 879 q 817 763 817 821 l 817 564 q 752 366 817 438 q 556 294 688 294 l 488 294 l 488 0 z "},"Ϊ":{"ha":518,"x_min":111,"x_max":419,"o":"m 189 1028 q 182 1022 189 1028 q 157 1015 175 1015 q 125 1028 139 1015 q 111 1061 111 1042 q 125 1094 111 1081 q 157 1107 139 1107 q 189 1094 175 1107 q 203 1061 203 1081 q 189 1028 203 1042 m 406 1028 q 399 1022 406 1028 q 374 1015 392 1015 q 342 1028 356 1015 q 328 1061 328 1042 q 342 1094 328 1081 q 374 1107 356 1107 q 406 1094 392 1107 q 419 1061 419 1081 q 406 1028 419 1042 m 306 0 l 228 0 l 228 901 l 135 904 l 135 972 l 306 972 l 306 0 z "},"Ϋ":{"ha":704,"x_min":3,"x_max":658,"o":"m 247 1026 q 240 1019 247 1026 q 214 1013 233 1013 q 181 1026 194 1013 q 168 1058 168 1039 q 181 1091 168 1078 q 214 1104 194 1104 q 247 1091 233 1104 q 260 1058 260 1078 q 247 1026 260 1039 m 463 1026 q 457 1019 463 1026 q 431 1013 450 1013 q 398 1026 411 1013 q 385 1058 385 1039 q 398 1091 385 1078 q 431 1104 411 1104 q 463 1091 450 1104 q 476 1058 476 1078 q 463 1026 476 1039 m 369 0 l 292 0 l 292 472 l 3 972 l 90 972 l 329 564 l 571 972 l 658 972 l 369 475 l 369 0 z "},"ά":{"ha":703,"x_min":108,"x_max":657,"o":"m 314 706 q 538 649 425 706 l 564 706 l 625 675 q 615 540 615 585 l 615 107 q 657 49 624 68 l 619 3 q 592 5 611 3 q 536 3 574 7 q 377 -7 433 -7 q 292 0 321 -7 q 222 23 263 7 q 160 65 181 39 q 108 235 108 131 l 108 492 q 138 619 108 569 q 213 688 168 669 q 314 706 258 706 m 538 576 q 310 633 393 633 q 258 626 285 633 q 208 583 232 618 q 185 488 185 549 l 185 225 q 350 64 185 68 q 401 63 360 63 q 538 75 442 63 l 538 576 m 390 747 l 329 747 l 400 911 q 444 943 415 943 q 492 911 482 943 q 493 893 493 903 q 486 875 493 883 l 390 747 z "},"έ":{"ha":633,"x_min":108,"x_max":588,"o":"m 374 747 l 313 747 l 383 911 q 428 943 399 943 q 475 911 465 943 q 469 875 481 889 l 374 747 m 490 618 q 363 636 431 636 l 319 635 q 246 606 275 631 q 217 537 217 581 q 244 456 217 493 q 324 418 272 418 l 489 418 l 463 343 l 324 343 q 222 307 258 343 q 186 203 186 271 q 229 97 186 136 q 358 57 272 57 q 538 92 450 57 l 565 103 l 588 32 q 362 -15 479 -15 q 181 42 244 -15 q 108 210 108 106 q 213 388 108 344 q 157 449 178 406 q 136 521 136 493 q 139 564 136 549 q 209 672 150 635 q 340 710 268 710 q 490 689 413 710 l 490 618 z "},"ή":{"ha":667,"x_min":108,"x_max":621,"o":"m 407 747 l 346 747 l 417 911 q 461 943 432 943 q 508 911 499 943 q 503 875 514 889 l 407 747 m 181 649 q 379 708 251 708 q 503 682 451 708 q 621 481 621 628 l 621 -292 l 544 -258 l 544 476 q 506 589 544 549 q 365 638 458 638 q 186 590 271 638 l 186 0 l 108 0 l 108 696 l 186 696 l 181 649 z "},"ί":{"ha":332,"x_min":108,"x_max":286,"o":"m 183 747 l 122 747 l 193 911 q 238 943 208 943 q 283 911 275 943 q 286 893 286 903 q 279 875 286 883 l 183 747 m 186 0 l 108 0 l 108 696 l 186 696 l 186 0 z "},"ΰ":{"ha":682,"x_min":108,"x_max":636,"o":"m 286 765 q 279 758 286 765 q 254 751 272 751 q 222 765 236 751 q 208 797 208 778 q 222 830 208 817 q 254 843 236 843 q 286 830 272 843 q 300 797 300 817 q 286 765 300 778 m 503 765 q 496 758 503 765 q 471 751 489 751 q 439 765 453 751 q 425 797 425 778 q 439 830 425 817 q 471 843 453 843 q 503 830 489 843 q 517 797 517 817 q 503 765 517 778 m 396 804 l 335 804 l 406 968 q 450 1000 421 1000 q 497 968 488 1000 q 492 932 503 946 l 396 804 m 558 229 l 558 696 l 636 696 l 636 239 q 372 -14 636 -14 q 108 239 108 -14 l 108 696 l 186 696 l 186 229 q 235 98 186 140 q 369 56 285 56 q 558 229 558 56 z "},"α":{"ha":703,"x_min":108,"x_max":657,"o":"m 314 706 q 538 649 425 706 l 564 706 l 625 675 q 615 540 615 585 l 615 107 q 657 49 624 68 l 619 3 q 592 5 611 3 q 536 3 574 7 q 377 -7 433 -7 q 292 0 321 -7 q 222 23 263 7 q 160 65 181 39 q 108 235 108 131 l 108 492 q 138 619 108 569 q 213 688 168 669 q 314 706 258 706 m 538 576 q 310 633 393 633 q 258 626 285 633 q 208 583 232 618 q 185 488 185 549 l 185 225 q 350 64 185 68 q 401 63 360 63 q 538 75 442 63 l 538 576 z "},"β":{"ha":668,"x_min":108,"x_max":622,"o":"m 435 686 q 569 611 517 671 q 622 458 622 551 l 622 203 q 581 62 622 115 q 471 -9 540 8 q 333 -26 401 -26 q 186 -12 265 -26 l 186 -224 l 108 -224 l 108 746 q 156 913 108 853 q 303 974 204 974 q 406 942 363 974 q 479 809 479 889 q 435 686 479 729 m 371 615 q 188 574 267 615 l 188 56 q 332 42 269 42 q 546 196 546 42 l 546 454 q 507 567 546 526 q 411 614 468 608 q 371 615 390 615 m 188 751 l 188 643 q 343 706 257 679 q 400 792 400 722 q 376 862 400 825 q 303 899 353 899 q 188 751 188 899 z "},"γ":{"ha":665,"x_min":29,"x_max":672,"o":"m 308 -275 q 268 -176 268 -240 q 281 -108 268 -143 l 311 -7 q 259 33 274 19 q 222 83 244 46 q 179 179 199 119 l 29 696 l 108 696 l 256 194 q 292 101 274 128 q 335 61 311 74 l 479 539 q 531 655 501 614 q 621 710 560 696 l 672 667 q 651 657 667 664 q 629 647 635 650 q 610 632 624 643 q 589 608 597 621 q 550 522 565 569 l 376 -58 q 346 -180 346 -149 q 361 -233 346 -211 l 308 -275 z "},"δ":{"ha":672,"x_min":108,"x_max":626,"o":"m 299 700 q 243 819 243 753 q 284 932 243 885 q 407 979 325 979 l 469 979 l 440 908 l 394 908 q 341 883 357 908 q 325 839 325 858 q 388 728 325 769 q 581 561 539 628 q 626 400 626 488 l 626 256 q 369 -14 626 -14 q 173 58 238 -14 q 108 256 108 129 l 108 431 q 157 612 108 542 q 299 700 206 682 m 549 242 l 549 418 q 506 537 549 469 q 376 644 464 604 q 186 431 186 628 l 186 242 q 236 103 186 150 q 369 56 286 56 q 549 242 549 56 z "},"ε":{"ha":633,"x_min":108,"x_max":588,"o":"m 490 618 q 363 636 431 636 l 319 635 q 246 606 275 631 q 217 537 217 581 q 244 456 217 493 q 324 418 272 418 l 489 418 l 463 343 l 324 343 q 222 307 258 343 q 186 203 186 271 q 229 97 186 136 q 358 57 272 57 q 538 92 450 57 l 565 103 l 588 32 q 362 -15 479 -15 q 181 42 244 -15 q 108 210 108 106 q 213 388 108 344 q 157 449 178 406 q 136 521 136 493 q 139 564 136 549 q 209 672 150 635 q 340 710 268 710 q 490 689 413 710 l 490 618 z "},"ζ":{"ha":649,"x_min":108,"x_max":603,"o":"m 565 -254 l 488 -290 l 488 11 q 358 -3 425 -3 q 231 31 290 -3 q 108 246 108 97 q 158 467 108 363 q 494 907 264 686 l 203 907 l 203 972 l 581 972 l 603 904 q 424 728 521 840 q 203 357 250 528 q 188 272 188 307 q 190 218 188 238 q 385 72 208 72 q 565 100 461 72 l 565 -254 z "},"η":{"ha":667,"x_min":108,"x_max":621,"o":"m 181 649 q 379 708 251 708 q 503 682 451 708 q 621 481 621 628 l 621 -292 l 544 -258 l 544 476 q 506 589 544 549 q 365 638 458 638 q 186 590 271 638 l 186 0 l 108 0 l 108 696 l 186 696 l 181 649 z "},"θ":{"ha":699,"x_min":86,"x_max":614,"o":"m 614 701 l 614 265 q 545 67 614 142 q 349 -8 476 -8 q 154 67 222 -7 q 86 265 86 142 l 86 474 q 160 608 89 563 q 113 781 113 700 q 178 928 113 871 q 347 986 243 986 q 547 908 479 983 q 614 701 614 833 m 536 257 l 536 628 q 485 629 521 629 q 374 614 450 629 q 231 560 299 599 q 164 474 164 521 l 164 257 q 203 135 164 185 q 350 67 254 67 l 406 72 q 498 135 460 85 q 536 257 536 185 m 229 643 q 490 704 356 704 q 536 703 513 704 q 482 864 536 815 q 349 913 428 913 q 232 871 269 913 q 194 774 194 829 q 229 643 194 711 z "},"ι":{"ha":221,"x_min":92,"x_max":169,"o":"m 169 0 l 92 0 l 92 696 l 169 696 l 169 0 z "},"κ":{"ha":668,"x_min":108,"x_max":622,"o":"m 619 65 l 622 -1 q 532 24 574 -1 q 469 75 490 50 q 408 153 447 100 l 263 353 l 186 275 l 186 0 l 108 0 l 108 711 l 186 693 l 186 381 l 475 696 l 578 696 l 317 411 l 493 163 q 619 65 564 68 z "},"λ":{"ha":797,"x_min":108,"x_max":751,"o":"m 751 29 l 700 -14 q 610 41 639 0 q 558 157 581 82 l 414 635 q 353 560 374 614 q 335 501 346 542 l 188 0 l 108 0 l 258 517 q 301 613 278 576 q 338 663 324 650 q 390 703 353 676 l 358 801 q 228 913 322 907 l 228 972 q 235 972 231 972 q 359 939 314 972 q 432 824 404 906 l 629 174 q 708 50 661 79 q 730 39 714 46 q 751 29 746 32 z "},"μ":{"ha":719,"x_min":108,"x_max":674,"o":"m 674 38 l 636 -8 q 575 35 600 -8 q 419 -17 524 -17 q 211 40 314 -17 q 188 53 190 51 l 188 -292 l 108 -279 l 108 696 l 188 696 l 188 146 q 282 86 221 113 q 414 56 351 56 q 557 213 557 56 l 557 692 l 636 708 l 636 96 q 674 38 640 57 z "},"ν":{"ha":689,"x_min":108,"x_max":643,"o":"m 428 0 l 321 0 l 108 696 l 190 696 l 375 81 l 561 696 l 643 696 l 428 0 z "},"ξ":{"ha":574,"x_min":108,"x_max":528,"o":"m 375 69 q 528 94 450 69 l 528 -267 l 453 -303 l 453 3 q 364 -6 406 -6 q 158 75 229 -6 q 108 228 108 132 l 108 483 q 167 643 108 581 q 307 714 226 706 q 254 822 254 758 q 294 935 254 886 q 417 983 335 983 l 479 983 l 450 913 l 404 913 q 347 881 367 913 q 335 840 335 860 q 397 728 335 769 q 497 686 426 710 l 475 625 q 343 642 407 642 q 232 600 279 642 q 185 479 185 558 l 185 221 q 375 69 185 69 z "},"ο":{"ha":672,"x_min":108,"x_max":626,"o":"m 626 439 l 626 256 q 563 63 626 139 q 369 -14 499 -14 q 174 63 240 -14 q 108 256 108 140 l 108 439 q 176 641 108 571 q 367 711 243 711 q 558 638 490 711 q 626 439 626 565 m 549 242 l 549 439 q 369 640 549 640 q 186 439 186 640 l 186 242 q 235 107 186 158 q 370 56 285 56 q 502 106 456 56 q 549 242 549 157 z "},"π":{"ha":710,"x_min":92,"x_max":658,"o":"m 658 38 l 621 -8 q 613 -6 618 -7 q 592 4 607 -4 q 567 25 578 13 q 539 110 539 57 l 540 631 l 169 631 l 169 0 l 92 0 l 92 696 l 618 696 l 618 96 q 658 38 625 57 z "},"ρ":{"ha":672,"x_min":108,"x_max":626,"o":"m 183 -271 l 108 -293 l 108 438 q 176 633 108 561 q 373 704 244 704 q 564 630 501 704 q 626 426 626 556 l 626 239 q 562 51 626 117 q 371 -14 497 -14 q 183 61 244 -14 l 183 -271 m 549 229 l 549 435 q 367 632 549 632 q 238 588 290 632 q 186 436 186 543 l 186 229 q 236 99 186 142 q 369 56 286 56 q 501 98 453 56 q 549 229 549 140 z "},"ς":{"ha":568,"x_min":108,"x_max":522,"o":"m 496 -204 l 436 -167 q 450 -126 450 -147 q 389 -12 450 -51 q 221 100 240 81 q 180 140 201 119 q 149 177 158 160 q 128 217 140 194 q 108 315 108 257 l 108 510 q 166 642 108 583 q 347 701 224 701 q 431 692 392 701 q 486 674 469 683 l 503 664 l 476 600 q 357 633 431 633 q 235 601 283 633 q 186 514 186 568 l 186 342 q 233 194 186 250 q 419 51 281 138 q 497 -26 471 19 q 522 -119 522 -72 q 496 -204 522 -165 z "},"σ":{"ha":739,"x_min":108,"x_max":693,"o":"m 626 431 l 626 243 q 369 -26 626 -26 q 173 45 238 -26 q 108 243 108 117 l 108 492 q 134 605 108 558 q 201 672 160 651 q 344 707 269 707 l 397 701 q 476 694 443 694 q 532 699 508 694 q 636 754 586 708 l 693 733 q 561 628 644 649 q 608 554 589 608 q 626 431 626 500 m 474 622 q 325 636 385 636 q 226 600 265 636 q 186 488 186 564 l 186 229 q 236 90 186 138 q 369 43 286 43 q 549 229 549 43 l 549 431 q 531 538 549 490 q 496 604 513 585 q 474 622 479 624 z "},"τ":{"ha":572,"x_min":108,"x_max":526,"o":"m 444 42 l 422 -18 q 310 53 344 4 q 275 183 275 101 l 275 621 l 108 621 l 108 694 l 526 694 l 526 621 l 353 621 l 353 183 q 444 42 353 72 z "},"υ":{"ha":671,"x_min":92,"x_max":619,"o":"m 542 229 l 542 696 l 619 696 l 619 239 q 356 -14 619 -14 q 92 239 92 -14 l 92 696 l 169 696 l 169 229 q 219 98 169 140 q 353 56 268 56 q 542 229 542 56 z "},"φ":{"ha":886,"x_min":108,"x_max":840,"o":"m 511 -300 l 432 -282 l 431 -7 l 369 -7 q 173 65 238 -7 q 108 263 108 136 l 108 436 q 269 699 108 647 l 311 636 q 186 436 186 604 l 186 249 q 236 110 186 157 q 369 63 286 63 l 431 63 l 431 557 q 475 665 435 626 q 581 704 515 704 q 771 628 701 704 q 840 426 840 553 l 840 263 q 776 65 840 136 q 579 -7 711 -7 l 511 -7 l 511 -300 m 763 249 l 763 440 q 709 583 763 535 q 592 631 656 631 q 511 544 511 631 l 511 63 l 579 63 q 713 110 663 63 q 763 249 763 157 z "},"χ":{"ha":801,"x_min":108,"x_max":756,"o":"m 756 -239 l 717 -294 q 714 -294 715 -294 q 533 -161 601 -294 l 392 128 l 182 -283 l 108 -256 l 349 215 l 115 696 l 203 696 l 393 301 l 594 696 l 682 696 l 435 213 l 603 -133 q 665 -212 632 -194 q 722 -233 696 -229 q 756 -239 749 -237 z "},"ψ":{"ha":888,"x_min":108,"x_max":840,"o":"m 511 -304 l 431 -286 l 431 -7 l 369 -7 q 173 65 238 -7 q 108 263 108 136 l 108 694 l 186 694 l 186 249 q 236 110 186 157 q 369 63 286 63 l 431 63 l 431 694 l 511 694 l 511 63 l 579 63 q 713 110 663 63 q 763 249 763 157 l 763 501 q 753 594 763 557 q 733 643 743 631 q 700 681 724 656 l 763 703 q 818 638 800 679 q 838 568 836 597 q 840 481 840 539 l 840 263 q 776 65 840 136 q 579 -7 711 -7 l 511 -7 l 511 -304 z "},"ω":{"ha":882,"x_min":92,"x_max":831,"o":"m 753 247 l 753 454 q 638 633 753 599 l 682 694 q 831 440 831 639 l 831 261 q 607 -17 831 -17 q 461 57 510 -17 q 315 -17 410 -17 q 92 261 92 -17 l 92 440 q 240 694 92 639 l 285 633 q 169 454 169 599 l 169 247 q 210 103 169 150 q 310 57 251 57 q 393 97 368 57 q 421 219 418 138 l 421 415 l 501 415 l 501 219 q 528 97 503 138 q 612 57 553 57 q 712 103 671 57 q 753 247 753 150 z "},"ϊ":{"ha":383,"x_min":29,"x_max":338,"o":"m 224 0 l 146 0 l 146 696 l 224 696 l 224 0 m 108 762 q 101 755 108 762 q 75 749 94 749 q 42 762 56 749 q 29 794 29 775 q 42 827 29 814 q 75 840 56 840 q 108 827 94 840 q 121 794 121 814 q 108 762 121 775 m 324 762 q 318 755 324 762 q 292 749 311 749 q 259 762 272 749 q 246 794 246 775 q 259 827 246 814 q 292 840 272 840 q 324 827 311 840 q 338 794 338 814 q 324 762 338 775 z "},"ϋ":{"ha":682,"x_min":108,"x_max":636,"o":"m 297 762 q 290 755 297 762 q 265 749 283 749 q 233 762 247 749 q 219 794 219 775 q 233 827 219 814 q 265 840 247 840 q 297 827 283 840 q 311 794 311 814 q 297 762 311 775 m 514 762 q 507 755 514 762 q 482 749 500 749 q 450 762 464 749 q 436 794 436 775 q 450 827 436 814 q 482 840 464 840 q 514 827 500 840 q 528 794 528 814 q 514 762 528 775 m 558 229 l 558 696 l 636 696 l 636 239 q 372 -14 636 -14 q 108 239 108 -14 l 108 696 l 186 696 l 186 229 q 235 98 186 140 q 369 56 285 56 q 558 229 558 56 z "},"ό":{"ha":672,"x_min":108,"x_max":626,"o":"m 393 747 l 332 747 l 403 911 q 447 943 418 943 q 494 911 485 943 q 489 875 500 889 l 393 747 m 626 439 l 626 256 q 563 63 626 139 q 369 -14 499 -14 q 174 63 240 -14 q 108 256 108 140 l 108 439 q 176 641 108 571 q 367 711 243 711 q 558 638 490 711 q 626 439 626 565 m 549 242 l 549 439 q 369 640 549 640 q 186 439 186 640 l 186 242 q 235 107 186 158 q 370 56 285 56 q 502 106 456 56 q 549 242 549 157 z "},"ύ":{"ha":682,"x_min":108,"x_max":636,"o":"m 407 747 l 346 747 l 417 911 q 461 943 432 943 q 508 911 499 943 q 503 875 514 889 l 407 747 m 558 229 l 558 696 l 636 696 l 636 239 q 372 -14 636 -14 q 108 239 108 -14 l 108 696 l 186 696 l 186 229 q 235 98 186 140 q 369 56 285 56 q 558 229 558 56 z "},"ώ":{"ha":893,"x_min":108,"x_max":847,"o":"m 510 747 l 449 747 l 519 911 q 564 943 535 943 q 611 911 601 943 q 606 875 617 889 l 510 747 m 769 247 l 769 454 q 654 633 769 599 l 699 694 q 847 440 847 639 l 847 261 q 624 -17 847 -17 q 478 57 526 -17 q 332 -17 426 -17 q 108 261 108 -17 l 108 440 q 257 694 108 639 l 301 633 q 186 454 186 599 l 186 247 q 227 103 186 150 q 326 57 268 57 q 410 97 385 57 q 438 219 435 138 l 438 415 l 518 415 l 518 219 q 544 97 519 138 q 628 57 569 57 q 728 103 688 57 q 769 247 769 150 z "},"‘":{"ha":140,"x_min":-1,"x_max":143,"o":"m 56 876 l 69 872 q 94 829 94 854 q 80 792 93 804 q 57 781 67 781 q 38 781 47 781 q 13 798 28 782 q -1 835 -1 814 q 88 989 -1 915 l 143 950 q 63 886 81 914 l 56 876 z "},"’":{"ha":140,"x_min":-3,"x_max":142,"o":"m 53 778 l -3 817 q 78 881 60 853 l 85 890 l 71 894 q 47 938 46 913 q 60 974 47 963 q 83 986 74 986 q 103 985 93 986 q 127 969 113 985 q 142 932 142 953 q 53 778 142 851 z "},"‚":{"ha":221,"x_min":15,"x_max":160,"o":"m 71 -117 l 15 -78 q 96 -14 78 -42 l 103 -4 l 89 0 q 65 43 64 18 q 78 80 65 68 q 101 92 92 92 q 121 91 111 92 q 145 74 131 90 q 160 38 160 58 q 71 -117 160 -43 z "},"“":{"ha":350,"x_min":-1,"x_max":353,"o":"m 56 882 l 69 878 q 94 835 94 860 q 80 798 93 810 q 57 786 67 786 q 38 787 47 786 q 13 803 28 788 q -1 840 -1 819 q 88 994 -1 921 l 143 956 q 63 892 81 919 l 56 882 m 265 882 l 279 878 q 303 835 304 860 q 290 798 303 810 q 267 786 276 786 q 247 787 257 786 q 223 803 238 788 q 208 840 208 819 q 297 994 208 921 l 353 956 q 272 892 290 919 l 265 882 z "},"”":{"ha":350,"x_min":-3,"x_max":351,"o":"m 53 778 l -3 817 q 78 881 60 853 l 85 890 l 71 894 q 47 938 46 913 q 60 974 47 963 q 83 986 74 986 q 103 985 93 986 q 127 969 113 985 q 142 932 142 953 q 53 778 142 851 m 263 778 l 207 817 q 288 881 269 853 l 294 890 l 281 894 q 256 938 256 913 q 270 974 257 963 q 293 986 283 986 q 313 985 303 986 q 337 969 322 985 q 351 932 351 953 q 263 778 351 851 z "},"„":{"ha":431,"x_min":15,"x_max":369,"o":"m 71 -114 l 15 -75 q 96 -11 78 -39 l 103 -1 l 89 3 q 65 46 64 21 q 78 83 65 71 q 101 94 92 94 q 121 94 111 94 q 145 77 131 93 q 160 40 160 61 q 71 -114 160 -40 m 281 -114 l 225 -75 q 306 -11 283 -42 l 313 -1 l 299 3 q 274 46 274 21 q 288 83 275 71 q 311 94 301 94 q 331 94 321 94 q 355 77 340 93 q 369 40 369 61 q 281 -114 369 -40 z "},"•":{"ha":650,"x_min":108,"x_max":604,"o":"m 531 292 q 495 256 531 292 q 356 219 458 219 q 181 292 253 219 q 108 468 108 365 q 181 643 108 571 q 356 715 253 715 q 531 643 458 715 q 604 468 604 571 q 531 292 604 365 z "},"…":{"ha":663,"x_min":15,"x_max":603,"o":"m 94 14 q 87 7 94 14 q 61 0 81 0 q 28 14 42 0 q 15 46 15 28 q 28 78 15 64 q 61 92 42 92 q 94 78 81 92 q 107 46 107 64 q 94 14 107 28 m 339 14 q 332 7 339 14 q 307 0 325 0 q 275 14 289 0 q 261 46 261 28 q 275 78 261 64 q 307 92 289 92 q 339 78 325 92 q 353 46 353 64 q 339 14 353 28 m 589 14 q 582 7 589 14 q 557 0 575 0 q 525 14 539 0 q 511 46 511 28 q 525 78 511 64 q 557 92 539 92 q 589 78 575 92 q 603 46 603 64 q 589 14 603 28 z "},"‰":{"ha":1454,"x_min":108,"x_max":1408,"o":"m 1350 43 q 1321 14 1350 43 q 1208 -15 1292 -15 q 1067 43 1125 -15 q 1008 185 1008 101 q 1067 326 1008 268 q 1208 385 1125 385 q 1350 326 1292 385 q 1408 185 1408 268 q 1350 43 1408 101 m 1303 94 q 1321 114 1303 94 q 1339 185 1339 133 q 1303 276 1339 236 q 1208 315 1267 315 q 1114 276 1150 315 q 1078 185 1078 236 q 1114 94 1078 133 q 1208 54 1150 54 q 1303 94 1267 54 m 157 1 l 108 57 l 896 1028 l 951 971 l 157 1 m 890 43 q 861 14 890 43 q 749 -15 832 -15 q 607 43 665 -15 q 549 185 549 101 q 607 326 549 268 q 749 385 665 385 q 890 326 832 385 q 949 185 949 268 q 890 43 949 101 m 843 94 q 861 114 843 94 q 879 185 879 133 q 843 276 879 236 q 749 315 807 315 q 654 276 690 315 q 618 185 618 236 q 654 94 618 133 q 749 54 690 54 q 843 94 807 54 m 458 668 q 429 639 458 668 q 317 610 400 610 q 175 668 233 610 q 117 810 117 726 q 175 951 117 893 q 317 1010 233 1010 q 458 951 400 1010 q 517 810 517 893 q 458 668 517 726 m 411 719 q 429 739 411 719 q 447 810 447 758 q 411 901 447 861 q 317 940 375 940 q 222 901 258 940 q 186 810 186 861 q 222 719 186 758 q 317 679 258 679 q 411 719 375 679 z "},"‹":{"ha":372,"x_min":58,"x_max":369,"o":"m 367 158 l 318 111 l 58 371 l 58 372 l 318 632 l 369 579 l 161 371 l 367 158 z "},"›":{"ha":406,"x_min":4,"x_max":315,"o":"m 56 111 l 7 158 l 213 371 l 4 579 l 56 632 l 315 372 l 315 371 l 56 111 z "},"⁄":{"ha":683,"x_min":108,"x_max":638,"o":"m 193 -158 l 108 -158 l 558 1135 l 638 1135 l 193 -158 z "},"€":{"ha":732,"x_min":108,"x_max":686,"o":"m 686 32 q 461 -14 568 -14 q 394 -10 439 -14 q 298 22 349 -6 q 216 108 247 49 q 185 254 185 167 l 185 351 l 108 351 l 108 428 l 185 428 l 185 497 l 108 497 l 108 574 l 185 574 l 185 700 q 215 860 185 806 q 306 951 244 914 q 454 986 368 986 q 651 940 561 986 l 629 888 q 479 917 550 917 q 263 713 263 917 l 263 574 l 553 574 l 553 497 l 263 497 l 263 428 l 553 428 l 553 351 l 263 351 l 263 257 q 439 58 263 75 q 468 56 453 56 q 669 97 551 56 l 686 32 z "},"™":{"ha":813,"x_min":146,"x_max":663,"o":"m 663 711 l 599 711 l 599 878 l 543 711 l 500 711 l 444 878 l 444 711 l 378 711 l 378 908 l 300 908 l 300 711 l 233 711 l 233 908 l 146 908 l 146 972 l 467 972 l 521 822 l 574 972 l 663 972 l 663 711 z "},"Ω":{"ha":868,"x_min":108,"x_max":822,"o":"m 822 0 l 506 0 l 506 71 q 649 114 611 92 q 726 272 726 160 l 726 713 q 676 858 726 806 q 543 911 625 911 l 388 911 q 255 858 306 911 q 204 713 204 806 l 204 272 q 249 139 204 189 q 411 74 286 96 q 425 71 421 72 l 425 0 l 108 0 l 132 71 l 222 71 q 126 272 126 131 l 126 699 q 192 904 126 826 q 388 982 257 982 l 543 982 q 739 904 674 982 q 804 699 804 826 l 804 272 q 703 71 804 133 l 799 71 l 822 0 z "},"∆":{"ha":856,"x_min":108,"x_max":810,"o":"m 810 0 l 108 0 l 419 972 l 493 972 l 810 0 m 704 69 l 456 851 l 211 69 l 704 69 z "},"ﬀ":{"ha":757,"x_min":108,"x_max":711,"o":"m 488 922 q 625 972 543 972 q 711 949 678 972 l 683 881 q 619 897 650 897 q 561 879 589 897 q 510 763 510 844 l 510 696 l 668 696 l 635 622 l 510 622 l 510 0 l 432 0 l 432 779 q 447 861 432 822 q 332 899 386 899 q 228 858 269 899 q 186 763 186 817 l 186 696 l 344 696 l 311 622 l 186 622 l 186 0 l 108 0 l 108 779 q 144 897 108 847 q 304 981 203 981 q 488 922 406 981 z "},"ﬁ":{"ha":549,"x_min":108,"x_max":503,"o":"m 503 0 l 425 0 l 425 696 l 503 696 l 503 0 m 186 0 l 108 0 l 108 779 q 168 929 108 874 q 310 985 228 985 q 476 917 403 985 l 426 865 q 322 900 363 900 q 256 886 282 900 q 186 763 186 851 l 186 696 l 344 696 l 311 622 l 186 622 l 186 0 z "},"ﬂ":{"ha":549,"x_min":108,"x_max":503,"o":"m 108 779 q 168 928 108 874 q 321 982 228 982 q 503 913 414 982 l 503 0 l 425 0 l 425 865 q 322 899 363 899 q 254 885 281 899 q 186 763 186 850 l 186 696 l 344 696 l 311 622 l 186 622 l 186 0 l 108 0 l 108 779 z "},"ﬄ":{"ha":868,"x_min":108,"x_max":822,"o":"m 488 922 q 646 979 546 979 q 822 925 746 979 l 822 0 l 744 0 l 744 874 q 648 901 689 901 q 578 886 607 901 q 510 774 510 849 l 510 696 l 668 696 l 635 622 l 510 622 l 510 0 l 432 0 l 432 779 q 447 861 432 822 q 332 899 386 899 q 228 858 269 899 q 186 763 186 817 l 186 696 l 344 696 l 311 622 l 186 622 l 186 0 l 108 0 l 108 779 q 144 897 108 847 q 304 981 203 981 q 488 922 406 981 z "}," ":{"ha":386,"x_min":0,"x_max":0,"o":""}}}
